<svg width="1296" height="393" viewBox="0 0 1296 393" fill="none" xmlns="http://www.w3.org/2000/svg">
<g opacity="0.2">
<path d="M1067.37 151.821C1065.24 133.913 1057.3 116.495 1043.53 102.724C1010.98 70.1743 958.179 70.1743 925.629 102.724C917.518 110.834 911.368 120.251 907.34 130.266C906.959 129.831 906.523 129.395 906.088 128.96C888.017 110.889 858.733 110.889 840.662 128.96C835.926 133.695 832.443 139.193 830.211 145.072C826.999 141.153 823.625 137.397 819.978 133.75C760.757 74.5288 664.795 74.5288 605.574 133.75C583.475 155.849 569.649 183.01 564.043 211.532C559.851 204.619 554.735 198.087 548.747 192.1C517.722 161.074 471.945 153.781 434.007 170.273C429.979 128.252 411.908 87.3201 379.684 55.1513C307.944 -16.5889 192.713 -18.3307 118.85 49.8715C115.966 41.217 111.067 33.1067 104.154 26.194C80.3131 2.35315 41.7215 2.35315 17.8806 26.194C-5.96021 50.0348 -5.96021 88.6265 17.8806 112.467C31.434 126.021 49.7228 131.845 67.413 129.994C46.2392 195.203 61.5344 269.664 113.353 321.483C186.889 395.019 306.148 395.019 379.684 321.483C381.426 319.741 383.059 317.999 384.692 316.257C389.264 324.368 394.98 332.042 401.892 338.955C442.443 379.506 508.142 379.506 548.693 338.955C560.015 327.634 568.125 314.407 573.133 300.255C580.535 317.673 591.313 334.002 605.519 348.154C664.74 407.375 760.702 407.375 819.923 348.154C858.461 309.617 871.905 255.512 860.257 206.089C875.987 210.716 893.623 206.796 906.033 194.441C906.469 194.005 906.85 193.57 907.285 193.134C911.368 203.15 917.464 212.566 925.574 220.676C958.124 253.226 1010.92 253.226 1043.47 220.676C1047.45 216.703 1050.87 212.457 1053.87 207.994C1056.1 212.675 1059.15 217.084 1063.01 221.003C1081.08 239.074 1110.37 239.074 1128.44 221.003C1146.51 202.932 1146.51 173.648 1128.44 155.577C1111.78 138.866 1085.49 137.615 1067.37 151.821ZM1271.1 71.3718C1238.55 38.822 1185.76 38.822 1153.21 71.3718C1120.66 103.922 1120.66 156.72 1153.21 189.27C1185.76 221.819 1238.55 221.819 1271.1 189.27C1303.65 156.72 1303.65 103.922 1271.1 71.3718Z" fill="#484854"/>
</g>
</svg>
