<svg width="1920" height="662" viewBox="0 0 1920 662" fill="none" xmlns="http://www.w3.org/2000/svg">
<path d="M1990 93.1323C1990 140.537 1966.83 177.187 1921 183V662H-4V263.276C-4 198.91 50.1152 146.77 114.451 146.77C178.786 146.77 230.901 198.91 230.901 263.276C230.901 269.508 230.422 275.681 229.464 281.674C238.569 279.397 248.093 278.198 257.857 278.198C276.787 278.198 294.638 282.753 310.392 290.724C314.885 230.493 365.203 183.028 426.543 183.028C463.084 183.028 495.73 199.869 517.056 226.238C531.372 193.277 564.199 170.203 602.417 170.203C643.81 170.203 678.853 197.232 690.953 234.629C712.039 226.238 735.041 221.624 759.122 221.624C815.371 221.624 865.749 246.855 899.594 286.589C910.855 284.131 922.596 282.813 934.637 282.813C945.898 282.813 956.86 283.952 967.463 286.109C1022.27 195.254 1121.89 134.544 1235.71 134.544C1339.76 134.544 1431.95 185.306 1488.92 263.455C1518.27 264.534 1545.82 272.505 1570.14 285.75C1595.54 198.371 1676.17 134.544 1771.66 134.544C1786.87 134.544 1801.73 136.222 1816.04 139.279C1808.26 125.675 1803.82 109.913 1803.82 93.1323C1803.82 41.7118 1845.52 0 1896.91 0C1948.31 0 1990 41.7118 1990 93.1323Z" fill="white"/>
</svg>
