<svg width="1901" height="646" viewBox="0 0 1901 646" fill="none" xmlns="http://www.w3.org/2000/svg">
<path d="M1780.12 68.5954C1729.61 68.5954 1686.38 99.7962 1668.62 143.964C1661.44 140.722 1653.51 138.87 1645.18 138.87C1616.89 138.87 1593.39 159.651 1589.17 186.8C1578.41 183.616 1567.06 181.937 1555.26 181.937C1522.74 181.937 1493.29 194.846 1471.65 215.859C1450.93 198.956 1424.54 188.883 1395.79 188.883C1362.75 188.883 1332.83 202.197 1311.13 223.789C1302.62 203.239 1282.37 188.768 1258.7 188.768C1246.73 188.768 1235.62 192.472 1226.47 198.782C1202.87 178.811 1172.37 166.771 1139.1 166.771C1072.84 166.771 1017.7 214.411 1006.01 277.334C992.933 274.44 979.335 272.877 965.39 272.877C927.952 272.877 893.117 283.933 863.896 302.978C863.896 302.688 863.896 302.457 863.896 302.167C863.896 270.851 838.493 245.438 807.188 245.438C794.4 245.438 782.538 249.722 773.048 256.842C766.22 253.948 758.698 252.327 750.828 252.327C750.713 252.327 750.597 252.327 750.481 252.327C750.481 221.01 725.079 195.598 693.774 195.598C662.469 195.598 637.067 221.01 637.067 252.327C637.067 263.152 640.134 273.282 645.399 281.907C644.821 282.37 644.242 282.775 643.721 283.238C636.083 261.647 615.831 246.075 591.817 245.438C576.193 215.801 545.062 195.598 509.186 195.598C501.027 195.598 493.1 196.64 485.52 198.608C452.942 83.9353 347.513 0 222.468 0C71.4413 0 -51 122.488 -51 273.513C-51 424.539 71.4413 547.027 222.41 547.027C337.097 547.027 435.235 476.405 475.856 376.262C486.156 380.198 497.382 382.34 509.07 382.34C534.126 382.34 556.924 372.441 573.705 356.349C578.913 357.912 584.41 358.78 590.139 358.78C603.853 358.78 616.409 353.918 626.188 345.871C633.942 367.926 654.947 383.729 679.655 383.729C698.692 383.729 715.531 374.352 725.831 359.938C733.353 363.643 741.802 365.726 750.771 365.726C763.559 365.726 775.421 361.443 784.911 354.323C791.739 357.217 799.261 358.838 807.13 358.838C807.593 358.838 807.999 358.838 808.461 358.838C790.003 387.723 779.298 422.108 779.298 458.924C779.298 561.73 862.565 645.029 965.332 645.029C1068.1 645.029 1151.37 561.73 1151.37 458.924C1151.37 451.514 1150.96 444.278 1150.09 437.1C1219.7 431.485 1274.39 373.194 1274.39 302.109C1274.39 301.357 1274.39 300.662 1274.39 299.91C1274.91 299.736 1275.43 299.62 1275.95 299.446C1275.72 302.63 1275.54 305.814 1275.54 309.056C1275.54 375.451 1329.36 429.286 1395.73 429.286C1428.25 429.286 1457.7 416.377 1479.34 395.364C1500.06 412.267 1526.44 422.339 1555.2 422.339C1621.57 422.339 1675.39 368.505 1675.39 302.109C1675.39 283.18 1670.99 265.294 1663.24 249.317C1666.88 248.101 1670.41 246.48 1673.65 244.57C1693.73 282.833 1733.89 308.998 1780.12 308.998C1846.49 308.998 1900.31 255.163 1900.31 188.768C1900.25 122.43 1846.49 68.5954 1780.12 68.5954Z" fill="#27272D"/>
</svg>
