<svg width="64" height="64" viewBox="0 0 64 64" fill="none" xmlns="http://www.w3.org/2000/svg">
<path d="M24.1093 34.2905H40.086L47.0156 64.0002H15.5435L24.1093 34.2905Z" fill="url(#paint0_linear)"/>
<mask id="mask0" style="mask-type:alpha" maskUnits="userSpaceOnUse" x="13" y="4" width="38" height="28">
<path fill-rule="evenodd" clip-rule="evenodd" d="M14.8873 28.9779C14.2415 27.0884 13.8906 25.0588 13.8906 22.9461C13.8906 12.7907 21.9979 4.55804 31.9986 4.55804C41.9994 4.55804 50.1066 12.7907 50.1066 22.9461C50.1066 25.0589 49.7557 27.0884 49.1099 28.9779C44.1473 30.7425 38.2824 31.7624 31.9987 31.7624C25.7149 31.7624 19.8499 30.7425 14.8873 28.9779Z" fill="url(#paint1_radial)"/>
</mask>
<g mask="url(#mask0)">
<g opacity="0.18">
<path opacity="0.18" d="M79.4151 18.8069L26.1387 15.816L26.1294 15.9812L79.4058 18.9721L79.4151 18.8069Z" fill="white"/>
</g>
<path d="M31.5013 26.7272C33.5772 26.8437 35.2957 26.3015 35.3398 25.516C35.3839 24.7305 33.7368 23.9993 31.661 23.8828C29.5852 23.7663 27.8666 24.3085 27.8225 25.094C27.7784 25.8794 29.4255 26.6106 31.5013 26.7272Z" fill="#EDEDF4"/>
<path opacity="0.15" d="M32.1068 26.646C32.1068 26.646 28.4982 26.6182 28.3296 25.0478C28.2636 24.31 29.9874 23.9733 31.8208 23.9214C29.7243 23.8565 28.0371 24.2882 28.0082 25.0625C27.9793 25.8368 29.5574 26.5375 31.6905 26.6973C31.7854 26.6607 31.8804 26.6242 32.1068 26.646Z" fill="#73737F"/>
<path d="M31.5435 26.3445C33.395 26.4485 34.9265 25.987 34.9643 25.3137C35.0021 24.6405 33.5318 24.0104 31.6804 23.9065C29.829 23.8026 28.2975 24.2641 28.2597 24.9373C28.2219 25.6106 29.6921 26.2406 31.5435 26.3445Z" fill="white"/>
<path d="M31.5572 26.3366C33.4086 26.4405 34.9402 25.979 34.9779 25.3057C35.0157 24.6325 33.5455 24.0025 31.6941 23.8985C29.8427 23.7946 28.3112 24.2561 28.2734 24.9293C28.2356 25.6026 29.7058 26.2326 31.5572 26.3366Z" fill="#BCBCCC"/>
<path d="M31.551 26.3048C33.3464 26.4056 34.8298 25.987 34.8645 25.3698C34.8991 24.7527 33.4718 24.1707 31.6765 24.0699C29.8812 23.9691 28.3977 24.3877 28.363 25.0049C28.3284 25.622 29.7557 26.204 31.551 26.3048Z" fill="#73737F"/>
<path d="M29.5478 24.2511C29.5478 24.2511 30.1541 24.1267 30.5486 24.3018C30.0591 24.1632 29.5478 24.2511 29.5478 24.2511Z" fill="#8F8F99"/>
<path d="M33.7791 24.4758C33.7791 24.4758 33.1946 24.3738 32.7783 24.4251C33.2896 24.3372 33.7791 24.4758 33.7791 24.4758Z" fill="#8F8F99"/>
<path opacity="0.15" d="M31.7837 23.8265C33.179 24.0524 34.1362 24.556 34.1291 25.1039C34.0636 25.7833 32.6978 26.2002 30.9227 26.1205C30.2433 26.0551 29.5639 25.9896 29.0379 25.756C29.6005 26.0845 30.5429 26.2668 31.5437 26.3175C33.4137 26.3606 34.9111 26.002 34.94 25.2277C35.0054 24.5483 33.5954 24.0011 31.7837 23.8265Z" fill="#73737F"/>
<path d="M33.0943 23.2305L30.25 23.0711L30.1532 24.798L32.9975 24.9574L33.0943 23.2305Z" fill="#73737F"/>
<g opacity="0.15">
<path opacity="0.15" d="M31.9964 24.9441C32.0914 24.9075 32.1863 24.871 32.3178 24.9294C32.3178 24.9294 32.2229 24.9659 31.9964 24.9441Z" fill="#73737F"/>
</g>
<path d="M31.6696 23.5548C32.455 23.5989 33.102 23.4527 33.1146 23.2283C33.1272 23.0039 32.5006 22.7862 31.7152 22.7421C30.9297 22.698 30.2828 22.8442 30.2702 23.0686C30.2576 23.293 30.8841 23.5107 31.6696 23.5548Z" fill="#8F8F99"/>
<path d="M31.7043 23.4373C32.4337 23.4782 33.0326 23.375 33.042 23.2067C33.0515 23.0384 32.4679 22.8687 31.7386 22.8278C31.0092 22.7868 30.4103 22.8901 30.4009 23.0584C30.3914 23.2267 30.975 23.3963 31.7043 23.4373Z" fill="#73737F"/>
<path d="M32.9077 23.0665L33.1253 19.3847L30.6419 20.0139L30.4897 23.0163L30.5045 23.3377C30.6726 23.491 31.162 23.6296 31.7099 23.6367C32.2578 23.6438 32.6741 23.5925 32.9589 23.4828L32.9077 23.0665Z" fill="#69DDAE"/>
<path d="M31.2277 21.533C31.2277 21.533 33.1715 23.1831 35.3771 22.1158C37.6193 21.1433 39.6197 18.4105 39.3326 12.8517C38.9505 7.32938 31.2722 4.94379 28.031 10.1169C24.2861 16.2471 31.2277 21.533 31.2277 21.533Z" fill="#75F1C1"/>
<path d="M39.2681 14.9483C39.0286 18.8564 37.3201 20.9316 35.4577 21.7578C33.3104 22.6937 31.4032 21.1385 31.4032 21.1385C31.4032 21.1385 24.5931 15.9111 28.2212 10.0438C29.5133 8.01989 31.4707 7.15716 33.3773 7.29518C31.3757 7.19372 29.2869 7.99807 27.9364 10.1535C24.1549 16.1888 31.1332 21.5697 31.1332 21.5697C31.1332 21.5697 33.0769 23.2198 35.2825 22.1524C37.2399 21.2897 39.1382 19.1413 39.2681 14.9483Z" fill="#69DDAE"/>
<path opacity="0.42" d="M30.7852 18.093C31.4023 19.0322 32.4736 19.4184 33.178 18.9556C33.8824 18.4928 33.9532 17.3562 33.3361 16.417C32.719 15.4778 31.6477 15.0916 30.9433 15.5545C30.2389 16.0173 30.1682 17.1538 30.7852 18.093Z" fill="#A7A9CA"/>
<path opacity="0.42" d="M35.9439 19.163C36.5922 19.7016 37.7 19.4376 38.4183 18.5732C39.1365 17.7088 39.1932 16.5714 38.5449 16.0327C37.8966 15.4941 36.7888 15.7581 36.0706 16.6225C35.3524 17.4869 35.2957 18.6243 35.9439 19.163Z" fill="#A7A9CA"/>
<path d="M31.0274 18.1078C31.6445 19.047 32.7158 19.4331 33.4202 18.9703C34.1246 18.5075 34.1954 17.371 33.5783 16.4318C32.9612 15.4926 31.8899 15.1064 31.1855 15.5692C30.4811 16.032 30.4104 17.1686 31.0274 18.1078Z" fill="white"/>
<path opacity="0.16" d="M33.9805 17.6386C33.9369 18.0915 33.7617 18.486 33.5134 18.6907C32.9219 19.1365 32.0014 18.7278 31.4824 17.9464C30.9635 17.165 31.0142 16.1643 31.6057 15.7184C32.1972 15.2726 33.1178 15.6813 33.6367 16.4627C33.7098 16.6526 33.8779 16.8059 33.8561 17.0324C33.783 16.8425 33.6733 16.5576 33.5052 16.4043C32.9131 15.433 31.8027 15.0974 31.1162 15.5798C30.4298 16.0622 30.3207 17.1945 30.9127 18.1658C31.5048 19.1371 32.6153 19.4727 33.3017 18.9903C33.8348 18.6759 33.9734 18.1865 33.9805 17.6386Z" fill="#A7A9CA"/>
<path d="M36.2057 19.1626C36.854 19.7013 37.9617 19.4372 38.68 18.5728C39.3982 17.7085 39.4549 16.5711 38.8066 16.0324C38.1584 15.4937 37.0506 15.7577 36.3323 16.6221C35.6141 17.4865 35.5574 18.6239 36.2057 19.1626Z" fill="white"/>
<path d="M31.2033 14.6738C31.2033 14.6738 31.6999 14.2645 32.8905 14.2421C34.0812 14.2197 33.0215 12.8834 31.6557 13.3003C30.4213 13.7756 30.6118 15.1196 31.2033 14.6738Z" fill="#3CAF8E"/>
<path d="M39.3039 15.0433C39.3039 15.0433 38.9896 14.5102 37.9375 14.0431C36.8489 13.4811 38.4264 12.7646 39.4348 13.6846C40.4433 14.6046 39.6548 15.6714 39.3039 15.0433Z" fill="#3CAF8E"/>
<path opacity="0.42" d="M31.0648 13.7462C31.0648 13.7462 30.4149 14.3235 30.6343 14.8932C30.8537 15.4629 31.3573 14.5057 32.4896 14.6149C33.4904 14.6656 33.629 14.1761 33.3512 13.7379C33.3512 13.7379 33.4609 14.0228 32.9496 14.1107C32.4017 14.1036 31.664 14.1696 31.2258 14.4474C30.7876 14.7251 30.8165 13.9508 31.0648 13.7462Z" fill="#A7A9CA"/>
<path opacity="0.42" d="M38.3831 13.2173C38.3831 13.2173 38.0617 13.2321 37.9449 13.4951C37.8282 13.7581 38.8437 14.1303 39.253 14.6268C39.5307 15.065 39.7937 15.1818 39.8156 14.9553C39.8156 14.9553 39.7353 15.3132 39.4139 15.328L39.2824 15.2696L39.319 15.3645C39.319 15.3645 39.0047 14.8314 37.9891 14.4593C37.032 13.9556 37.2508 13.1082 38.3831 13.2173Z" fill="#A7A9CA"/>
<path opacity="0.16" d="M36.6473 18.9014C36.0482 18.4779 36.0989 17.4772 36.7706 16.6734C37.3474 15.9061 38.37 15.7304 38.9692 16.1538C39.1007 16.2122 39.1372 16.3071 39.1738 16.4021C39.1007 16.2122 39.0276 16.0223 38.7645 15.9056C38.1288 15.3872 37.0112 15.5994 36.2811 16.5347C35.5145 17.3751 35.5369 18.5658 36.1726 19.0842C36.8083 19.6026 37.8309 19.4268 38.5392 18.718C37.8528 19.2004 37.1516 19.3614 36.6473 18.9014Z" fill="#A7A9CA"/>
<path d="M34.8729 20.2386C34.325 20.2315 33.799 19.998 33.5725 19.9762L33.536 19.8812L33.6309 19.8447C33.8574 19.8665 34.4784 20.0635 35.0262 20.0706C35.0262 20.0706 35.1577 20.1289 35.0628 20.1655C35.0628 20.1655 35.0044 20.297 34.9678 20.2021C35.0994 20.2604 34.9678 20.2021 34.8729 20.2386Z" fill="#3CAF8E"/>
<path d="M34.7645 25.6223C34.5599 25.374 34.107 25.3303 33.7124 25.1552C33.3545 25.0749 32.9599 24.8998 32.9234 24.8049C32.8868 24.7099 32.8721 24.3885 32.8208 23.9722C32.806 23.6508 32.9228 23.3877 32.9228 23.3877C32.9228 23.3877 32.7771 24.4251 32.8868 24.7099C32.9599 24.8998 33.3179 24.98 33.6759 25.0602C34.1653 25.1988 34.5599 25.374 34.7645 25.6223Z" fill="#8F8F99"/>
<path d="M33.1503 26.2439C33.1721 26.0174 32.7994 25.6157 32.4632 25.3091C32.2586 25.0608 32.0906 24.9075 32.054 24.8125C31.9443 24.5277 32.09 23.4903 32.09 23.4903C32.09 23.4903 31.9443 24.5277 32.054 24.8125C32.0906 24.9075 32.2586 25.0608 32.4632 25.3091C32.7994 25.6157 33.1721 26.0174 33.1503 26.2439Z" fill="#8F8F99"/>
<path d="M29.4327 25.9312C29.6078 25.5367 30.141 25.2224 30.6157 25.0396C30.8056 24.9665 30.9955 24.8933 31.0539 24.7618C31.2072 24.5937 31.0898 23.4396 31.0898 23.4396C31.0898 23.4396 31.1122 24.6303 30.9589 24.7984C30.864 24.8349 30.7106 25.003 30.5207 25.0762C30.141 25.2224 29.6078 25.5367 29.4327 25.9312Z" fill="#8F8F99"/>
<path d="M28.4825 24.8797C28.5993 24.6167 29.337 24.5507 29.8849 24.5578C30.1114 24.5796 30.3962 24.4699 30.3962 24.4699C30.4546 24.3384 30.4835 23.5641 30.4688 23.2427C30.4688 23.2427 30.4835 23.5641 30.4617 23.7905C30.4033 23.9221 30.4546 24.3384 30.3962 24.4699C30.3962 24.4699 30.2063 24.543 29.8849 24.5578C29.3736 24.6456 28.6358 24.7117 28.4825 24.8797Z" fill="#8F8F99"/>
<path d="M31.5798 24.9955C31.4848 25.032 31.3533 24.9736 31.2584 25.0102C30.9004 24.9299 30.6374 24.8132 30.6374 24.8132C30.6374 24.8132 30.9004 24.9299 31.2584 25.0102C31.6163 25.0904 32.1642 25.0975 32.6973 24.7832C32.3176 24.9294 31.9012 24.9807 31.5798 24.9955Z" fill="#8F8F99"/>
<path opacity="0.15" d="M31.7697 24.9224C31.6382 24.864 31.6017 24.769 31.5651 24.6741L31.6376 23.4468C30.8633 23.4179 30.2423 23.221 30.2642 22.9945L30.2718 23.8638C29.5341 23.9298 28.9644 24.1491 28.6211 24.3903C28.7526 24.4487 28.6943 24.5802 28.5993 24.6168C28.8476 24.4122 29.3223 24.2294 29.9286 24.1049C29.3223 24.2294 28.7526 24.4487 28.5044 24.6534C28.5044 24.6534 29.1324 24.3025 30.2063 24.5431C30.2358 25.1859 31.0685 25.0833 31.032 24.9884C30.9954 24.8934 30.8273 24.7401 31.2219 24.9153C31.4483 24.9371 31.6748 24.9589 31.9012 24.9807C31.9012 24.9807 31.9012 24.9807 31.7697 24.9224ZM30.0601 24.1634C29.9652 24.1999 29.9652 24.1999 30.0601 24.1634C29.9652 24.1999 29.9652 24.1999 30.0601 24.1634ZM30.25 24.0902C30.1551 24.1268 30.155 24.1268 30.0601 24.1634C30.0601 24.1634 30.1551 24.1268 30.25 24.0902Z" fill="#73737F"/>
<path d="M23.0799 34.9187C23.0139 34.1809 22.4731 33.626 21.8303 33.6555L15.8769 33.7674L15.8633 36.2803L21.8532 36.2632C22.591 36.1972 23.1094 35.5615 23.0799 34.9187Z" fill="#D5D5E0"/>
<path d="M41.1008 35.284L37.4812 25.8842C37.2252 25.2195 36.4362 24.8692 35.7715 25.1252C35.1069 25.3811 34.7566 26.1702 35.0125 26.8348L38.6322 36.2346C38.8881 36.8993 39.6772 37.2496 40.3418 36.9936C41.1014 36.7012 41.3568 35.9487 41.1008 35.284Z" fill="#D5D5E0"/>
<path d="M35.8086 25.2203C36.4733 24.9643 37.2623 25.3146 37.5183 25.9793L38.0301 27.3085L36.278 29.8367L35.1446 26.8933C34.8521 26.1337 35.144 25.4762 35.8086 25.2203Z" fill="#BCBCCC"/>
<path d="M39.1728 36.7897C38.5736 36.3663 38.471 35.5336 38.931 35.0294L42.545 30.2579L44.5471 31.7765L41.0646 36.6064C40.6046 37.1106 39.7719 37.2132 39.1728 36.7897Z" fill="#D5D5E0"/>
<path d="M39.4365 36.9063C39.4365 36.9063 39.3415 36.9428 39.3049 36.8479L39.4365 36.9063C39.568 36.9647 39.9478 36.8184 40.5027 36.2777C40.9043 35.905 41.4227 35.2692 41.9995 34.502C42.9997 33.1356 43.7734 31.7474 43.7734 31.7474C43.7734 31.7474 42.9047 33.1721 41.9995 34.502C41.4227 35.2692 40.9043 35.905 40.5027 36.2777C40.0427 36.7819 39.6629 36.9281 39.4365 36.9063Z" fill="#EDEDF4"/>
<path opacity="0.15" d="M39.9119 36.7237C39.7438 36.5704 39.6707 36.3805 39.6925 36.154C39.6777 35.8326 39.6996 35.6061 39.9113 35.3065L43.277 30.7397L42.5097 30.1629L39.4507 34.3936L36.6496 25.987C35.9484 26.148 35.5834 26.6156 35.3864 27.2366L38.8232 36.1617C39.0426 36.7314 39.7001 37.0233 40.3064 36.8989C40.4013 36.8623 40.4963 36.8257 40.6862 36.7526C40.3064 36.8989 40.0799 36.8771 39.9119 36.7237Z" fill="#73737F"/>
<path d="M27.2177 24.7125C26.5601 24.4205 25.764 24.618 25.472 25.2756L20.8225 34.1528C20.5305 34.8103 20.7281 35.6065 21.3856 35.8984C22.0432 36.1903 22.8393 35.9928 23.1313 35.3353L27.7809 26.4581C28.0728 25.8005 27.8752 25.0044 27.2177 24.7125Z" fill="#D5D5E0"/>
<path d="M27.2177 24.7125C26.5601 24.4205 25.764 24.618 25.472 25.2756L24.8516 26.4958L26.3283 29.1979L27.7809 26.4581C28.0728 25.8005 27.8752 25.0044 27.2177 24.7125Z" fill="#BCBCCC"/>
<path opacity="0.15" d="M27.218 24.7124C26.6554 24.384 25.8958 24.6764 25.5673 25.239L21.0563 33.6268L15.7457 33.7092L15.8849 34.6369L16.3891 35.0969L20.8304 35.022C20.8304 35.022 21.7946 34.9778 22.415 33.7577L22.4734 33.6262L24.9551 28.7456C25.3419 28.0515 26.2843 28.2337 26.4453 28.9349L26.4819 29.0298L27.9344 26.2899C28.073 25.8005 27.8755 25.0044 27.218 24.7124Z" fill="#73737F"/>
<path d="M32.0456 23.9433L31.6876 23.8631L31.4977 23.9362L31.0448 23.8925L27.0935 25.5231L26.328 29.1977L26.4635 39.176L30.5981 39.4373L30.8246 39.4592L34.8277 39.6621L36.1459 29.7782L35.7791 25.9944L32.0456 23.9433Z" fill="#D5D5E0"/>
<path opacity="0.15" d="M36.043 28.9456C35.4875 28.0693 34.4791 27.1492 33.1056 26.6969C33.6169 26.609 34.0333 26.5578 34.4714 26.28C35.3844 25.8194 35.3914 25.2715 34.9822 24.775L32.0453 23.9434L31.5924 23.8998L31.3659 23.8779L30.913 23.8343L26.1798 24.5667L26.3683 39.2127L28.3699 39.3142L27.7591 28.1016C28.6136 27.7725 29.8261 27.5237 31.2432 27.5231C33.6977 27.6682 35.159 28.6318 35.9994 29.3985L35.9628 29.3036L36.043 28.9456ZM27.788 27.3272C27.788 27.3272 27.6635 26.721 28.3647 26.56C28.5546 26.4869 28.9126 26.5671 29.3655 26.6108C28.7593 26.7352 28.1896 26.9545 27.788 27.3272Z" fill="#73737F"/>
<path d="M32.0469 23.9434L31.594 23.8997L31.3675 23.8779L31.2726 23.9144L30.9512 23.9292L26.2179 24.6616L26.2344 29.2344C26.2344 29.2344 27.4316 27.247 31.2082 27.4281C34.9265 27.7407 35.9573 29.8514 35.9573 29.8514L36.4887 25.2857L32.0469 23.9434Z" fill="#BCBCCC"/>
<path opacity="0.15" d="M27.6281 28.043L27.5986 27.4003C27.5986 27.4003 27.6275 26.6259 28.3653 26.5599C29.0665 26.3989 32.3613 27.3107 34.472 26.2799C35.3849 25.8193 35.392 25.2714 34.9827 24.7749L32.0459 23.9433L31.5929 23.8997L31.3665 23.8778L31.2715 23.9144L30.9501 23.9291L26.2169 24.6615L26.2334 29.2343C26.3283 29.1978 26.7517 28.5986 27.6281 28.043Z" fill="#73737F"/>
<path opacity="0.15" d="M31.36 27.26C27.5834 27.0789 26.3278 29.1978 26.3278 29.1978C26.3278 29.1978 27.6199 27.1739 31.36 27.26C35.1149 27.6676 36.1091 29.6833 36.1091 29.6833C36.1091 29.6833 35.1732 27.5361 31.36 27.26Z" fill="#73737F"/>
<path d="M31.4994 26.7273C33.5752 26.8438 35.2937 26.3016 35.3378 25.5161C35.3819 24.7307 33.7349 23.9995 31.659 23.8829C29.5832 23.7664 27.8646 24.3086 27.8205 25.0941C27.7765 25.8796 29.4235 26.6108 31.4994 26.7273Z" fill="#EDEDF4"/>
<path opacity="0.15" d="M32.1049 26.646C32.1049 26.646 28.4963 26.6182 28.3276 25.0478C28.2616 24.31 29.9854 23.9733 31.8189 23.9214C29.7224 23.8565 28.0352 24.2882 28.0062 25.0625C27.9773 25.8368 29.5555 26.5375 31.6885 26.6973C31.7835 26.6607 31.8784 26.6242 32.1049 26.646Z" fill="#73737F"/>
<path d="M31.5416 26.3445C33.393 26.4485 34.9245 25.987 34.9623 25.3137C35.0001 24.6405 33.5299 24.0104 31.6785 23.9065C29.827 23.8026 28.2955 24.2641 28.2577 24.9373C28.2199 25.6106 29.6902 26.2406 31.5416 26.3445Z" fill="white"/>
<path d="M31.5572 26.3366C33.4086 26.4405 34.9402 25.979 34.9779 25.3057C35.0157 24.6325 33.5455 24.0025 31.6941 23.8985C29.8427 23.7946 28.3112 24.2561 28.2734 24.9293C28.2356 25.6026 29.7058 26.2326 31.5572 26.3366Z" fill="#BCBCCC"/>
<path d="M31.551 26.3048C33.3464 26.4056 34.8298 25.987 34.8645 25.3698C34.8991 24.7527 33.4718 24.1707 31.6765 24.0699C29.8812 23.9691 28.3977 24.3877 28.363 25.0049C28.3284 25.622 29.7557 26.204 31.551 26.3048Z" fill="#73737F"/>
<path d="M29.5478 24.2511C29.5478 24.2511 30.1541 24.1267 30.5486 24.3018C30.0591 24.1632 29.5478 24.2511 29.5478 24.2511Z" fill="#8F8F99"/>
<path d="M33.7771 24.4758C33.7771 24.4758 33.1927 24.3738 32.7763 24.4251C33.2876 24.3372 33.7771 24.4758 33.7771 24.4758Z" fill="#8F8F99"/>
<path opacity="0.15" d="M31.7837 23.8265C33.179 24.0524 34.1362 24.556 34.1291 25.1039C34.0636 25.7833 32.6978 26.2002 30.9227 26.1205C30.2433 26.0551 29.5639 25.9896 29.0379 25.756C29.6005 26.0845 30.5429 26.2668 31.5437 26.3175C33.4137 26.3606 34.9111 26.002 34.94 25.2277C35.0054 24.5483 33.5954 24.0011 31.7837 23.8265Z" fill="#73737F"/>
<path d="M33.0943 23.2305L30.25 23.0711L30.1532 24.798L32.9975 24.9574L33.0943 23.2305Z" fill="#73737F"/>
<g opacity="0.15">
<path opacity="0.15" d="M31.9964 24.9441C32.0914 24.9075 32.1863 24.871 32.3178 24.9294C32.3178 24.9294 32.2229 24.9659 31.9964 24.9441Z" fill="#73737F"/>
</g>
<path d="M31.6696 23.5548C32.455 23.5989 33.102 23.4527 33.1146 23.2283C33.1272 23.0039 32.5006 22.7862 31.7152 22.7421C30.9297 22.698 30.2828 22.8442 30.2702 23.0686C30.2576 23.293 30.8841 23.5107 31.6696 23.5548Z" fill="#8F8F99"/>
<path d="M31.7043 23.4373C32.4337 23.4782 33.0326 23.375 33.042 23.2067C33.0515 23.0384 32.4679 22.8687 31.7386 22.8278C31.0092 22.7868 30.4103 22.8901 30.4009 23.0584C30.3914 23.2267 30.975 23.3963 31.7043 23.4373Z" fill="#73737F"/>
<path d="M32.9077 23.0665L33.1253 19.3847L30.6419 20.0139L30.4897 23.0163L30.5045 23.3377C30.6726 23.491 31.162 23.6296 31.7099 23.6367C32.2578 23.6438 32.6741 23.5925 32.9589 23.4828L32.9077 23.0665Z" fill="#69DDAE"/>
<path d="M31.2277 21.5331C31.2277 21.5331 33.1715 23.1832 35.3771 22.1158C37.6193 21.1434 39.6197 18.4105 39.3326 12.8517C38.9505 7.32941 31.2722 4.94382 28.031 10.1169C24.2861 16.2471 31.2277 21.5331 31.2277 21.5331Z" fill="#75F1C1"/>
<path d="M39.2681 14.9483C39.0286 18.8565 37.3201 20.9317 35.4577 21.7579C33.3104 22.6937 31.4032 21.1386 31.4032 21.1386C31.4032 21.1386 24.5931 15.9111 28.2212 10.0439C29.5133 8.01992 31.4707 7.15719 33.3773 7.29521C31.3757 7.19375 29.2869 7.9981 27.9364 10.1536C24.1549 16.1888 31.1332 21.5697 31.1332 21.5697C31.1332 21.5697 33.0769 23.2198 35.2825 22.1524C37.2399 21.2897 39.1382 19.1413 39.2681 14.9483Z" fill="#69DDAE"/>
<path opacity="0.42" d="M30.7852 18.0931C31.4023 19.0323 32.4736 19.4184 33.178 18.9556C33.8824 18.4928 33.9532 17.3562 33.3361 16.4171C32.719 15.4779 31.6477 15.0917 30.9433 15.5545C30.2389 16.0173 30.1682 17.1539 30.7852 18.0931Z" fill="#A7A9CA"/>
<path opacity="0.42" d="M35.9439 19.163C36.5922 19.7017 37.7 19.4376 38.4183 18.5732C39.1365 17.7089 39.1932 16.5714 38.5449 16.0328C37.8966 15.4941 36.7888 15.7581 36.0706 16.6225C35.3524 17.4869 35.2957 18.6243 35.9439 19.163Z" fill="#A7A9CA"/>
<path d="M31.0274 18.1078C31.6445 19.047 32.7158 19.4332 33.4202 18.9704C34.1246 18.5075 34.1954 17.371 33.5783 16.4318C32.9612 15.4926 31.8899 15.1064 31.1855 15.5692C30.4811 16.032 30.4104 17.1686 31.0274 18.1078Z" fill="white"/>
<path opacity="0.16" d="M33.9805 17.6386C33.9369 18.0916 33.7617 18.4861 33.5134 18.6907C32.9219 19.1365 32.0014 18.7279 31.4824 17.9465C30.9635 17.1651 31.0142 16.1643 31.6057 15.7185C32.1972 15.2726 33.1178 15.6813 33.6367 16.4627C33.7098 16.6526 33.8779 16.806 33.8561 17.0324C33.783 16.8425 33.6733 16.5577 33.5052 16.4043C32.9131 15.433 31.8027 15.0975 31.1162 15.5798C30.4298 16.0622 30.3207 17.1945 30.9127 18.1658C31.5048 19.1371 32.6153 19.4727 33.3017 18.9903C33.8348 18.676 33.9734 18.1865 33.9805 17.6386Z" fill="#A7A9CA"/>
<path d="M36.2057 19.1626C36.854 19.7013 37.9617 19.4373 38.68 18.5729C39.3982 17.7085 39.4549 16.5711 38.8066 16.0324C38.1584 15.4937 37.0506 15.7578 36.3323 16.6221C35.6141 17.4865 35.5574 18.6239 36.2057 19.1626Z" fill="white"/>
<path d="M31.2033 14.6738C31.2033 14.6738 31.6999 14.2646 32.8905 14.2422C34.0812 14.2198 33.0215 12.8834 31.6557 13.3004C30.4213 13.7757 30.6118 15.1197 31.2033 14.6738Z" fill="#3CAF8E"/>
<path d="M39.3039 15.0433C39.3039 15.0433 38.9896 14.5102 37.9375 14.0432C36.8489 13.4811 38.4264 12.7646 39.4348 13.6846C40.4433 14.6046 39.6548 15.6714 39.3039 15.0433Z" fill="#3CAF8E"/>
<path opacity="0.42" d="M31.0648 13.7462C31.0648 13.7462 30.4149 14.3235 30.6343 14.8932C30.8537 15.4629 31.3573 14.5058 32.4896 14.6149C33.4904 14.6656 33.629 14.1761 33.3512 13.738C33.3512 13.738 33.4609 14.0228 32.9496 14.1107C32.4017 14.1036 31.664 14.1696 31.2258 14.4474C30.7876 14.7251 30.8165 13.9508 31.0648 13.7462Z" fill="#A7A9CA"/>
<path opacity="0.42" d="M38.3831 13.2173C38.3831 13.2173 38.0617 13.2321 37.9449 13.4951C37.8282 13.7581 38.8437 14.1303 39.253 14.6268C39.5307 15.065 39.7937 15.1818 39.8156 14.9553C39.8156 14.9553 39.7353 15.3133 39.4139 15.328L39.2824 15.2696L39.319 15.3646C39.319 15.3646 39.0047 14.8314 37.9891 14.4593C37.032 13.9557 37.2508 13.1082 38.3831 13.2173Z" fill="#A7A9CA"/>
<path opacity="0.16" d="M36.6473 18.9014C36.0482 18.478 36.0989 17.4772 36.7706 16.6734C37.3474 15.9062 38.37 15.7304 38.9692 16.1539C39.1007 16.2122 39.1372 16.3072 39.1738 16.4021C39.1007 16.2122 39.0276 16.0224 38.7645 15.9056C38.1288 15.3872 37.0112 15.5994 36.2811 16.5347C35.5145 17.3751 35.5369 18.5658 36.1726 19.0842C36.8083 19.6026 37.8309 19.4269 38.5392 18.718C37.8528 19.2004 37.1516 19.3614 36.6473 18.9014Z" fill="#A7A9CA"/>
<path d="M34.8729 20.2387C34.325 20.2316 33.799 19.998 33.5725 19.9762L33.536 19.8813L33.6309 19.8447C33.8574 19.8665 34.4784 20.0635 35.0262 20.0706C35.0262 20.0706 35.1577 20.129 35.0628 20.1655C35.0628 20.1655 35.0044 20.297 34.9678 20.2021C35.0994 20.2605 34.9678 20.2021 34.8729 20.2387Z" fill="#3CAF8E"/>
<path d="M34.7645 25.6223C34.5599 25.374 34.107 25.3303 33.7124 25.1552C33.3545 25.0749 32.9599 24.8998 32.9234 24.8049C32.8868 24.7099 32.8721 24.3885 32.8208 23.9722C32.806 23.6508 32.9228 23.3877 32.9228 23.3877C32.9228 23.3877 32.7771 24.4251 32.8868 24.7099C32.9599 24.8998 33.3179 24.98 33.6759 25.0602C34.1653 25.1988 34.5599 25.374 34.7645 25.6223Z" fill="#8F8F99"/>
<path d="M33.1503 26.2439C33.1721 26.0174 32.7994 25.6157 32.4632 25.3091C32.2586 25.0608 32.0906 24.9075 32.054 24.8125C31.9443 24.5277 32.09 23.4903 32.09 23.4903C32.09 23.4903 31.9443 24.5277 32.054 24.8125C32.0906 24.9075 32.2586 25.0608 32.4632 25.3091C32.7994 25.6157 33.1721 26.0174 33.1503 26.2439Z" fill="#8F8F99"/>
<path d="M29.4327 25.9312C29.6078 25.5367 30.141 25.2224 30.6157 25.0396C30.8056 24.9665 30.9955 24.8933 31.0539 24.7618C31.2072 24.5937 31.0898 23.4396 31.0898 23.4396C31.0898 23.4396 31.1122 24.6303 30.9589 24.7984C30.864 24.8349 30.7106 25.003 30.5207 25.0762C30.141 25.2224 29.6078 25.5367 29.4327 25.9312Z" fill="#8F8F99"/>
<path d="M28.4825 24.8797C28.5993 24.6167 29.337 24.5507 29.8849 24.5578C30.1114 24.5796 30.3962 24.4699 30.3962 24.4699C30.4546 24.3384 30.4835 23.5641 30.4688 23.2427C30.4688 23.2427 30.4835 23.5641 30.4617 23.7905C30.4033 23.9221 30.4546 24.3384 30.3962 24.4699C30.3962 24.4699 30.2063 24.543 29.8849 24.5578C29.3736 24.6456 28.6358 24.7117 28.4825 24.8797Z" fill="#8F8F99"/>
<path d="M31.5798 24.9955C31.4848 25.032 31.3533 24.9736 31.2584 25.0102C30.9004 24.9299 30.6374 24.8132 30.6374 24.8132C30.6374 24.8132 30.9004 24.9299 31.2584 25.0102C31.6163 25.0904 32.1642 25.0975 32.6973 24.7832C32.3176 24.9294 31.9012 24.9807 31.5798 24.9955Z" fill="#8F8F99"/>
<path d="M43.201 31.4048C43.7432 31.8057 44.3181 31.9475 44.4851 31.7216C44.6522 31.4957 44.3481 30.9876 43.8059 30.5867C43.2638 30.1858 42.6888 30.0439 42.5217 30.2698C42.3547 30.4957 42.6588 31.0039 43.201 31.4048Z" fill="#EDEDF4"/>
<path d="M43.2793 31.3297C43.7763 31.6972 44.2875 31.8486 44.4211 31.6679C44.5548 31.4871 44.2602 31.0427 43.7632 30.6752C43.2662 30.3077 42.7549 30.1562 42.6213 30.337C42.4877 30.5177 42.7823 30.9622 43.2793 31.3297Z" fill="#BCBCCC"/>
<path d="M44.8604 30.8924L43.3259 29.7389L42.8075 30.3745L42.6542 30.5426C42.7273 30.7325 42.9685 31.0758 43.3996 31.3459C43.7357 31.6525 44.0937 31.7328 44.3202 31.7546L44.4369 31.4916L44.8604 30.8924Z" fill="#73737F"/>
<path opacity="0.15" d="M43.4593 31.2144C43.3131 30.8347 43.7731 30.3305 43.7731 30.3305L43.963 30.2574L43.2323 29.7755L42.7139 30.4112L42.5606 30.5793C42.6337 30.7692 42.8749 31.1124 43.306 31.3825C43.6421 31.6892 44.0001 31.7694 44.2266 31.7913L44.3433 31.5282C44.0585 31.6379 43.569 31.4993 43.4593 31.2144Z" fill="#73737F"/>
<path d="M43.8575 30.6042C44.3093 30.9383 44.7568 31.0992 44.8571 30.9637C44.9573 30.8282 44.6723 30.4474 44.2204 30.1133C43.7686 29.7792 43.3211 29.6183 43.2209 29.7538C43.1206 29.8894 43.4057 30.2701 43.8575 30.6042Z" fill="#8F8F99"/>
<path d="M42.6913 30.6377C43.0346 30.3965 43.3047 29.9654 43.3047 29.9654C43.2097 30.002 42.9762 30.528 42.6913 30.6377Z" fill="#8F8F99"/>
<path d="M42.9328 30.9809C43.1811 30.7763 43.4512 30.3452 43.4512 30.3452C43.4512 30.3452 43.3928 30.4767 43.2395 30.6448C43.2395 30.6448 43.0861 30.8129 42.9328 30.9809Z" fill="#8F8F99"/>
<path d="M43.2687 31.2876C43.2687 31.2876 43.6922 30.6885 43.7871 30.6519C43.7287 30.7834 43.2687 31.2876 43.2687 31.2876Z" fill="#8F8F99"/>
<path d="M43.8307 31.6162C43.8307 31.6162 44.1008 31.1851 44.3125 30.8855C44.0642 31.0901 43.8307 31.6162 43.8307 31.6162Z" fill="#8F8F99"/>
<path d="M44.1901 31.6962C44.1901 31.6962 44.3652 31.3017 44.6719 30.9656C44.3652 31.3017 44.1901 31.6962 44.1901 31.6962Z" fill="#8F8F99"/>
<path d="M45.3054 30.0668L44.3553 29.0153L43.4206 29.7023C43.3622 29.8339 43.6034 30.177 43.9395 30.4837C44.2757 30.7904 44.7286 30.8341 44.8236 30.7975L45.3054 30.0668Z" fill="#75F1C1"/>
<path d="M45.0432 29.95C43.7505 30.5568 43.1218 29.4905 43.0192 28.6578C42.9532 27.9201 42.5003 27.8765 42.1494 27.2484C41.7985 26.6203 42.4997 26.4593 42.4997 26.4593C43.7854 26.4004 44.0489 27.9343 44.0489 27.9343C44.0489 27.9343 44.6611 24.4277 46.3631 24.3175C48.0651 24.2072 48.6353 25.405 47.9123 25.7924C47.2843 26.1433 46.2174 25.3548 46.2174 25.3548C46.2174 25.3548 45.4437 26.743 45.4879 27.7072C45.4879 27.7072 46.0428 27.1665 46.7004 27.4584C47.4894 27.8087 48.0526 29.5543 47.0595 30.3728C46.1613 31.1548 45.2113 30.1033 46.4892 29.1751C46.4892 29.1751 46.3648 28.5689 46.1602 28.3206C46.4232 28.4374 46.1831 30.9284 45.0432 29.95Z" fill="#75F1C1"/>
<path d="M46.7451 29.8396C46.9568 29.5401 47.3584 29.1673 47.0806 28.7292C46.8394 28.3859 46.518 28.4007 46.518 28.4007C46.6861 28.554 46.8471 29.2552 46.8471 29.2552C45.6641 30.1469 46.3511 31.0816 47.1691 30.6576C46.7527 30.7089 46.38 30.3073 46.7451 29.8396Z" fill="#69DDAE"/>
<path d="M43.4946 28.4753C43.3554 27.5476 42.4714 27.2339 42.705 26.7078C42.7634 26.5763 42.9532 26.5032 43.0482 26.4666C42.9167 26.4082 42.6902 26.3865 42.5953 26.423C42.5953 26.423 41.8941 26.584 42.245 27.2121C42.5959 27.8401 43.0488 27.8837 43.1148 28.6215C43.1808 29.3593 43.8461 30.5205 45.0438 29.9502C43.9846 30.031 43.5388 29.4395 43.4946 28.4753Z" fill="#69DDAE"/>
<path d="M45.9988 24.7851C46.5319 24.4708 46.9483 24.4195 47.4012 24.4632C47.1382 24.3464 46.8168 24.3612 46.4954 24.3759C44.8884 24.4496 44.1665 27.6713 44.1446 27.8977C44.1446 27.8977 45.0275 25.3772 45.9988 24.7851Z" fill="#69DDAE"/>
<path d="M44.9476 29.9867C44.9476 29.9867 44.911 29.8917 44.9476 29.9867C45.2761 29.4241 45.1004 28.4014 45.1004 28.4014C45.1004 28.4014 45.1004 28.4014 45.1953 28.3649C45.1953 28.3649 45.1953 28.3649 45.2319 28.4599C45.2319 28.4599 45.2466 28.7812 45.2614 29.1026C45.1811 29.4606 45.1593 29.6871 44.9476 29.9867Z" fill="#3CAF8E"/>
<path d="M31.4353 28.867L31.2891 28.4872L29.9385 30.6426L30.3549 30.5913L31.4353 28.867Z" fill="white"/>
<path d="M31.1647 30.7153L32.3919 30.7879L31.5439 29.1519L31.5074 29.057L30.4853 30.6498L30.9017 30.5985L31.5368 29.6998L31.7928 30.3644L31.3399 30.3208L31.1647 30.7153Z" fill="white"/>
<path d="M31.3262 28.5822L29.9391 30.6427L30.3554 30.5914L31.4359 28.867L31.3262 28.5822Z" fill="#BCBCCC"/>
<path d="M31.1653 30.7152L32.3925 30.7878L31.5445 29.1518L30.4859 30.6497L30.9022 30.5984L31.5374 29.6997L31.7933 30.3643L31.3404 30.3207L31.1653 30.7152Z" fill="#BCBCCC"/>
<path d="M31.2312 28.6188L30.034 30.6061L30.2605 30.628L31.4359 28.867L31.2312 28.6188Z" fill="white"/>
<path d="M30.5808 30.6132L31.5445 29.1518L32.3559 30.6928L31.1653 30.7152L31.377 30.4156L31.9248 30.4227L31.5374 29.6997L30.9022 30.5984L30.5808 30.6132Z" fill="white"/>
<path d="M15.2192 33.4756C15.2192 33.4756 14.495 31.0287 13.5302 29.6558C12.5655 28.2829 11.1849 28.3784 10.9879 28.9994C10.7909 29.6204 11.7994 30.5404 12.7123 30.0799C12.7123 30.0799 13.4872 31.5259 13.4877 32.943C13.4877 32.943 11.7044 30.577 10.4335 30.9574C9.16266 31.3377 9.68926 32.9884 10.8357 32.0018C10.8357 32.0018 11.7197 32.3155 12.027 33.3965C12.3342 34.4775 12.2616 35.7047 13.1309 35.6971C13.3574 35.7189 13.4157 35.5874 13.7006 35.4777C13.8687 35.631 14.0002 35.6894 14.3216 35.6747C14.8329 35.5868 14.9715 35.0974 15.6579 34.615C16.1327 34.4322 16.5856 34.4758 17.0385 34.5194C18.4338 34.7453 16.6358 32.0579 15.2192 33.4756Z" fill="#75F1C1"/>
<path d="M16.0523 33.3729C15.1246 33.5121 14.7961 34.0746 14.7961 34.0746C14.7961 34.0746 14.3645 32.3874 13.5749 30.62C12.7852 28.8525 11.4483 28.4951 11.1564 29.1527C11.0396 29.4157 11.0762 29.5106 11.1493 29.7005C11.4854 30.0072 12.0115 30.2407 12.5811 30.0214C12.5811 30.0214 13.356 31.4674 13.3566 32.8845C13.3566 32.8845 13.3566 32.8846 13.3201 32.7896C13.3201 32.7896 11.7927 31.0882 10.6969 31.074C10.1491 31.067 9.86423 31.1766 9.61595 31.3812C9.28746 31.9438 9.90137 32.6887 10.7995 31.9067C10.7995 31.9067 11.6836 32.2205 11.9908 33.3015C12.2249 34.1926 12.1742 35.1933 12.7368 35.5218C13.1897 35.5655 13.5547 35.0978 14.0808 35.3314C14.4387 35.4116 14.782 35.1704 15.2201 34.8926C15.2785 34.7611 15.4684 34.688 15.6218 34.5199C15.9066 34.4102 16.228 34.3955 16.5494 34.3808C17.6451 34.3949 17.1115 33.2921 16.0523 33.3729Z" fill="#69DDAE"/>
<path opacity="0.15" d="M31.7697 24.9224C31.6382 24.864 31.6017 24.769 31.5651 24.6741L31.6376 23.4468C30.8633 23.4179 30.2423 23.221 30.2642 22.9945L30.2718 23.8638C29.5341 23.9298 28.9644 24.1491 28.6211 24.3903C28.7526 24.4487 28.6943 24.5802 28.5993 24.6168C28.8476 24.4122 29.3223 24.2294 29.9286 24.1049C29.3223 24.2294 28.7526 24.4487 28.5044 24.6534C28.5044 24.6534 29.1324 24.3025 30.2063 24.5431C30.2358 25.1859 31.0685 25.0833 31.032 24.9884C30.9954 24.8934 30.8273 24.7401 31.2219 24.9153C31.4483 24.9371 31.6748 24.9589 31.9012 24.9807C31.9012 24.9807 31.9012 24.9807 31.7697 24.9224ZM30.0601 24.1634C29.9652 24.1999 29.9652 24.1999 30.0601 24.1634C29.9652 24.1999 29.9652 24.1999 30.0601 24.1634ZM30.25 24.0902C30.1551 24.1268 30.155 24.1268 30.0601 24.1634C30.0601 24.1634 30.1551 24.1268 30.25 24.0902Z" fill="#73737F"/>
<path opacity="0.15" d="M28.7997 32.4986C28.9007 32.7608 29.1951 32.8915 29.4573 32.7905C29.7195 32.6895 29.8502 32.3951 29.7492 32.1329C29.6483 31.8708 29.3539 31.7401 29.0917 31.841C28.8295 31.942 28.6988 32.2364 28.7997 32.4986Z" fill="#73737F"/>
<path d="M28.9902 32.4257C29.0709 32.6355 29.3065 32.74 29.5162 32.6593C29.726 32.5785 29.8305 32.343 29.7498 32.1332C29.669 31.9235 29.4335 31.8189 29.2237 31.8997C29.014 31.9805 28.9094 32.2159 28.9902 32.4257Z" fill="#EDEDF4"/>
<path opacity="0.15" d="M26.4228 29.1612L26.3633 26.4585L26.3349 28.6499C26.2471 28.1386 25.9841 28.0219 25.9841 28.0219C25.8891 28.0584 26.3202 28.3285 26.4228 29.1612C26.3279 29.1978 26.3279 29.1978 26.4228 29.1612C26.3279 29.1978 26.3279 29.1978 26.4228 29.1612C26.3279 29.1978 26.4228 29.1612 26.4228 29.1612Z" fill="#73737F"/>
<path d="M16.1702 35.9442L20.838 35.8913C20.838 35.8913 21.1594 35.8765 21.5757 35.8252C21.9921 35.7739 22.4668 35.5911 22.7953 35.0285C23.4305 34.1297 26.0366 29.8554 26 29.7604C26 29.7604 23.4305 34.1297 22.7953 35.0285C22.5836 35.328 22.2769 35.6642 21.5757 35.8252C21.1594 35.8765 20.838 35.8913 20.838 35.8913L16.1702 35.9442Z" fill="#EDEDF4"/>
<path d="M26.502 24.5517C26.5386 24.6467 26.5386 24.6467 26.6701 24.7051L27.1814 24.6172C27.1814 24.6172 27.2763 24.5807 27.2398 24.4857C27.2032 24.3908 27.2032 24.3907 27.1082 24.4273L26.597 24.5152C26.4654 24.4568 26.4071 24.5883 26.502 24.5517Z" fill="#EDEDF4"/>
<path d="M36.5468 25.1541C36.4885 25.2856 36.4884 25.2856 36.3569 25.2272L35.8675 25.0886L35.8309 24.9937C35.7943 24.8987 35.8893 24.8622 35.9259 24.9571L36.4153 25.0957C36.6052 25.0226 36.6418 25.1175 36.5468 25.1541Z" fill="#EDEDF4"/>
<path opacity="0.19" d="M52.6997 29.7278L39.5657 29.8791C39.4708 29.9157 39.4342 29.8207 39.3977 29.7258L40.1521 16.6791C40.1156 16.5842 40.2105 16.5476 40.3055 16.5111L53.3669 17.5869C53.4618 17.5503 53.4984 17.6453 53.44 17.7768L52.7581 29.5963C52.7947 29.6912 52.6997 29.7278 52.6997 29.7278Z" fill="white"/>
<path opacity="0.27" d="M53.4768 17.8718L40.1889 16.7741L40.2107 16.5477C40.1742 16.4527 40.2691 16.4162 40.3641 16.3796L53.4255 17.4555C53.5204 17.4189 53.557 17.5139 53.4986 17.6454L53.4768 17.8718Z" fill="white"/>
<path opacity="0.05" d="M52.0776 29.5307L47.2783 29.5254L47.9602 17.7059L52.8108 18.1277L52.136 29.3992C52.2675 29.4576 52.1725 29.4941 52.0776 29.5307Z" fill="white"/>
<path opacity="0.05" d="M51.1851 26.9305L48.7672 26.8803C48.3508 26.9316 48.0731 26.4934 48.1533 26.1355L48.545 19.225C48.5886 18.7721 48.9319 18.5309 49.2533 18.5162L51.8392 18.7196C52.1972 18.7998 52.5334 19.1065 52.4531 19.4645L52.0467 26.0536C51.9081 26.5431 51.6015 26.8792 51.1851 26.9305Z" fill="white"/>
<path opacity="0.29" d="M50.8365 27.7197L48.1922 27.6477C48.1922 27.6477 48.1922 27.6477 48.1556 27.5528L48.2506 27.5162L50.8949 27.5882C50.8584 27.4933 50.8949 27.5882 50.8365 27.7197C50.9315 27.6831 50.8365 27.7197 50.8365 27.7197Z" fill="white"/>
<g opacity="0.46">
<path opacity="0.29" d="M50.0176 28.1434L48.1476 28.1003L50.0176 28.1434C49.9811 28.0484 49.9811 28.0484 50.0176 28.1434Z" fill="white"/>
<path opacity="0.29" d="M49.6733 28.3848L48.1246 28.327L49.6733 28.3848C49.6367 28.2899 49.7317 28.2533 49.6733 28.3848Z" fill="white"/>
<path opacity="0.29" d="M50.3326 28.6767L48.0462 28.6849L50.3326 28.6767C50.391 28.5452 50.391 28.5452 50.3326 28.6767C50.4276 28.6401 50.3326 28.6767 50.3326 28.6767Z" fill="white"/>
<path opacity="0.29" d="M50.3092 28.9031L48.0228 28.9113L50.3092 28.9031C50.3676 28.7716 50.3676 28.7716 50.3092 28.9031C50.4041 28.8666 50.3092 28.9031 50.3092 28.9031Z" fill="white"/>
</g>
<g opacity="0.27">
<path opacity="0.27" d="M40.9709 17.6723L42.746 17.752C42.841 17.7154 42.841 17.7155 42.8994 17.584C42.8628 17.489 42.8628 17.489 42.7313 17.4306L40.9562 17.351C40.8613 17.3875 40.8612 17.3875 40.8029 17.519C40.8394 17.614 40.8394 17.614 40.9709 17.6723Z" fill="white"/>
<path opacity="0.27" d="M41.3146 21.6824C41.3511 21.7774 41.3511 21.7774 41.4827 21.8358L43.2578 21.9154C43.3527 21.8789 43.3527 21.8789 43.4111 21.7474C43.3745 21.6524 43.3745 21.6524 43.243 21.594L41.373 21.5509C41.373 21.5509 41.278 21.5875 41.3146 21.6824Z" fill="white"/>
<path opacity="0.27" d="M44.0382 18.5624L42.3581 18.4462C42.2631 18.4828 42.2631 18.4828 42.2047 18.6143C42.2413 18.7092 42.2413 18.7092 42.3728 18.7676L44.053 18.8838C44.1479 18.8473 44.1479 18.8473 44.1114 18.7523C44.1332 18.5259 44.1332 18.5259 44.0382 18.5624Z" fill="white"/>
<path opacity="0.27" d="M42.228 19.8048L43.9082 19.921C44.0031 19.8845 44.0031 19.8844 44.0615 19.7529C44.0249 19.658 44.0249 19.658 43.8934 19.5996L42.2133 19.4834C42.1183 19.52 42.1183 19.52 42.0599 19.6515C42.0965 19.7464 42.133 19.8414 42.228 19.8048Z" fill="white"/>
<path opacity="0.27" d="M45.1636 20.6361C45.127 20.5411 45.127 20.5412 45.0321 20.5777L43.3519 20.4615C43.257 20.4981 43.257 20.4981 43.1986 20.6296C43.2352 20.7245 43.2352 20.7245 43.3667 20.7829L45.0468 20.8991C45.1052 20.7676 45.2001 20.731 45.1636 20.6361Z" fill="white"/>
<path opacity="0.27" d="M44.4477 19.0588C44.4111 18.9638 44.4111 18.9638 44.2796 18.9054L42.278 18.804C42.1831 18.8406 42.1831 18.8406 42.1247 18.9721C42.1613 19.067 42.1612 19.067 42.2928 19.1254L44.2943 19.2269C44.3893 19.1903 44.3893 19.1903 44.4477 19.0588Z" fill="white"/>
<path opacity="0.27" d="M42.2337 19.2568C42.1387 19.2934 42.1387 19.2934 42.0803 19.4249C42.1169 19.5198 42.1169 19.5198 42.2484 19.5782L43.4756 19.6508C43.5706 19.6142 43.5706 19.6142 43.629 19.4827C43.5924 19.3878 43.5924 19.3878 43.4609 19.3294L42.2337 19.2568Z" fill="white"/>
<path opacity="0.27" d="M41.4027 22.1938L42.6299 22.2663C42.7249 22.2298 42.7249 22.2298 42.7833 22.0983C42.7467 22.0034 42.7467 22.0033 42.6152 21.945L41.388 21.8724C41.293 21.909 41.293 21.909 41.2347 22.0405C41.2712 22.1355 41.2712 22.1354 41.4027 22.1938Z" fill="white"/>
<path opacity="0.27" d="M43.1025 17.8322L43.5554 17.8759C43.6504 17.8393 43.6503 17.8393 43.7087 17.7078C43.6722 17.6128 43.6722 17.6128 43.5407 17.5544L43.0878 17.5108C42.9928 17.5474 42.9928 17.5474 42.9344 17.6789C42.971 17.7738 42.971 17.7738 43.1025 17.8322Z" fill="white"/>
<path opacity="0.27" d="M43.9142 17.9558L44.3672 17.9995C44.4621 17.9629 44.4621 17.9629 44.4256 17.868C44.389 17.773 44.389 17.773 44.2575 17.7146L43.8046 17.671C43.7096 17.7075 43.7096 17.7076 43.7462 17.8025C43.8777 17.8609 43.8777 17.8609 43.9142 17.9558Z" fill="white"/>
<path opacity="0.27" d="M45.7114 17.8093L44.8056 17.722C44.7107 17.7586 44.7107 17.7585 44.7472 17.8535C44.7838 17.9484 44.7838 17.9484 44.9153 18.0068L45.8211 18.0942C45.9161 18.0576 45.9161 18.0576 45.8795 17.9626C45.843 17.8677 45.8064 17.7727 45.7114 17.8093Z" fill="white"/>
<path opacity="0.27" d="M46.0109 18.0209L46.2374 18.0427C46.3323 18.0062 46.3323 18.0062 46.2958 17.9113C46.2592 17.8163 46.2592 17.8163 46.1643 17.8528L45.9378 17.831C45.8429 17.8676 45.8429 17.8676 45.8794 17.9625C45.916 18.0575 46.0109 18.0209 46.0109 18.0209Z" fill="white"/>
<path opacity="0.27" d="M40.7522 21.3539L42.5273 21.4336C42.6222 21.397 42.6222 21.397 42.6806 21.2655C42.6441 21.1706 42.6441 21.1705 42.5126 21.1122L40.7375 21.0325C40.6425 21.0691 40.6425 21.0691 40.5841 21.2006C40.5257 21.3321 40.6572 21.3905 40.7522 21.3539Z" fill="white"/>
<path opacity="0.27" d="M42.8865 21.5139L43.4343 21.521C43.5293 21.4845 43.5293 21.4844 43.5876 21.3529C43.5511 21.258 43.5511 21.258 43.4196 21.1996L42.8717 21.1925C42.7768 21.2291 42.7768 21.2291 42.7184 21.3606C42.7549 21.4555 42.7549 21.4556 42.8865 21.5139Z" fill="white"/>
<path opacity="0.27" d="M42.2291 22.6388C42.1342 22.6754 42.1342 22.6754 42.0758 22.8069C42.1124 22.9019 42.1124 22.9018 42.2439 22.9602L42.7917 22.9673C42.8867 22.9307 42.8867 22.9308 42.9451 22.7992C42.9085 22.7043 42.9085 22.7043 42.777 22.6459L42.2291 22.6388Z" fill="white"/>
<path opacity="0.27" d="M42.2589 23.2819L43.2597 23.3326C43.3546 23.2961 43.3546 23.2961 43.413 23.1646C43.4714 23.0331 43.3764 23.0696 43.2815 23.1061L42.2807 23.0554C42.1858 23.092 42.1858 23.092 42.1274 23.2235C42.1274 23.2235 42.164 23.3185 42.2589 23.2819Z" fill="white"/>
<path opacity="0.27" d="M45.5509 21.3593L44.6816 21.3669L44.5866 21.4035L43.6808 21.3162C43.5859 21.3527 43.5859 21.3528 43.5275 21.4843C43.5641 21.5792 43.5641 21.5792 43.6956 21.6376L44.6014 21.7249L44.6963 21.6883L45.5656 21.6807C45.6605 21.6441 45.6606 21.6441 45.624 21.5492C45.5874 21.4542 45.5874 21.4542 45.5509 21.3593Z" fill="white"/>
<path opacity="0.27" d="M46.0998 21.3663L45.8734 21.3445C45.7784 21.3811 45.7784 21.381 45.815 21.476C45.8515 21.5709 45.8515 21.5709 45.9465 21.5343L46.1729 21.5562C46.2679 21.5196 46.2679 21.5196 46.2313 21.4247C46.1364 21.4612 46.1364 21.4612 46.0998 21.3663Z" fill="white"/>
<path opacity="0.27" d="M43.629 18.0655C43.6655 18.1604 43.6655 18.1604 43.7971 18.2188L44.25 18.2625C44.3449 18.2259 44.3449 18.226 44.3084 18.131C44.2718 18.0361 44.2718 18.036 44.1403 17.9777L43.6874 17.934C43.629 18.0655 43.629 18.0655 43.629 18.0655Z" fill="white"/>
<path opacity="0.27" d="M43.849 20.0524L43.3961 20.0088C43.3011 20.0453 43.3012 20.0454 43.2428 20.1769C43.2793 20.2718 43.2793 20.2718 43.4108 20.3302L43.8637 20.3738C43.9587 20.3373 43.9587 20.3373 44.0171 20.2058C44.0755 20.0743 43.944 20.0159 43.849 20.0524Z" fill="white"/>
<path opacity="0.27" d="M42.7603 18.0732C42.7969 18.1682 42.7969 18.1682 42.9284 18.2266L43.3813 18.2703C43.4763 18.2337 43.4763 18.2337 43.5346 18.1021C43.593 17.9706 43.4981 18.0072 43.3666 17.9489L42.9137 17.9052C42.8187 17.9418 42.7238 17.9783 42.7603 18.0732Z" fill="white"/>
<path opacity="0.27" d="M42.4595 17.8615L41.5537 17.7742C41.4587 17.8107 41.4587 17.8108 41.4004 17.9423C41.342 18.0738 41.4369 18.0372 41.5684 18.0956L42.4742 18.1829C42.5692 18.1463 42.5692 18.1463 42.6276 18.0148C42.4961 17.9564 42.4961 17.9564 42.4595 17.8615Z" fill="white"/>
<path opacity="0.27" d="M40.89 18.0302L41.1165 18.0521C41.2115 18.0155 41.2115 18.0155 41.2698 17.884C41.2333 17.789 41.2333 17.7891 41.1018 17.7307L40.8753 17.7088C40.7804 17.7454 40.7804 17.7454 40.722 17.8769C40.6636 18.0084 40.7951 18.0668 40.89 18.0302Z" fill="white"/>
<path opacity="0.27" d="M44.6898 20.8192C44.5948 20.8557 44.5948 20.8557 44.6314 20.9506C44.6679 21.0456 44.6679 21.0456 44.7629 21.0091L44.9893 21.0309C45.0843 20.9943 45.0843 20.9943 45.0477 20.8994C45.0112 20.8044 45.0112 20.8044 44.9162 20.841L44.6898 20.8192Z" fill="white"/>
<path opacity="0.27" d="M43.3613 22.7481L43.1348 22.7263C43.0399 22.7629 43.0399 22.7629 42.9815 22.8944C43.018 22.9893 43.018 22.9893 43.1495 23.0477L43.376 23.0695C43.4709 23.033 43.471 23.033 43.5293 22.9015C43.5877 22.77 43.4562 22.7116 43.3613 22.7481Z" fill="white"/>
<path opacity="0.27" d="M42.1925 22.5441L42.419 22.5659C42.5139 22.5293 42.5139 22.5293 42.5723 22.3978C42.6307 22.2663 42.5357 22.3029 42.4042 22.2445L42.1778 22.2227C42.0828 22.2592 42.0828 22.2592 42.0244 22.3907C42.1559 22.4491 42.1925 22.5441 42.1925 22.5441Z" fill="white"/>
<path opacity="0.27" d="M40.5705 23.7132L42.3456 23.7929C42.4406 23.7563 42.4406 23.7563 42.499 23.6248C42.4624 23.5298 42.4624 23.5298 42.3309 23.4714L40.5558 23.3918C40.4609 23.4284 40.4609 23.4284 40.4025 23.5599C40.3441 23.6914 40.534 23.6183 40.5705 23.7132Z" fill="white"/>
<path opacity="0.27" d="M42.9766 27.6937C42.9401 27.5987 42.9401 27.5987 42.8451 27.6352L41.1066 27.6506C41.0116 27.6871 41.0116 27.6871 40.9533 27.8186C40.9898 27.9136 40.9898 27.9136 41.0848 27.877L42.8233 27.8617C42.8817 27.7302 42.9766 27.6937 42.9766 27.6937Z" fill="white"/>
<path opacity="0.27" d="M41.8272 24.4286C41.8638 24.5236 41.8638 24.5236 41.9953 24.582L43.7704 24.6616C43.8653 24.6251 43.8653 24.625 43.9237 24.4935C43.9821 24.362 43.8872 24.3986 43.7922 24.4352L42.0171 24.3555C41.8856 24.2971 41.8272 24.4286 41.8272 24.4286Z" fill="white"/>
<path opacity="0.27" d="M41.9224 25.8094L43.6609 25.7942C43.7559 25.7576 43.7559 25.7576 43.8142 25.6261C43.8726 25.4945 43.7777 25.5311 43.6827 25.5677L41.9442 25.583C41.8493 25.6196 41.8493 25.6196 41.7909 25.7511C41.7325 25.8826 41.7909 25.751 41.9224 25.8094Z" fill="white"/>
<path opacity="0.27" d="M44.8809 26.4146C44.8444 26.3196 44.8444 26.3196 44.7494 26.3562L43.1058 26.3349C43.0109 26.3715 43.0109 26.3715 42.9525 26.503C42.9891 26.5979 42.9891 26.598 43.084 26.5614L44.7276 26.5826C44.8225 26.5461 44.8226 26.5461 44.8809 26.4146Z" fill="white"/>
<path opacity="0.27" d="M44.1064 24.9687C44.0698 24.8737 44.0698 24.8737 43.9749 24.9103L41.9733 24.8088C41.8784 24.8454 41.8784 24.8454 41.82 24.9769C41.8566 25.0718 41.8566 25.0719 41.9881 25.1302L43.9896 25.2317C44.0114 25.0052 44.1064 24.9687 44.1064 24.9687Z" fill="white"/>
<path opacity="0.27" d="M41.8938 25.1666C41.7989 25.2032 41.7989 25.2032 41.7405 25.3347C41.777 25.4296 41.7771 25.4297 41.872 25.3931L43.0992 25.4656C43.1942 25.4291 43.1942 25.429 43.2526 25.2975C43.216 25.2026 43.216 25.2026 43.1211 25.2392L41.8938 25.1666Z" fill="white"/>
<path opacity="0.27" d="M42.4426 28.0079C42.406 27.913 42.406 27.913 42.3111 27.9495L41.1204 27.9719C41.0254 28.0085 41.0255 28.0085 40.9671 28.14C40.9087 28.2715 41.0036 28.2349 41.0986 28.1984L42.2893 28.176C42.3842 28.1395 42.3476 28.0445 42.4426 28.0079Z" fill="white"/>
<path opacity="0.27" d="M43.236 23.5588L42.6881 23.5517C42.5932 23.5883 42.5932 23.5883 42.5348 23.7198C42.5714 23.8148 42.5714 23.8147 42.7029 23.8731L43.2507 23.8802C43.3457 23.8436 43.3457 23.8437 43.4041 23.7122C43.3675 23.6172 43.3309 23.5222 43.236 23.5588Z" fill="white"/>
<path opacity="0.27" d="M44.1071 23.5514L43.6542 23.5077C43.5592 23.5443 43.5592 23.5443 43.5008 23.6758C43.5374 23.7708 43.5374 23.7707 43.6323 23.7342L44.0853 23.7778C44.1802 23.7413 44.1802 23.7413 44.2386 23.6098C44.2386 23.6098 44.202 23.5148 44.1071 23.5514Z" fill="white"/>
<path opacity="0.27" d="M45.4294 23.5874L44.5236 23.5002C44.4287 23.5367 44.4287 23.5367 44.3703 23.6682C44.4068 23.7632 44.4068 23.7631 44.5018 23.7266L45.4076 23.8139C45.5026 23.7773 45.5026 23.7774 45.466 23.6824C45.4295 23.5875 45.4294 23.5874 45.4294 23.5874Z" fill="white"/>
<path opacity="0.27" d="M45.9768 23.5943L45.7503 23.5725C45.6554 23.609 45.6554 23.609 45.6919 23.7039C45.7285 23.7989 45.7285 23.7989 45.8234 23.7623L46.0499 23.7842C46.1448 23.7476 46.1448 23.7476 46.1083 23.6526C46.0133 23.6892 46.0133 23.6892 45.9768 23.5943Z" fill="white"/>
<path opacity="0.27" d="M42.2813 27.3066C42.2447 27.2117 42.2447 27.2117 42.1498 27.2483L40.4113 27.2636C40.3163 27.3002 40.3163 27.3002 40.2579 27.4317C40.2945 27.5266 40.2945 27.5266 40.426 27.585L42.1645 27.5697C42.2229 27.4382 42.2813 27.3066 42.2813 27.3066Z" fill="white"/>
<path opacity="0.27" d="M43.1507 27.2992C43.1142 27.2042 43.1141 27.2042 43.0192 27.2408L42.4713 27.2337C42.3764 27.2702 42.3764 27.2703 42.318 27.4018C42.3546 27.4967 42.3546 27.4967 42.4495 27.4601L42.9974 27.4672C43.0923 27.4307 43.1507 27.2992 43.1507 27.2992Z" fill="white"/>
<path opacity="0.27" d="M41.9245 28.6437C41.8295 28.6802 41.8295 28.6802 41.7711 28.8117C41.7127 28.9432 41.8077 28.9067 41.9026 28.8701L42.4505 28.8772C42.5454 28.8406 42.5454 28.8406 42.6038 28.7091C42.5673 28.6142 42.5673 28.6142 42.4723 28.6508L41.9245 28.6437Z" fill="white"/>
<path opacity="0.27" d="M42.8448 29.0523L41.8806 29.0965C41.7857 29.1331 41.7857 29.1331 41.7273 29.2646C41.7638 29.3596 41.7638 29.3596 41.8588 29.323L42.823 29.2788C42.9179 29.2422 42.9179 29.2422 42.9763 29.1107C42.9763 29.1107 42.9398 29.0158 42.8448 29.0523Z" fill="white"/>
<path opacity="0.27" d="M45.1735 27.1739L44.3043 27.1816L44.2093 27.2182L43.3401 27.2258C43.2451 27.2624 43.2451 27.2624 43.1867 27.3939C43.2233 27.4888 43.2233 27.4888 43.3182 27.4522L44.1875 27.4446L44.2825 27.4081L45.1517 27.4004C45.2467 27.3638 45.2467 27.3638 45.2101 27.2689C45.305 27.2323 45.3051 27.2323 45.1735 27.1739Z" fill="white"/>
<path opacity="0.27" d="M45.7229 27.1812L45.4964 27.1593C45.4015 27.1959 45.4015 27.1959 45.438 27.2909C45.4746 27.3858 45.4746 27.3858 45.5695 27.3492L45.796 27.3711C45.891 27.3345 45.8909 27.3345 45.8544 27.2396C45.8544 27.2396 45.8544 27.2396 45.7229 27.1812Z" fill="white"/>
<path opacity="0.27" d="M43.932 23.9458L43.3842 23.9388C43.2893 23.9753 43.2892 23.9753 43.2309 24.1068C43.2674 24.2018 43.2674 24.2017 43.3624 24.1652L43.9102 24.1723C44.0052 24.1357 44.0052 24.1357 44.0636 24.0042C44.122 23.8727 43.932 23.9458 43.932 23.9458Z" fill="white"/>
<path opacity="0.27" d="M43.5092 25.9622L42.9613 25.9551C42.8664 25.9917 42.8664 25.9917 42.808 26.1232C42.7496 26.2547 42.8445 26.2181 42.9395 26.1816L43.4873 26.1887C43.5823 26.1521 43.5823 26.1521 43.6407 26.0206C43.6991 25.8891 43.6041 25.9256 43.5092 25.9622Z" fill="white"/>
<path opacity="0.27" d="M42.4199 23.9829C42.4565 24.0779 42.4565 24.0779 42.588 24.1363L43.1359 24.1434C43.2308 24.1068 43.2308 24.1069 43.2892 23.9753C43.3476 23.8438 43.2526 23.8804 43.1577 23.9169L42.6098 23.9098C42.4783 23.8514 42.3834 23.888 42.4199 23.9829Z" fill="white"/>
<path opacity="0.27" d="M42.1568 23.8661L41.156 23.8153C41.061 23.8519 41.061 23.8519 41.0027 23.9834C40.9443 24.1149 41.0392 24.0783 41.1707 24.1367L42.1715 24.1875C42.2665 24.1509 42.2664 24.1509 42.3248 24.0194C42.1933 23.961 42.1568 23.8661 42.1568 23.8661Z" fill="white"/>
<path opacity="0.27" d="M40.5854 24.0349L40.8118 24.0567C40.9068 24.0201 40.9068 24.0202 40.9652 23.8887C40.9286 23.7937 40.9286 23.7937 40.7971 23.7353L40.5706 23.7135C40.4757 23.7501 40.4757 23.75 40.4173 23.8816C40.3589 24.0131 40.4904 24.0715 40.5854 24.0349Z" fill="white"/>
<path opacity="0.27" d="M44.3477 26.7287C44.2528 26.7653 44.2528 26.7653 44.1944 26.8968C44.2309 26.9918 44.2309 26.9917 44.3259 26.9552L44.5523 26.977C44.6473 26.9404 44.6473 26.9404 44.7057 26.8089C44.7641 26.6774 44.6691 26.714 44.5742 26.7506L44.3477 26.7287Z" fill="white"/>
<path opacity="0.27" d="M43.0195 28.6578L42.793 28.636C42.6981 28.6726 42.6981 28.6725 42.6397 28.804C42.5813 28.9356 42.6762 28.899 42.7712 28.8625L42.9976 28.8843C43.0926 28.8477 43.0926 28.8477 43.151 28.7162C43.2094 28.5847 43.1144 28.6212 43.0195 28.6578Z" fill="white"/>
<path opacity="0.27" d="M41.8513 28.4536L42.0777 28.4754C42.1727 28.4389 42.1727 28.4389 42.2311 28.3074C42.2895 28.1759 42.1945 28.2125 42.0996 28.249L41.8731 28.2272C41.7781 28.2637 41.7782 28.2638 41.7198 28.3953C41.8147 28.3587 41.8513 28.4536 41.8513 28.4536Z" fill="white"/>
</g>
<path opacity="0.05" d="M51.6493 18.7928L51.6275 19.0192C51.5691 19.1507 51.5107 19.2823 51.3792 19.2239L49.699 19.1077C49.5675 19.0493 49.436 18.9909 49.4578 18.7644L49.4797 18.538L49.2532 18.5162C48.9318 18.5309 48.5886 18.7721 48.6033 19.0935L48.1751 25.9091C48.1898 26.2305 48.431 26.5737 48.7524 26.559L50.9439 26.5873C51.3602 26.536 51.7034 26.2948 51.7471 25.8419L52.0951 19.3843C52.2119 19.1213 51.9123 18.9095 51.6493 18.7928Z" fill="white"/>
<g opacity="0.3">
<g opacity="0.3">
<path opacity="0.3" d="M52.1031 20.2536L48.5164 19.9994L52.1031 20.2536Z" fill="white"/>
</g>
<g opacity="0.3">
<path opacity="0.3" d="M51.9586 24.1251L48.3135 24.0024L48.2769 23.9074L51.922 24.0301L51.9586 24.1251Z" fill="white"/>
</g>
<g opacity="0.3">
<path opacity="0.3" d="M51.8791 25.9004L48.2339 25.7777L51.8791 25.9004Z" fill="white"/>
</g>
<g opacity="0.3">
<path opacity="0.3" d="M48.3959 26.4789L48.301 26.5154L48.7363 19.152L48.3959 26.4789Z" fill="white"/>
</g>
<g opacity="0.3">
<path opacity="0.3" d="M49.1694 26.5078L49.5098 19.181L49.1694 26.5078Z" fill="white"/>
</g>
<g opacity="0.3">
<path opacity="0.3" d="M49.9434 26.5367L50.3203 19.3047L49.9434 26.5367Z" fill="white"/>
</g>
<g opacity="0.3">
<path opacity="0.3" d="M50.7188 26.5656L51.0957 19.3337L50.7188 26.5656Z" fill="white"/>
</g>
<g opacity="0.3">
<path opacity="0.3" d="M51.4922 26.5946L51.8691 19.3627L51.4922 26.5946Z" fill="white"/>
</g>
</g>
<path opacity="0.19" d="M20.0568 37.8273L7.66053 37.9126L7.52903 37.8542L6.55374 28.5264C6.51718 28.4314 6.61213 28.3949 6.61213 28.3949L18.6787 26.0379C18.7737 26.0013 18.8102 26.0963 18.8468 26.1912L20.0202 37.7323C20.1517 37.7907 20.1883 37.8857 20.0568 37.8273Z" fill="white"/>
<path opacity="0.27" d="M19.0156 26.3445L6.62761 28.7162L6.55449 28.5263C6.51792 28.4314 6.61288 28.3948 6.61288 28.3948L18.6795 26.0378C18.7744 26.0012 18.811 26.0962 18.8475 26.1911L19.0156 26.3445Z" fill="white"/>
<path opacity="0.05" d="M20.0576 37.8274L15.8428 37.9241L14.772 27.2156L19.0523 26.4396L20.1526 37.7909C20.1526 37.7909 20.0942 37.9224 20.0576 37.8274Z" fill="white"/>
<path opacity="0.29" d="M13.2391 28.8961L12.3114 29.0353L11.4788 29.1379C11.2889 29.2111 11.099 29.2842 11.0406 29.4157C10.9822 29.5472 10.8654 29.8102 10.902 29.9052L11.0411 30.8328L11.0854 31.797C11.1367 32.2134 11.4728 32.52 11.7942 32.5053L13.5911 32.3585C14.0075 32.3072 14.2776 31.8761 14.2263 31.4597L13.9698 29.378C13.9916 29.1515 13.6555 28.8448 13.2391 28.8961ZM14.0429 29.5679L14.1237 30.627L14.0287 30.6636L13.948 29.6044C13.8748 29.4145 13.8383 29.3196 13.8017 29.2246L13.8601 29.0931C13.8967 29.1881 13.9698 29.378 14.0429 29.5679ZM11.1143 31.0227L11.3042 30.9496C11.3189 31.271 11.4651 31.6508 11.7647 31.8625L11.3997 32.3301C11.3631 32.2352 11.2316 32.1768 11.2534 31.9504L11.1143 31.0227ZM13.6708 30.5834L13.1595 30.6713C13.1813 30.4448 13.0132 30.2914 12.8451 30.1381L13.1152 29.707C13.5098 29.8822 13.656 30.262 13.6708 30.5834ZM11.3042 30.9496L11.8154 30.8617C11.7936 31.0881 11.9617 31.2415 12.0348 31.4314L11.7647 31.8625C11.5601 31.6142 11.3189 31.271 11.3042 30.9496ZM13.1595 30.6713L12.9696 30.7444C12.933 30.6494 12.8599 30.4595 12.8233 30.3646L12.9767 30.1965C13.1082 30.2549 13.1813 30.4448 13.1595 30.6713ZM11.8154 30.8617L12.0053 30.7886C12.0419 30.8835 12.115 31.0734 12.1516 31.1684L11.9983 31.3364C11.9617 31.2415 11.7936 31.0881 11.8154 30.8617ZM12.0856 30.4306C12.0272 30.5621 11.9688 30.6936 12.0053 30.7886L11.8154 30.8617C11.8373 30.6352 11.8591 30.4088 11.9175 30.2773L12.0856 30.4306ZM12.9696 30.7444L12.4583 30.8322L12.7284 30.4011C12.9548 30.423 12.9914 30.5179 12.9696 30.7444ZM12.9696 30.7444C13.0061 30.8393 12.9843 31.0658 12.8894 31.1023L12.5532 30.7957L12.9696 30.7444ZM12.0419 30.8835L12.4583 30.8322L12.1882 31.2633C12.115 31.0734 12.0785 30.9785 12.0419 30.8835ZM12.4583 30.8322L12.5461 31.3435C12.4512 31.3801 12.3197 31.3217 12.1882 31.2633L12.4583 30.8322ZM12.5532 30.7957L12.8894 31.1023C12.831 31.2339 12.736 31.2704 12.5461 31.3435L12.5532 30.7957ZM12.5167 30.7007L12.4288 30.1894C12.5237 30.1529 12.6553 30.2113 12.7868 30.2697L12.5167 30.7007ZM12.5167 30.7007L12.1805 30.394C12.2389 30.2625 12.3338 30.226 12.5237 30.1529L12.5167 30.7007ZM12.4583 30.8322L12.0419 30.8835C12.0054 30.7886 12.0637 30.6571 12.1221 30.5256L12.4583 30.8322ZM12.1882 31.2633C12.3197 31.3217 12.4512 31.3801 12.5461 31.3435L12.5243 31.57C12.3344 31.6431 12.1663 31.4898 12.0348 31.4314L12.1882 31.2633ZM12.5461 31.3435C12.6411 31.307 12.831 31.2339 12.8894 31.1023L13.0574 31.2557C12.9041 31.4238 12.7142 31.4969 12.6193 31.5334L12.5461 31.3435ZM12.8894 31.1023C12.9477 30.9708 13.0061 30.8393 12.9696 30.7444L13.1595 30.6713C13.1376 30.8977 13.1158 31.1242 13.0574 31.2557L12.8894 31.1023ZM12.8233 30.3646C12.6918 30.3062 12.5603 30.2478 12.4653 30.2844L12.4872 30.0579C12.6771 29.9848 12.8452 30.1381 12.9767 30.1965L12.8233 30.3646ZM12.4288 30.1894C12.3338 30.226 12.1439 30.2991 12.0856 30.4306L11.9175 30.2773C12.0708 30.1092 12.1658 30.0726 12.3557 29.9995L12.4288 30.1894ZM11.9175 30.2773L11.5813 29.9706C11.7931 29.671 12.0413 29.4664 12.3627 29.4517L12.4506 29.963C12.2607 30.0361 12.0708 30.1092 11.9175 30.2773ZM11.9175 30.2773C11.7641 30.4453 11.7423 30.6718 11.8154 30.8617L11.3042 30.9496C11.2894 30.6282 11.3696 30.2702 11.5813 29.9706L11.9175 30.2773ZM12.0348 31.4314C12.2029 31.5847 12.3344 31.6431 12.5243 31.57L12.6122 32.0813C12.2908 32.096 11.9328 32.0158 11.7282 31.7676L12.0348 31.4314ZM12.6193 31.5334C12.8091 31.4603 12.9991 31.3872 13.0574 31.2557L13.4301 31.6573C13.2184 31.9569 12.9336 32.0665 12.6487 32.1762L12.6193 31.5334ZM13.0574 31.2557C13.2108 31.0876 13.2326 30.8612 13.1595 30.6713L13.6708 30.5834C13.7221 30.9997 13.6053 31.2627 13.3936 31.5623L13.0574 31.2557ZM12.9401 30.1015C12.772 29.9482 12.6405 29.8898 12.4506 29.963L12.3627 29.4517C12.6842 29.4369 13.0421 29.5171 13.2102 29.6705L12.9401 30.1015ZM12.3627 29.4517L12.3846 29.2252L13.3122 29.086C13.4072 29.0495 13.5387 29.1079 13.6702 29.1663L13.3417 29.7288C13.0056 29.4222 12.6476 29.342 12.3627 29.4517ZM12.3627 29.4517C12.0413 29.4664 11.7931 29.671 11.5813 29.9706L11.1137 29.6056C11.1721 29.4741 11.267 29.4375 11.4569 29.3643L12.3846 29.2252L12.3627 29.4517ZM11.5813 29.9706C11.3696 30.2702 11.2894 30.6282 11.3042 30.9496L11.1143 31.0227L11.0335 29.9635C10.9969 29.8686 11.0553 29.7371 11.1137 29.6056L11.5813 29.9706ZM11.7647 31.8625C11.9694 32.1108 12.3273 32.191 12.6487 32.1762L12.6269 32.4027L11.6992 32.5418C11.6043 32.5784 11.4728 32.5201 11.3413 32.4617L11.7647 31.8625ZM12.6487 32.1762C12.9701 32.1615 13.3134 31.9203 13.4301 31.6573L13.9344 32.1173C13.876 32.2488 13.6861 32.3219 13.5911 32.3585L12.6635 32.4977L12.6487 32.1762ZM13.5251 31.6207C13.7368 31.3212 13.817 30.9631 13.8023 30.6417L13.9922 30.5686L14.0729 31.6278C14.1095 31.7227 14.0877 31.9492 13.9927 31.9858L13.5251 31.6207ZM13.7657 30.5468C13.7144 30.1305 13.5098 29.8822 13.3051 29.6339L13.6336 29.0713C13.7651 29.1297 13.8383 29.3196 13.7799 29.4511L13.8607 30.5103L13.7657 30.5468ZM13.2391 28.8961C13.429 28.823 13.5605 28.8814 13.7286 29.0347L13.6702 29.1663C13.5387 29.1079 13.4072 29.0495 13.3122 29.086L12.3846 29.2252L12.348 29.1303L13.2391 28.8961ZM11.4788 29.1379L12.3114 29.0353L12.348 29.1303L11.4204 29.2694C11.3254 29.306 11.1355 29.3791 11.0771 29.5106L11.0406 29.4157C11.1355 29.3791 11.2889 29.2111 11.4788 29.1379ZM10.9385 30.0001C10.9604 29.7736 11.0187 29.6421 11.0771 29.5106L11.1137 29.6056C11.0553 29.7371 10.9969 29.8686 11.0335 29.9635L11.0777 30.9278L10.9828 30.9643L10.9385 30.0001ZM10.9828 30.9643L11.0777 30.9278L11.1585 31.9869C11.195 32.0819 11.2682 32.2717 11.3047 32.3667L11.2463 32.4982C11.1148 32.4398 11.0417 32.25 11.0635 32.0235L10.9828 30.9643ZM11.3413 32.4617C11.4728 32.5201 11.6043 32.5784 11.7942 32.5053L12.7219 32.3661L12.7584 32.4611L11.9257 32.5637C11.6409 32.6734 11.4728 32.5201 11.3413 32.4617ZM13.6277 32.4534L12.7 32.5926L12.6635 32.4977L13.5911 32.3585C13.6861 32.3219 13.876 32.2488 13.9344 32.1173L13.9709 32.2122L13.9344 32.1173C13.9927 31.9858 14.0511 31.8543 14.0146 31.7593L13.9338 30.7002L14.0287 30.6636L14.1095 31.7228C14.2192 32.0076 13.9491 32.4387 13.6277 32.4534Z" fill="white"/>
<path opacity="0.29" d="M18.438 27.1117L15.4652 27.6024C15.4652 27.6024 15.3702 27.6389 15.4286 27.5074L15.392 27.4125C15.392 27.4125 15.3554 27.3175 15.4504 27.2809L18.3867 26.6954C18.3867 26.6954 18.4817 26.6588 18.5182 26.7538L18.438 27.1117Z" fill="white"/>
<g opacity="0.46">
<path opacity="0.29" d="M17.5044 27.7985L15.4592 28.15L17.5044 27.7985C17.4679 27.7035 17.5628 27.667 17.5044 27.7985Z" fill="white"/>
<path opacity="0.29" d="M17.1976 28.1347L15.4738 28.4714L17.1976 28.1347C17.161 28.0398 17.161 28.0398 17.1976 28.1347Z" fill="white"/>
<path opacity="0.29" d="M18.009 28.2586L15.5474 28.6614L18.009 28.2586C17.9724 28.1637 18.009 28.2586 18.009 28.2586Z" fill="white"/>
<path opacity="0.29" d="M18.0237 28.5801L15.5622 28.9829L18.0237 28.5801C18.0821 28.4486 18.0821 28.4486 18.0237 28.5801C18.1187 28.5435 18.0237 28.5801 18.0237 28.5801Z" fill="white"/>
</g>
<g opacity="0.46">
<path opacity="0.29" d="M17.6878 29.6905L15.606 29.947L17.6878 29.6905C17.7462 29.559 17.7462 29.559 17.6878 29.6905Z" fill="white"/>
<path opacity="0.29" d="M17.3814 30.0266L15.621 30.2684L17.3814 30.0266C17.3448 29.9317 17.4398 29.8951 17.3814 30.0266Z" fill="white"/>
<path opacity="0.29" d="M18.1928 30.1505L15.6947 30.4583L18.1928 30.1505C18.1562 30.0555 18.2878 30.1139 18.1928 30.1505Z" fill="white"/>
<path opacity="0.29" d="M18.2067 30.4721L15.7086 30.7799L18.2067 30.4721C18.2651 30.3405 18.2651 30.3405 18.2067 30.4721C18.3017 30.4355 18.2067 30.4721 18.2067 30.4721Z" fill="white"/>
</g>
<g opacity="0.46">
<path opacity="0.29" d="M17.8714 31.5825L15.7896 31.839L17.8714 31.5825C17.9298 31.451 17.9298 31.451 17.8714 31.5825C17.9663 31.546 17.8714 31.5825 17.8714 31.5825Z" fill="white"/>
<path opacity="0.29" d="M17.5653 31.9186L15.8999 32.1238L17.5653 31.9186C17.6236 31.7871 17.6236 31.7871 17.5653 31.9186Z" fill="white"/>
<path opacity="0.29" d="M18.3761 32.0424L15.8415 32.2553L18.3761 32.0424C18.4345 31.9109 18.4711 32.0058 18.3761 32.0424Z" fill="white"/>
<path opacity="0.29" d="M18.3898 32.3639L15.8551 32.5767L18.3898 32.3639C18.4482 32.2324 18.4482 32.2324 18.3898 32.3639C18.4848 32.3273 18.4848 32.3273 18.3898 32.3639Z" fill="white"/>
</g>
<path opacity="0.19" d="M53.2646 16.7545L45.6965 16.0709C45.6016 16.1075 45.565 16.0125 45.5284 15.9176L45.7609 12.5573C45.7243 12.4623 45.8192 12.4258 45.9142 12.3892L53.4604 13.2993C53.5554 13.2627 53.5919 13.3577 53.5335 13.4892L53.323 16.623C53.3595 16.718 53.2646 16.7545 53.2646 16.7545Z" fill="white"/>
<path opacity="0.27" d="M53.5696 13.5838L45.7019 12.6885L45.7238 12.4621C45.6872 12.3671 45.7821 12.3305 45.8771 12.2939L53.4233 13.204C53.5183 13.1675 53.5548 13.2624 53.4964 13.3939L53.5696 13.5838Z" fill="white"/>
<path opacity="0.05" d="M52.7223 14.7822L46.4764 14.1346C46.3815 14.1711 46.3449 14.0762 46.3083 13.9812L46.2718 13.8863C46.2352 13.7914 46.3302 13.7548 46.4251 13.7182L52.671 14.3659C52.7659 14.3293 52.8025 14.4242 52.8391 14.5191L52.8756 14.6141C52.8172 14.7456 52.8172 14.7456 52.7223 14.7822Z" fill="white"/>
<path opacity="0.29" d="M48.3538 13.6297L46.7686 13.4769L46.732 13.382L46.827 13.3455L48.4122 13.4982C48.4122 13.4982 48.4122 13.4982 48.3538 13.6297C48.4487 13.5932 48.3538 13.6297 48.3538 13.6297Z" fill="white"/>
<path opacity="0.27" d="M51.1382 14.6294L46.4776 14.1346C46.3826 14.1711 46.3461 14.0762 46.3095 13.9812L46.2729 13.8863C46.2364 13.7914 46.3313 13.7548 46.4263 13.7182L51.0869 14.2131C51.1819 14.1765 51.2184 14.2715 51.255 14.3664L51.2916 14.4614C51.3281 14.5563 51.2332 14.5928 51.1382 14.6294Z" fill="white"/>
<g opacity="0.46">
<path opacity="0.29" d="M48.6396 14.937L46.6964 14.704L48.6396 14.937C48.6031 14.8421 48.6396 14.937 48.6396 14.937Z" fill="white"/>
<path opacity="0.29" d="M48.296 15.1784L46.7109 15.0257L48.296 15.1784C48.3544 15.0469 48.3544 15.0469 48.296 15.1784Z" fill="white"/>
<path opacity="0.29" d="M48.9546 15.4702L46.69 15.252L48.9546 15.4702C49.0495 15.4337 49.0495 15.4337 48.9546 15.4702C49.0495 15.4337 48.9546 15.4702 48.9546 15.4702Z" fill="white"/>
<path opacity="0.29" d="M48.9682 15.7917L46.7037 15.5735L48.9682 15.7917C49.0266 15.6602 49.0266 15.6602 48.9682 15.7917C49.0632 15.7552 48.9682 15.7917 48.9682 15.7917Z" fill="white"/>
</g>
<path opacity="0.19" d="M22.1469 23.7214L10.5916 25.9905C10.4017 26.0636 10.3286 25.8738 10.292 25.7788L9.91591 16.8744C9.87934 16.7794 9.93772 16.6479 10.1276 16.5748L21.624 13.0201C21.8139 12.9469 21.9819 13.1003 21.9235 13.2318L22.3586 23.4218C22.4317 23.6117 22.3368 23.6483 22.1469 23.7214Z" fill="white"/>
<path opacity="0.27" d="M22.0208 13.1945C22.0427 12.968 21.8162 12.9462 21.7213 12.9828L10.2249 16.5375C10.13 16.5741 10.0716 16.7056 10.0132 16.8371L9.99138 17.0635L22.0208 13.1945Z" fill="white"/>
<path opacity="0.05" d="M10.5179 17.2971L10.6582 21.059C10.6947 21.1539 10.6947 21.1539 10.7897 21.1173L15.7199 19.764C15.7199 19.764 15.8148 19.7274 15.7783 19.6325L15.6014 15.7756C15.5648 15.6807 15.5648 15.6807 15.4699 15.7172L10.5179 17.2971C10.5763 17.1655 10.4813 17.2021 10.5179 17.2971Z" fill="white"/>
<path opacity="0.05" d="M22.3617 23.4212L21.9632 13.3262L18.0556 14.5038L18.2861 24.4455L22.15 23.7208C22.3399 23.6477 22.4348 23.6111 22.3617 23.4212Z" fill="white"/>
<path opacity="0.05" d="M21.6702 13.9837C21.6337 13.8888 21.6337 13.8888 21.5387 13.9253L18.4273 14.9054C18.4273 14.9054 18.3323 14.942 18.3689 15.0369C18.4054 15.1319 18.4055 15.1319 18.5004 15.0953L21.6119 14.1152C21.6702 13.9837 21.6702 13.9837 21.6702 13.9837Z" fill="white"/>
<path opacity="0.05" d="M21.6273 14.4367C21.5907 14.3418 21.5907 14.3418 21.4957 14.3783L18.3843 15.3584C18.3843 15.3584 18.2893 15.395 18.3259 15.4899C18.3625 15.5849 18.3625 15.5849 18.4574 15.5483L21.5689 14.5682C21.6638 14.5317 21.6273 14.4367 21.6273 14.4367Z" fill="white"/>
<path opacity="0.05" d="M21.7152 14.9479C21.6786 14.853 21.6786 14.853 21.5836 14.8896L18.4722 15.8697C18.4722 15.8697 18.3772 15.9062 18.4138 16.0012C18.4504 16.0961 18.4504 16.0961 18.5453 16.0595L21.6568 15.0795C21.6568 15.0795 21.6202 14.9845 21.7152 14.9479Z" fill="white"/>
<path opacity="0.05" d="M14.0988 20.9335C14.0623 20.8385 14.0623 20.8386 13.9673 20.8751L10.8777 21.6287C10.8777 21.6287 10.7827 21.6653 10.8193 21.7602C10.8559 21.8552 10.8559 21.8552 10.9508 21.8186L14.0404 21.065C14.0404 21.065 14.1354 21.0284 14.0988 20.9335Z" fill="white"/>
<path opacity="0.05" d="M14.113 21.2551L10.8335 22.0818L14.113 21.2551Z" fill="white"/>
<path opacity="0.05" d="M14.0916 21.4812C14.055 21.3862 14.055 21.3862 14.0916 21.4812L10.812 22.308L14.0916 21.4812Z" fill="white"/>
<path opacity="0.05" d="M14.1287 21.5763L10.8491 22.403L14.1287 21.5763C14.1652 21.6712 14.1652 21.6712 14.1287 21.5763Z" fill="white"/>
<path opacity="0.05" d="M14.1359 22.4456C14.0994 22.3507 14.0994 22.3506 14.0044 22.3872L10.9148 23.1409C10.9148 23.1409 10.8198 23.1774 10.8564 23.2724C10.893 23.3673 10.893 23.3673 10.9879 23.3308L14.0775 22.5771C14.041 22.4822 14.1359 22.4456 14.1359 22.4456Z" fill="white"/>
<path opacity="0.05" d="M14.1131 22.672L10.8335 23.4988L14.1131 22.672C14.1496 22.767 14.1496 22.767 14.1131 22.672Z" fill="white"/>
<path opacity="0.05" d="M14.1873 22.8621L10.9077 23.6889L14.1873 22.8621C14.0923 22.8987 14.1873 22.8621 14.1873 22.8621Z" fill="white"/>
<path opacity="0.05" d="M14.1658 23.0884C14.1658 23.0884 14.1292 22.9934 14.1658 23.0884L10.8863 23.9152L14.1658 23.0884Z" fill="white"/>
<path opacity="0.05" d="M14.1359 23.8627C14.0994 23.7677 14.0994 23.7678 14.0044 23.8043L10.9148 24.5579C10.9148 24.5579 10.8198 24.5945 10.8564 24.6894C10.893 24.7844 10.893 24.7844 10.9879 24.7478L14.0775 23.9942C14.1359 23.8627 14.1359 23.8627 14.1359 23.8627Z" fill="white"/>
<path opacity="0.05" d="M14.2088 24.0527L10.9292 24.8794L14.2088 24.0527C14.2453 24.1476 14.2088 24.0527 14.2088 24.0527Z" fill="white"/>
<path opacity="0.05" d="M14.1873 24.2791L10.9077 25.1058L14.1873 24.2791Z" fill="white"/>
<path opacity="0.05" d="M14.2595 24.4691C14.2595 24.4691 14.223 24.3741 14.2595 24.4691L10.98 25.2958L14.2595 24.4691C14.1646 24.5056 14.2595 24.4691 14.2595 24.4691Z" fill="white"/>
<path opacity="0.05" d="M21.7952 17.4241C21.7587 17.3291 21.7587 17.3292 21.6637 17.3657L18.5523 18.3458C18.5523 18.3458 18.4573 18.3824 18.4939 18.4773C18.5304 18.5723 18.5304 18.5723 18.6254 18.5357L21.7368 17.5556C21.8318 17.519 21.8318 17.519 21.7952 17.4241Z" fill="white"/>
<g opacity="0.27">
<path opacity="0.27" d="M10.5926 20.3214C10.5926 20.3214 10.7896 19.7004 11.1546 19.2328C11.308 19.0647 11.5344 19.0865 11.834 19.2982C12.1336 19.51 12.5281 19.6851 12.9445 19.6338C13.5507 19.5094 13.6527 18.925 13.7182 18.2456C13.7619 17.7927 13.8421 17.4347 13.9954 17.2666C14.2437 17.062 14.4336 16.9889 14.5285 16.9523C14.7184 16.8792 14.8134 16.8426 14.9667 16.6746C15.0835 16.4115 15.2368 16.2435 15.3317 16.2069C15.4267 16.1703 15.5216 16.1338 15.5216 16.1338C15.5216 16.1338 15.1053 16.1851 14.9667 16.6746C14.8499 16.9376 14.755 16.9741 14.5651 17.0473C14.3752 17.1204 14.2437 17.062 14.032 17.3616C13.8786 17.5297 13.835 17.9826 13.7548 18.3405C13.6746 18.6985 13.6893 19.0199 13.5725 19.2829C13.4558 19.546 13.3024 19.714 12.981 19.7288C12.8861 19.7653 12.7911 19.8019 12.7546 19.7069C12.4332 19.7217 12.1336 19.51 11.8706 19.3932C11.6075 19.2764 11.4395 19.1231 11.1912 19.3277C10.9211 19.7588 10.5926 20.3214 10.5926 20.3214Z" fill="white"/>
</g>
<g opacity="0.27">
<path opacity="0.27" d="M10.6802 20.8327C10.6802 20.8327 10.7604 20.4747 10.9721 20.1751C11.1839 19.8755 11.454 19.4444 11.9287 19.2616C12.4034 19.0788 12.703 19.2905 12.966 19.4073C13.2291 19.5241 13.4921 19.6409 13.8135 19.6261C14.2882 19.4433 14.3171 18.669 14.441 17.8581C14.4481 17.3103 14.4917 16.8573 14.6451 16.6893C14.8568 16.3897 15.0832 16.4115 15.2731 16.3384C15.3681 16.3018 15.4996 16.3602 15.6895 16.2871C15.4996 16.3602 15.4046 16.3968 15.2731 16.3384C15.0467 16.3166 14.8568 16.3897 14.6451 16.6893C14.4917 16.8573 14.4481 17.3103 14.441 17.8581C14.4121 18.6324 14.3248 19.5383 13.8501 19.7211C13.4703 19.8673 13.1707 19.6556 13.0026 19.5023C12.7396 19.3855 12.44 19.1738 11.9653 19.3566C11.6804 19.4663 11.3372 19.7075 11.0087 20.2701C10.7604 20.4747 10.6802 20.8327 10.6802 20.8327Z" fill="white"/>
</g>
<g opacity="0.27">
<path opacity="0.27" d="M10.7901 21.1175C10.7901 21.1175 10.7535 21.0225 10.9068 20.8545C10.9652 20.7229 11.1551 20.6498 11.3816 20.6716C11.608 20.6935 11.8929 20.5838 12.1412 20.3792C12.6159 20.1963 13.244 19.8454 13.9233 19.9109C14.0183 19.8743 14.2082 19.8012 14.3031 19.7647C14.6682 19.297 14.5874 18.2379 14.5798 17.3686C14.5869 16.8207 14.5356 16.4044 14.5939 16.2729C14.6889 16.2363 14.6889 16.2363 14.6889 16.2363C14.8204 16.2947 14.8935 16.4846 15.0032 16.7694C15.0763 16.9593 15.1129 17.0543 15.1129 17.0543C15.2078 17.0177 15.2078 17.0177 15.1713 16.9228C15.1347 16.8278 15.1931 16.6963 15.288 16.6597C15.4779 16.5866 15.5729 16.55 15.5729 16.55C15.5729 16.55 15.4414 16.4917 15.288 16.6597C15.1931 16.6963 15.1347 16.8278 15.1713 16.9228C15.2078 17.0177 15.1129 17.0543 15.1129 17.0543C15.0179 17.0908 15.0398 16.8644 15.0032 16.7694C14.9301 16.5795 14.8204 16.2947 14.7254 16.3312L14.6305 16.3678C14.5721 16.4993 14.5285 16.9522 14.6163 17.4635C14.624 18.3328 14.7413 19.4869 14.3397 19.8596C14.2813 19.9911 14.0914 20.0642 13.9599 20.0059C13.2222 20.0719 12.6525 20.2913 12.1777 20.4741C11.7979 20.6204 11.608 20.6935 11.4182 20.7666C11.1917 20.7448 11.0384 20.9128 10.9434 20.9494C10.7535 21.0225 10.7901 21.1175 10.7901 21.1175Z" fill="white"/>
</g>
<g opacity="0.18">
<path opacity="0.18" d="M8.06176 87.9194C24.7806 85.2933 38.9978 80.0846 50.2502 72.4715C59.2402 66.3501 66.4062 58.7149 71.5165 49.655C80.2415 34.3275 79.9329 20.1736 79.8735 20.0192L79.6893 20.0015C79.1526 29.4278 75.5207 37.0319 68.8884 42.5999C64.0433 46.5932 54.851 51.7287 38.5949 53.0241C28.89 53.8358 21.1444 52.8292 21.0672 52.8589L21.0495 53.043C21.1267 53.0133 28.8722 54.0199 38.6544 53.1785C54.9876 51.8534 64.18 46.7179 69.0251 42.7246C74.8795 37.8993 78.3278 31.4298 79.5661 23.595C79.0692 28.7507 77.4636 38.8545 71.3799 49.5303C66.317 58.4833 59.151 66.1185 50.161 72.2399C38.9086 79.853 24.7686 85.032 8.04976 87.658L8.06176 87.9194Z" fill="white"/>
</g>
</g>
<path fill-rule="evenodd" clip-rule="evenodd" d="M14.8873 28.9779C14.2415 27.0884 13.8906 25.0588 13.8906 22.9461C13.8906 12.7907 21.9979 4.55804 31.9986 4.55804C41.9994 4.55804 50.1066 12.7907 50.1066 22.9461C50.1066 25.0589 49.7557 27.0884 49.1099 28.9779C44.1473 30.7425 38.2824 31.7624 31.9987 31.7624C25.7149 31.7624 19.8499 30.7425 14.8873 28.9779Z" fill="url(#paint2_radial)"/>
<path d="M20.7516 13.4963C20.7803 17.6882 25.8227 21.0458 32.0419 20.9878C38.2611 20.9299 43.2703 17.4836 43.2416 13.2917C43.2128 9.09973 38.1705 5.74219 31.9512 5.80013C25.732 5.85807 20.7229 9.30433 20.7516 13.4963Z" fill="url(#paint3_radial)"/>
<path fill-rule="evenodd" clip-rule="evenodd" d="M19.1801 36.6323C19.1671 36.695 19.1522 36.7578 19.1353 36.8206C18.668 38.5649 16.8965 39.6058 15.1788 39.1455C13.461 38.6853 12.4474 36.8981 12.9148 35.1538C12.9152 35.1523 12.9156 35.1508 12.916 35.1494C13.9533 34.9988 15.1751 35.0721 16.4308 35.4085C17.4815 35.6901 18.4196 36.1193 19.1801 36.6323Z" fill="url(#paint4_linear)"/>
<path fill-rule="evenodd" clip-rule="evenodd" d="M44.8199 36.6322C44.8329 36.695 44.8478 36.7578 44.8647 36.8206C45.332 38.5649 47.1035 39.6058 48.8212 39.1455C50.539 38.6853 51.5526 36.8981 51.0852 35.1538C51.0848 35.1523 51.0844 35.1508 51.084 35.1494C50.0467 34.9988 48.8248 35.0721 47.5691 35.4085C46.5184 35.6901 45.5804 36.1193 44.8199 36.6322Z" fill="url(#paint5_linear)"/>
<path fill-rule="evenodd" clip-rule="evenodd" d="M28.7849 37.7163C28.7812 37.7803 28.7793 37.8449 28.7793 37.91C28.7793 39.7158 30.2209 41.1797 31.9993 41.1797C33.7776 41.1797 35.2193 39.7158 35.2193 37.91C35.2193 37.9084 35.2193 37.9068 35.2193 37.9052C34.2563 37.4913 33.0571 37.2458 31.7571 37.2458C30.6693 37.2458 29.6521 37.4177 28.7849 37.7163Z" fill="url(#paint6_linear)"/>
<path fill-rule="evenodd" clip-rule="evenodd" d="M14.888 28.9778C14.2422 27.0883 13.8913 25.0587 13.8913 22.946C13.8913 22.2833 13.9258 21.6289 13.9931 20.9844C7.9971 22.7502 4.19336 25.3816 4.19336 28.3206C4.19336 33.6375 16.6425 37.9477 31.9993 37.9477C47.3561 37.9477 59.8053 33.6375 59.8053 28.3206C59.8053 25.3816 56.0015 22.7502 50.0055 20.9844C50.0728 21.6289 50.1073 22.2833 50.1073 22.946C50.1073 25.0587 49.7564 27.0883 49.1106 28.9778C44.148 30.7424 38.283 31.7622 31.9993 31.7622C25.7156 31.7622 19.8506 30.7424 14.888 28.9778Z" fill="url(#paint7_linear)"/>
<g style="mix-blend-mode:multiply">
<path fill-rule="evenodd" clip-rule="evenodd" d="M49.2983 28.3957C44.1772 29.8709 38.2779 30.7114 31.9987 30.7114C25.7196 30.7114 19.8203 29.8709 14.6992 28.3957C14.7589 28.5912 14.8216 28.7852 14.8875 28.9779C19.85 30.7425 25.715 31.7623 31.9987 31.7623C38.2824 31.7623 44.1474 30.7424 49.11 28.9778C49.1758 28.7852 49.2386 28.5911 49.2983 28.3957Z" fill="#01D4E4"/>
</g>
<path d="M17.2831 38.1379C17.4396 37.4901 16.7907 36.7785 15.829 36.5487C14.8674 36.3188 13.9623 36.6581 13.8057 37.3059C13.6492 37.9537 14.2982 38.6653 15.2598 38.8951C16.2215 39.125 17.1266 38.7857 17.2831 38.1379Z" fill="url(#paint8_radial)"/>
<path d="M46.5724 38.1379C46.4158 37.4901 47.0648 36.7785 48.0265 36.5487C48.9881 36.3188 49.8932 36.6581 50.0497 37.3059C50.2063 37.9537 49.5573 38.6653 48.5956 38.8951C47.634 39.125 46.7289 38.7857 46.5724 38.1379Z" fill="url(#paint9_radial)"/>
<path d="M33.7857 39.5656C33.7692 38.8993 32.9582 38.38 31.9698 38.4068C30.9814 38.4337 30.195 38.9957 30.2115 39.6619C30.2279 40.3281 31.0389 40.8475 32.0273 40.8207C33.0157 40.7938 33.8021 40.2318 33.7857 39.5656Z" fill="url(#paint10_radial)"/>
<g style="mix-blend-mode:multiply">
<path fill-rule="evenodd" clip-rule="evenodd" d="M13.8988 22.4108C13.9123 21.9305 13.944 21.4548 13.9931 20.9844C13.9657 20.9925 13.9384 21.0005 13.9111 21.0086C13.8979 21.296 13.8913 21.5851 13.8913 21.8757C13.8913 22.0547 13.8938 22.233 13.8988 22.4108ZM50.0998 22.4109C50.1048 22.2331 50.1073 22.0547 50.1073 21.8757C50.1073 21.5851 50.1007 21.296 50.0875 21.0086C50.0602 21.0005 50.0329 20.9924 50.0055 20.9844C50.0546 21.4548 50.0863 21.9306 50.0998 22.4109ZM59.763 27.7855C58.9611 32.8535 46.8375 36.8775 31.9993 36.8775C17.1611 36.8775 5.03753 32.8535 4.23559 27.7855C4.20756 27.9626 4.19336 28.141 4.19336 28.3206C4.19336 33.6375 16.6425 37.9477 31.9993 37.9477C47.3561 37.9477 59.8053 33.6375 59.8053 28.3206C59.8053 28.141 59.7911 27.9626 59.763 27.7855Z" fill="#01D4E4"/>
</g>
<defs>
<linearGradient id="paint0_linear" x1="31.2796" y1="26.7879" x2="31.2796" y2="61.5412" gradientUnits="userSpaceOnUse">
<stop stop-color="#06C0CF"/>
<stop offset="1" stop-color="#06C0CF" stop-opacity="0"/>
</linearGradient>
<radialGradient id="paint1_radial" cx="0" cy="0" r="1" gradientUnits="userSpaceOnUse" gradientTransform="translate(27.3754 -11.3139) rotate(-156.623) scale(67.1894 65.3001)">
<stop offset="0.1823" stop-color="#57DCEA" stop-opacity="0"/>
<stop offset="0.6861" stop-color="#57C8CE"/>
</radialGradient>
<radialGradient id="paint2_radial" cx="0" cy="0" r="1" gradientUnits="userSpaceOnUse" gradientTransform="translate(27.3754 -11.3139) rotate(-156.623) scale(67.1894 65.3001)">
<stop offset="0.1823" stop-color="#57DCEA" stop-opacity="0.2"/>
<stop offset="0.6861" stop-color="#57C8CE" stop-opacity="0.5"/>
</radialGradient>
<radialGradient id="paint3_radial" cx="0" cy="0" r="1" gradientUnits="userSpaceOnUse" gradientTransform="translate(27.336 -2.03805) rotate(-28.9772) scale(21.8991 24.4573)">
<stop offset="0.339" stop-color="white"/>
<stop offset="1" stop-color="white" stop-opacity="0"/>
</radialGradient>
<linearGradient id="paint4_linear" x1="15.1788" y1="39.1455" x2="16.1969" y2="35.3459" gradientUnits="userSpaceOnUse">
<stop stop-color="#01D4E4"/>
<stop offset="1" stop-color="#00B0CC"/>
</linearGradient>
<linearGradient id="paint5_linear" x1="48.8212" y1="39.1455" x2="47.8031" y2="35.3459" gradientUnits="userSpaceOnUse">
<stop stop-color="#01D4E4"/>
<stop offset="1" stop-color="#00B0CC"/>
</linearGradient>
<linearGradient id="paint6_linear" x1="31.9993" y1="41.1797" x2="31.9993" y2="37.2458" gradientUnits="userSpaceOnUse">
<stop stop-color="#01D4E4"/>
<stop offset="1" stop-color="#00B0CC"/>
</linearGradient>
<linearGradient id="paint7_linear" x1="31.9993" y1="14.3473" x2="31.9993" y2="67.8196" gradientUnits="userSpaceOnUse">
<stop stop-color="#01D4E4"/>
<stop offset="1" stop-color="#00C9DC"/>
</linearGradient>
<radialGradient id="paint8_radial" cx="0" cy="0" r="1" gradientUnits="userSpaceOnUse" gradientTransform="translate(15.6708 40.2815) rotate(165) scale(3.48142 3.88811)">
<stop offset="0.339" stop-color="white" stop-opacity="0.2"/>
<stop offset="1" stop-color="white" stop-opacity="0"/>
</radialGradient>
<radialGradient id="paint9_radial" cx="0" cy="0" r="1" gradientUnits="userSpaceOnUse" gradientTransform="translate(48.1846 40.2815) rotate(15) scale(3.48142 3.88811)">
<stop offset="0.339" stop-color="white" stop-opacity="0.2"/>
<stop offset="1" stop-color="white" stop-opacity="0"/>
</radialGradient>
<radialGradient id="paint10_radial" cx="0" cy="0" r="1" gradientUnits="userSpaceOnUse" gradientTransform="translate(32.7832 42.0534) rotate(150) scale(3.48142 3.88811)">
<stop offset="0.339" stop-color="white" stop-opacity="0.2"/>
<stop offset="1" stop-color="white" stop-opacity="0"/>
</radialGradient>
</defs>
</svg>
