<svg width="601" height="943" viewBox="0 0 601 943" fill="none" xmlns="http://www.w3.org/2000/svg">
<path d="M178.168 415.178L211.338 413.528L245.108 356.668L229.058 346.568C229.058 346.568 168.988 332.808 141.398 390.498C141.398 390.498 128.108 419.698 139.918 426.638C147.728 431.258 159.238 403.888 178.168 415.178Z" fill="#474854"/>
<path opacity="0.21" d="M178.168 415.178L211.338 413.528L245.108 356.668L229.058 346.568C229.058 346.568 168.988 332.808 141.398 390.498C141.398 390.498 128.108 419.698 139.918 426.638C147.728 431.258 159.238 403.888 178.168 415.178Z" fill="#27272D"/>
<path d="M155.538 404.128C155.538 404.128 151.268 413.798 152.248 420.548C158.898 414.998 167.348 408.808 178.178 415.178L203.348 414.008L219.818 386.288L209.498 379.858C209.538 379.768 171.508 370.058 155.538 404.128Z" fill="#474854"/>
<path opacity="0.1" d="M141.549 395.808C169.139 338.108 229.209 351.878 229.209 351.878L242.809 360.448L245.109 356.658L229.059 346.558C229.059 346.558 168.989 332.798 141.399 390.488C141.399 390.488 133.489 407.688 135.269 418.828C135.819 408.208 141.549 395.808 141.549 395.808Z" fill="white"/>
<path d="M385.908 538.738L371.418 508.838L405.188 451.978L421.748 461.188C421.748 461.188 462.568 507.478 425.178 559.288C425.178 559.288 405.968 584.948 394.218 577.918C386.328 573.248 404.838 550.028 385.908 538.738Z" fill="#474854"/>
<path opacity="0.21" d="M385.908 538.738L371.418 508.838L405.188 451.978L421.748 461.188C421.748 461.188 462.568 507.478 425.178 559.288C425.178 559.288 405.968 584.948 394.218 577.918C386.328 573.248 404.838 550.028 385.908 538.738Z" fill="#27272D"/>
<path d="M406.398 553.308C406.398 553.308 399.988 561.738 393.578 563.988C395.288 555.458 396.648 545.068 385.828 538.688L375.008 516.028L391.478 488.308L402.098 494.208C402.048 494.298 428.648 522.988 406.398 553.308Z" fill="#474854"/>
<path opacity="0.1" d="M420.469 561.678C457.849 509.878 417.039 463.588 417.039 463.588L403.029 455.728L405.329 451.938L421.889 461.148C421.889 461.148 462.709 507.448 425.319 559.238C425.319 559.238 413.939 574.428 403.329 578.178C412.249 572.628 420.469 561.678 420.469 561.678Z" fill="white"/>
<path d="M306.539 481.588L335.169 433.418L425.989 466.608L392.499 532.668L306.539 481.588Z" fill="#F2F2F2"/>
<path d="M180.258 406.398L222.078 346.098L294.778 409.258L266.148 457.428L180.258 406.398Z" fill="#F2F2F2"/>
<path d="M506.968 113.278C508.748 110.188 509.328 107.188 508.108 106.488C506.898 105.788 504.548 107.658 502.678 110.688C500.898 113.778 500.318 116.778 501.538 117.478C502.748 118.188 505.228 116.288 506.968 113.278Z" fill="#EDEDF4"/>
<path opacity="0.15" d="M507.359 112.398C507.359 112.398 504.399 117.918 501.779 116.848C500.559 116.358 501.389 113.508 502.669 110.688L502.619 110.768C500.839 113.858 500.309 116.778 501.479 117.558C502.689 118.258 505.049 116.388 506.829 113.308C507.019 112.978 507.219 112.648 507.359 112.398Z" fill="#73737F"/>
<path d="M506.529 113.028C508.119 110.278 508.639 107.568 507.509 106.918C506.469 106.318 504.219 108.018 502.629 110.768C501.039 113.518 500.519 116.228 501.649 116.878C502.689 117.488 504.939 115.778 506.529 113.028Z" fill="white"/>
<path d="M506.529 113.028C508.119 110.278 508.589 107.658 507.549 107.058C506.509 106.458 504.389 108.128 502.709 110.828C501.119 113.578 500.649 116.198 501.689 116.798C502.739 117.398 504.899 115.648 506.529 113.028Z" fill="#BCBCCC"/>
<path d="M506.528 113.028C508.018 110.438 508.578 107.868 507.628 107.318C506.678 106.768 504.688 108.398 503.058 111.018C501.568 113.608 501.008 116.178 501.958 116.728C502.918 117.288 504.948 115.568 506.528 113.028Z" fill="#73737F"/>
<path d="M501.629 114.308C501.539 114.258 501.849 113.318 502.499 112.808C501.939 113.378 501.629 114.308 501.629 114.308Z" fill="#8F8F99"/>
<path d="M505.319 108.108C505.319 108.108 504.669 108.838 504.449 109.608L504.359 109.558C504.579 108.788 505.319 108.108 505.319 108.108Z" fill="#8F8F99"/>
<path opacity="0.15" d="M502.719 110.608C504.099 108.618 505.749 107.568 506.609 108.068C507.559 108.618 507.139 111.158 505.649 113.738C505.019 114.818 504.269 115.728 503.579 116.328C504.539 115.658 505.569 114.478 506.439 112.978C508.029 110.228 508.499 107.608 507.509 106.918C506.469 106.318 504.349 107.988 502.719 110.608Z" fill="#73737F"/>
<path d="M502.839 108.008L500.299 112.208L502.989 113.758L505.529 109.558L502.839 108.008Z" fill="#73737F"/>
<g opacity="0.15">
<path opacity="0.15" d="M504.699 111.188C504.749 111.108 504.849 110.938 504.899 110.638C504.769 110.678 504.759 110.888 504.699 111.188Z" fill="#73737F"/>
</g>
<path d="M502.239 110.438C502.909 109.268 503.229 108.118 502.969 107.968C502.619 107.768 501.829 108.538 501.109 109.788C500.439 110.958 500.119 112.108 500.379 112.258C500.639 112.408 501.479 111.558 502.239 110.438Z" fill="#8F8F99"/>
<path d="M502.159 110.388C502.789 109.308 503.059 108.238 502.799 108.088C502.539 107.938 501.749 108.708 501.039 109.738C500.409 110.818 500.139 111.888 500.399 112.038C500.739 112.238 501.439 111.428 502.159 110.388Z" fill="#73737F"/>
<path d="M502.39 108.188L496.71 104.798L495.68 108.988L500.23 111.728L500.66 111.978C501.03 111.748 501.58 111.178 502.02 110.428C502.5 109.598 502.8 108.878 502.82 108.438L502.39 108.188Z" fill="#69DDAE"/>
<path d="M498.638 109.468C498.638 109.468 502.668 107.898 502.898 103.698C503.128 99.4878 500.338 94.0979 491.398 90.1579C482.448 86.2179 472.688 95.9279 478.198 105.008C484.748 115.688 498.638 109.468 498.638 109.468Z" fill="#75F1C1"/>
<path d="M494.559 91.8778C500.589 95.4678 502.489 99.7978 502.279 103.348C502.099 107.468 498.119 108.958 498.119 108.958C498.119 108.958 484.599 114.948 478.209 104.578C476.009 100.968 476.259 97.3278 477.899 94.4978C476.079 97.4478 475.689 101.338 478.059 105.048C484.619 115.728 498.499 109.518 498.499 109.518C498.499 109.518 502.529 107.948 502.759 103.748C503.089 100.148 500.979 95.5878 494.559 91.8778Z" fill="#69DDAE"/>
<path opacity="0.42" d="M492.988 107.428C494.958 107.228 496.388 105.948 496.188 104.488C495.988 103.038 494.298 101.948 492.328 102.148C490.358 102.348 488.928 103.628 489.128 105.088C489.338 106.548 491.018 107.628 492.988 107.428Z" fill="#A7A9CA"/>
<path opacity="0.42" d="M498.679 100.378C500.039 99.8278 500.569 97.9078 499.759 96.1078C498.949 94.3078 497.219 93.2978 495.859 93.8578C494.499 94.4078 493.969 96.3278 494.779 98.1278C495.499 99.8678 497.239 100.878 498.679 100.378Z" fill="#A7A9CA"/>
<path d="M493.049 107.128C495.019 106.928 496.449 105.648 496.249 104.188C496.049 102.738 494.359 101.648 492.389 101.848C490.419 102.048 488.989 103.328 489.189 104.788C489.309 106.198 491.129 107.248 493.049 107.128Z" fill="white"/>
<path opacity="0.16" d="M494.779 102.128C495.469 102.528 495.989 103.048 496.039 103.748C496.199 105.068 494.999 106.148 493.299 106.288C491.599 106.418 490.039 105.518 489.959 104.248C489.799 102.928 490.999 101.848 492.699 101.708C493.059 101.688 493.409 101.678 493.719 101.738C493.319 101.618 492.879 101.588 492.389 101.638C490.419 101.838 488.989 103.118 489.189 104.578C489.389 106.028 491.079 107.118 493.049 106.918C495.019 106.718 496.449 105.438 496.249 103.978C496.199 103.278 495.649 102.628 494.779 102.128Z" fill="#A7A9CA"/>
<path d="M498.65 100.028C500.01 99.4779 500.54 97.5579 499.73 95.7579C498.92 93.9579 497.18 92.9479 495.83 93.4979C494.47 94.0479 493.94 95.9678 494.75 97.7678C495.56 99.5678 497.29 100.578 498.65 100.028Z" fill="white"/>
<path d="M487.849 103.908C487.849 103.908 487.629 102.888 488.459 101.038C489.299 99.1878 486.289 99.7878 486.009 102.068C485.829 104.408 488.009 105.228 487.849 103.908Z" fill="#3CAF8E"/>
<path d="M494.739 91.9779C494.739 91.9779 493.669 92.0279 492.059 93.2079C490.449 94.3879 490.399 91.4679 492.619 90.6379C494.779 89.8879 496.029 91.9479 494.739 91.9779Z" fill="#3CAF8E"/>
<path opacity="0.42" d="M486.27 103.438C486.27 103.438 486.61 104.858 487.72 104.938C488.74 104.968 487.74 103.498 488.65 101.918C489.56 100.338 488.74 99.7479 487.93 99.9479C487.93 99.9479 488.51 99.9479 488.16 100.748C487.81 101.548 487.28 102.678 487.46 103.568C487.51 104.488 486.42 103.978 486.27 103.438Z" fill="#A7A9CA"/>
<path opacity="0.42" d="M491.139 91.7878C491.139 91.7878 490.899 92.2078 491.099 92.6578C491.439 93.0778 492.869 91.7878 493.859 91.6878C494.839 91.5878 495.069 91.3878 494.819 91.0178C494.819 91.0178 495.329 91.5378 494.999 91.8978L494.679 92.0478L494.849 92.1478C494.849 92.1478 493.689 92.1478 492.479 93.4478C491.369 94.5978 490.179 93.4578 491.139 91.7878Z" fill="#A7A9CA"/>
<path opacity="0.16" d="M498.828 99.1179C497.648 99.5479 496.088 98.6479 495.448 97.1679C494.718 95.6279 495.098 93.9579 496.328 93.4479C496.508 93.3279 496.728 93.3479 496.958 93.3679C496.598 93.3879 496.248 93.3979 495.838 93.4979C494.478 94.0479 493.948 95.9679 494.758 97.7679C495.568 99.5679 497.308 100.578 498.668 100.028C499.978 99.5579 500.408 97.8079 499.858 96.1579C500.228 97.4879 499.818 98.8079 498.828 99.1179Z" fill="#A7A9CA"/>
<path d="M499.458 102.828C498.978 103.658 498.288 104.258 498.008 104.548C497.958 104.628 497.868 104.578 497.788 104.528C497.698 104.478 497.748 104.398 497.798 104.308C498.078 104.028 498.868 103.258 499.348 102.418C499.398 102.338 499.398 102.338 499.488 102.388C499.578 102.438 499.528 102.518 499.528 102.518C499.558 102.658 499.508 102.748 499.458 102.828Z" fill="#3CAF8E"/>
<path d="M507.748 107.508C507.348 107.608 506.738 108.258 506.228 108.748C505.718 109.228 505.298 109.768 504.988 109.698C504.768 109.678 504.288 109.518 503.728 109.078C503.298 108.828 502.908 108.498 502.908 108.498L502.958 108.418C502.958 108.418 504.428 109.488 505.088 109.538C505.398 109.608 505.818 109.068 506.328 108.588C506.698 108.118 507.258 107.558 507.748 107.508Z" fill="#8F8F99"/>
<path d="M507.668 110.458C507.238 110.208 506.378 110.488 505.658 110.738C505.208 110.918 504.798 111.018 504.578 111.008C504.098 110.838 502.578 109.858 502.498 109.808L502.548 109.728C502.548 109.728 504.148 110.768 504.628 110.928C504.798 111.028 505.258 110.848 505.708 110.658C506.378 110.488 507.228 110.208 507.668 110.458Z" fill="#8F8F99"/>
<path d="M504.179 115.898C503.579 115.328 503.629 114.248 503.669 113.378C503.689 112.948 503.749 112.648 503.619 112.458C503.369 112.088 501.539 111.258 501.539 111.258L501.589 111.178C501.679 111.228 503.509 112.068 503.669 112.378C503.709 112.508 503.739 112.858 503.719 113.298C503.679 114.168 503.629 115.248 504.179 115.898Z" fill="#8F8F99"/>
<path d="M501.749 116.498C501.409 116.078 501.949 114.948 502.209 114.098C502.319 113.718 502.559 113.298 502.519 113.168C502.399 112.988 501.179 112.278 500.609 112.068L500.659 111.988C500.659 111.988 501.089 112.238 501.529 112.488C501.789 112.638 502.399 112.988 502.519 113.168C502.559 113.298 502.409 113.548 502.209 114.098C502.039 114.998 501.499 116.128 501.749 116.498Z" fill="#8F8F99"/>
<path d="M504.358 111.778C504.258 111.948 504.168 112.108 504.118 112.198C503.698 112.728 503.328 112.968 503.328 112.968L503.238 112.918C503.238 112.918 503.608 112.688 504.028 112.148C504.408 111.698 504.838 110.948 504.888 109.858C504.898 110.638 504.648 111.278 504.358 111.778Z" fill="#8F8F99"/>
<path opacity="0.15" d="M504.559 111.448C504.459 111.618 504.239 111.598 504.069 111.498L502.249 110.448C501.579 111.618 500.789 112.378 500.389 112.268L501.689 113.018C501.239 114.198 501.099 115.238 501.249 115.988C501.479 115.788 501.559 116.058 501.599 116.188C501.449 115.658 501.479 114.788 501.839 113.768C501.439 114.868 501.399 115.738 501.639 116.318C501.639 116.318 501.559 115.048 502.689 113.698C503.609 114.118 504.239 112.818 504.149 112.768C504.059 112.718 503.559 112.988 504.119 112.418C504.399 112.138 504.639 111.718 504.749 111.338C504.649 111.278 504.599 111.358 504.559 111.448ZM501.839 113.548L501.789 113.628L501.839 113.548ZM501.939 113.158C501.889 113.238 501.799 113.408 501.829 113.538C501.889 113.458 501.899 113.248 501.939 113.158Z" fill="#73737F"/>
<path d="M549.73 145.218C549.78 145.138 549.69 145.088 549.08 144.728C548.82 144.578 548.43 144.458 548.43 144.458C548.43 144.458 548.69 144.608 549.08 144.728C549.61 145.028 549.64 145.168 549.73 145.218Z" fill="#8F8F99"/>
<path d="M549.119 146.078C549.159 145.998 549.159 145.998 549.119 146.078C549.159 145.998 549.079 145.948 549.119 146.078C549.079 145.948 549.029 146.028 549.119 146.078C549.029 146.028 548.899 146.058 548.429 145.678C548.169 145.528 547.959 145.298 547.869 145.248C547.899 145.378 548.889 146.068 549.119 146.078Z" fill="#8F8F99"/>
<path d="M548.559 146.648C548.469 146.598 548.469 146.598 548.559 146.648C548.469 146.598 548.419 146.678 547.949 146.298C547.689 146.148 547.479 145.918 547.479 145.918C547.479 145.918 547.689 146.148 548.039 146.348C548.289 146.718 548.419 146.678 548.559 146.648Z" fill="#8F8F99"/>
<path d="M530.118 118.868L526.328 125.238L532.158 127.158C532.158 127.158 550.558 139.568 550.648 139.618C550.818 139.718 551.048 139.738 551.178 139.698C551.318 139.668 551.398 139.718 551.488 139.768L552.488 140.238C552.488 140.238 552.578 140.288 552.628 140.208C552.818 139.878 553.908 138.388 554.048 137.138L554.008 137.008L553.188 136.428C553.018 136.328 552.888 136.148 552.768 135.958C552.478 135.458 552.088 135.118 551.658 134.868L530.118 118.868Z" fill="#73737F"/>
<path d="M513.359 132.878C512.179 132.308 510.919 132.698 510.299 133.778L505.719 142.918L509.719 145.008L514.389 135.918C514.919 134.778 514.399 133.478 513.359 132.878Z" fill="#D5D5E0"/>
<path d="M509.669 144.878C509.909 144.458 509.099 143.658 508.009 143.138C506.919 142.618 505.859 142.448 505.669 142.788C505.429 143.208 506.239 144.008 507.329 144.528C508.459 145.178 509.519 145.348 509.669 144.878Z" fill="#EDEDF4"/>
<path d="M509.449 144.858C509.639 144.528 509.009 143.818 507.999 143.358C506.999 142.888 506.069 142.688 505.879 143.018C505.689 143.348 506.319 144.058 507.329 144.518C508.419 145.038 509.259 145.188 509.449 144.858Z" fill="#BCBCCC"/>
<path d="M508.638 146.058L505.508 144.468L506.098 143.248L506.208 142.868C506.608 142.768 507.318 142.948 508.008 143.358C508.698 143.758 509.258 144.188 509.428 144.508L509.188 144.928L508.638 146.058Z" fill="#73737F"/>
<path d="M508.689 145.978C508.829 145.728 508.289 145.078 507.369 144.658C506.449 144.238 505.699 144.138 505.559 144.388C505.419 144.638 505.969 145.288 506.879 145.708C507.659 146.158 508.489 146.308 508.689 145.978Z" fill="#8F8F99"/>
<path d="M506.558 142.858C506.528 143.508 506.008 144.208 506.008 144.208C506.048 144.338 506.528 143.508 506.558 142.858Z" fill="#8F8F99"/>
<path d="M507.259 143.038C507.189 143.558 506.709 144.388 506.709 144.388C506.709 144.388 506.809 144.218 506.999 143.888C507.099 143.728 507.199 143.338 507.259 143.038Z" fill="#8F8F99"/>
<path d="M508.089 143.408C508.039 143.488 507.509 144.408 507.449 144.708C507.599 144.458 508.089 143.408 508.089 143.408Z" fill="#8F8F99"/>
<path d="M508.909 143.988C508.909 143.988 508.339 144.768 508.229 145.368C508.389 144.688 508.909 143.988 508.909 143.988Z" fill="#8F8F99"/>
<path d="M509.329 144.458C509.329 144.458 508.909 144.988 508.559 145.798C508.999 145.038 509.329 144.458 509.329 144.458Z" fill="#8F8F99"/>
<path d="M506.618 148.558L505.318 146.808L505.718 144.708L505.768 144.628C505.908 144.378 506.668 144.478 507.358 144.878C508.048 145.278 508.608 145.718 508.468 145.968L506.618 148.558Z" fill="#75F1C1"/>
<path d="M506.618 148.558L505.318 146.808L505.718 144.708L505.768 144.628C505.908 144.378 506.668 144.478 507.358 144.878C508.048 145.278 508.608 145.718 508.468 145.968L506.618 148.558Z" fill="#69DDAE"/>
<path d="M528.149 105.828L510.449 103.618C509.169 103.438 508.059 104.348 507.959 105.518C507.819 106.768 508.789 107.888 509.989 108.028L527.689 110.238C528.969 110.418 530.079 109.508 530.179 108.338C530.319 107.088 529.439 106.018 528.149 105.828Z" fill="#D5D5E0"/>
<path d="M507.969 105.518C508.109 104.268 509.169 103.438 510.459 103.618L512.849 103.888L515.439 108.608L509.959 107.888C508.799 107.888 507.829 106.768 507.969 105.518Z" fill="#BCBCCC"/>
<path d="M528.95 110.068C527.86 110.548 526.5 110.098 525.88 108.968L521.09 99.6379L525.04 97.8079L529.83 107.138C530.5 108.188 530.08 109.508 528.95 110.068Z" fill="#D5D5E0"/>
<path d="M529.359 109.758C529.309 109.838 529.259 109.928 529.259 109.928C529.669 109.608 529.619 108.908 529.179 107.658C528.819 106.668 528.249 105.458 527.519 103.918C526.119 101.328 524.539 98.8578 524.539 98.8578C524.539 98.8578 526.119 101.328 527.519 103.918C528.299 105.368 528.909 106.728 529.179 107.658C529.539 108.638 529.599 109.338 529.359 109.758Z" fill="#EDEDF4"/>
<path opacity="0.15" d="M529.448 108.798C529.038 108.898 528.738 108.828 528.428 108.768C527.948 108.598 527.468 108.218 527.268 107.768L522.758 98.9379L521.168 99.6879L525.348 107.888L509.898 105.198C509.668 106.398 510.028 107.388 510.838 108.188L527.648 110.338C528.758 110.418 529.808 109.808 530.028 108.818C530.128 108.648 530.138 108.438 530.058 108.168C529.998 108.448 529.718 108.738 529.448 108.798Z" fill="#73737F"/>
<path d="M500.569 118.148C499.609 118.818 499.369 120.238 500.079 121.198L510.479 135.658C511.189 136.628 512.649 136.908 513.609 136.248C514.569 135.578 514.809 134.158 514.099 133.198L503.699 118.738C502.899 117.718 501.529 117.488 500.569 118.148Z" fill="#D5D5E0"/>
<path d="M500.569 118.148C499.609 118.818 499.369 120.238 500.079 121.198L501.509 123.138L506.939 123.158L503.709 118.738C502.899 117.718 501.529 117.488 500.569 118.148Z" fill="#BCBCCC"/>
<path opacity="0.15" d="M500.568 118.148C499.518 118.768 499.458 120.068 500.128 121.118L509.798 134.828L505.708 142.918L507.228 143.688L508.358 143.338L511.818 136.548C511.818 136.548 512.458 135.028 511.168 133.058L511.128 132.928L505.328 125.128C504.578 124.028 505.618 122.628 506.838 123.108L506.928 123.158L503.698 118.738C502.898 117.718 501.528 117.488 500.568 118.148Z" fill="#73737F"/>
<path d="M529.279 134.958C529.279 134.958 531.129 127.348 536.479 122.878L530.119 118.868L522.719 131.278L529.279 134.958Z" fill="#73737F"/>
<path opacity="0.15" d="M530.68 119.298L530.07 118.948L526.47 124.988L522.68 131.358L527.24 133.878L529.23 135.028L545.21 145.818C545.64 146.068 546.13 146.238 546.7 146.238C546.92 146.258 547.14 146.268 547.32 146.368L548.19 146.868C548.19 146.868 548.28 146.918 548.32 146.838C548.82 146.568 549.29 145.958 549.58 145.458C548.93 146.188 547.35 145.508 548.27 144.918C549.18 144.338 549.15 143.198 549.15 143.198L549.2 143.118C549.16 142.988 548.99 142.888 548.9 142.838C548.9 142.838 548.55 142.638 547.95 142.288C548.04 142.338 547.99 142.418 548.08 142.468C548.86 142.918 549.07 144.158 547.28 144.458C545.49 144.758 529.68 134.068 529.95 131.998C530.01 131.698 530.06 131.398 530.21 131.148C530.44 130.948 530.67 130.748 530.9 130.548C531 130.378 531.13 130.348 531.23 130.178C531.55 130.028 531.95 129.928 532.17 129.948C531.91 129.798 531.65 129.648 531.48 129.548C531.82 128.968 532.2 128.298 532.64 127.548L532.81 127.648L532.86 127.568L532.81 127.648C537.49 130.358 550.52 139.658 550.61 139.708C550.78 139.808 551.01 139.828 551.14 139.788C551.27 139.748 551.36 139.808 551.45 139.858L552.45 140.328C552.45 140.328 552.54 140.378 552.59 140.298C552.64 140.218 552.83 139.878 553.11 139.598C552.35 139.718 551.63 138.968 552.31 138.578C553.22 137.998 552.98 136.408 552.98 136.408C552.89 136.358 552.86 136.228 552.77 136.178C552.48 135.678 552.1 135.338 551.66 135.088L551.57 135.038C552.9 136.138 552.39 137.628 551.48 138.208C550.38 138.908 536.84 128.308 533.33 126.168C532.67 124.898 533.04 123.668 533.04 123.668C530.58 130.148 527.47 129.908 526.38 128.388C525.18 127.028 529.68 120.618 530.68 119.298Z" fill="#73737F"/>
<path d="M503.05 110.238L502.71 110.818L502.52 111.148L502.18 111.728L501.77 119.058L506.88 123.238L522.72 131.268L526.32 125.228L526.51 124.898L530.109 118.858L515.43 108.818L509.27 106.258L503.05 110.238Z" fill="#D5D5E0"/>
<path opacity="0.15" d="M514.118 108.298C512.288 108.468 510.028 109.168 508.188 110.768C508.398 109.998 508.608 109.228 508.648 108.368C508.728 106.628 507.718 106.168 506.608 106.298L503.018 110.118L502.678 110.698L502.488 111.028L502.148 111.608L499.578 119.468L522.768 131.198L524.588 128.248L506.358 119.948C506.468 118.348 507.048 116.348 508.298 114.178C510.498 110.558 513.188 109.108 515.038 108.508L514.948 108.458L514.118 108.298ZM504.948 119.568C504.948 119.568 503.848 119.268 504.218 118.028C504.278 117.728 504.568 117.228 505.038 116.608C504.818 117.598 504.908 118.658 504.948 119.568Z" fill="#73737F"/>
<path d="M508.238 110.678L517.168 116.058L508.238 110.678Z" fill="#EDEDF4"/>
<path d="M519.988 115.578L527.958 122.408L519.988 115.578Z" fill="#EDEDF4"/>
<path d="M515.039 123.948L524.879 127.738L515.039 123.948Z" fill="#EDEDF4"/>
<path d="M505.119 115.878L514.049 121.258L505.119 115.878Z" fill="#EDEDF4"/>
<path d="M513.998 121.128L516.588 128.068L513.998 121.128Z" fill="#EDEDF4"/>
<path d="M503.049 110.238L502.709 110.818L502.519 111.148L502.419 111.318L502.179 111.738L499.609 119.598L506.879 123.238C506.879 123.238 504.719 119.768 507.949 114.178C511.349 108.688 515.389 108.908 515.389 108.908L508.699 104.268L503.049 110.238Z" fill="#BCBCCC"/>
<path opacity="0.15" d="M506.029 120.308L504.939 119.788C504.939 119.788 503.759 119.218 504.129 117.988C504.499 116.748 508.459 112.478 508.599 108.448C508.679 106.708 507.669 106.248 506.559 106.378L502.969 110.198L502.629 110.778L502.439 111.108L502.339 111.278L502.099 111.698L499.529 119.558L506.799 123.198C506.879 123.248 506.219 122.188 506.029 120.308Z" fill="#73737F"/>
<path opacity="0.15" d="M507.819 113.998C504.589 119.588 506.929 123.158 506.929 123.158C506.929 123.158 504.769 119.688 507.989 114.098C511.389 108.608 515.428 108.828 515.428 108.828C515.428 108.828 511.169 108.588 507.819 113.998Z" fill="#73737F"/>
<path d="M506.968 113.278C508.748 110.188 509.328 107.188 508.108 106.488C506.898 105.788 504.548 107.658 502.678 110.688C500.898 113.778 500.318 116.778 501.538 117.478C502.748 118.188 505.228 116.288 506.968 113.278Z" fill="#EDEDF4"/>
<path opacity="0.15" d="M507.359 112.398C507.359 112.398 504.399 117.918 501.779 116.848C500.559 116.358 501.389 113.508 502.669 110.688L502.619 110.768C500.839 113.858 500.309 116.778 501.479 117.558C502.689 118.258 505.049 116.388 506.829 113.308C507.019 112.978 507.219 112.648 507.359 112.398Z" fill="#73737F"/>
<path d="M506.529 113.028C508.119 110.278 508.639 107.568 507.509 106.918C506.469 106.318 504.219 108.018 502.629 110.768C501.039 113.518 500.519 116.228 501.649 116.878C502.689 117.488 504.939 115.778 506.529 113.028Z" fill="white"/>
<path d="M506.529 113.028C508.119 110.278 508.589 107.658 507.549 107.058C506.509 106.458 504.389 108.128 502.709 110.828C501.119 113.578 500.649 116.198 501.689 116.798C502.739 117.398 504.899 115.648 506.529 113.028Z" fill="#BCBCCC"/>
<path d="M506.528 113.028C508.018 110.438 508.578 107.868 507.628 107.318C506.678 106.768 504.688 108.398 503.058 111.018C501.568 113.608 501.008 116.178 501.958 116.728C502.918 117.288 504.948 115.568 506.528 113.028Z" fill="#73737F"/>
<path d="M501.629 114.308C501.539 114.258 501.849 113.318 502.499 112.808C501.939 113.378 501.629 114.308 501.629 114.308Z" fill="#8F8F99"/>
<path d="M505.319 108.108C505.319 108.108 504.669 108.838 504.449 109.608L504.359 109.558C504.579 108.788 505.319 108.108 505.319 108.108Z" fill="#8F8F99"/>
<path opacity="0.15" d="M502.719 110.608C504.099 108.618 505.749 107.568 506.609 108.068C507.559 108.618 507.139 111.158 505.649 113.738C505.019 114.818 504.269 115.728 503.579 116.328C504.539 115.658 505.569 114.478 506.439 112.978C508.029 110.228 508.499 107.608 507.509 106.918C506.469 106.318 504.349 107.988 502.719 110.608Z" fill="#73737F"/>
<path d="M502.839 108.008L500.299 112.208L502.989 113.758L505.529 109.558L502.839 108.008Z" fill="#73737F"/>
<g opacity="0.15">
<path opacity="0.15" d="M504.699 111.188C504.749 111.108 504.849 110.938 504.899 110.638C504.769 110.678 504.759 110.888 504.699 111.188Z" fill="#73737F"/>
</g>
<path d="M502.239 110.438C502.909 109.268 503.229 108.118 502.969 107.968C502.619 107.768 501.829 108.538 501.109 109.788C500.439 110.958 500.119 112.108 500.379 112.258C500.639 112.408 501.479 111.558 502.239 110.438Z" fill="#8F8F99"/>
<path d="M502.159 110.388C502.789 109.308 503.059 108.238 502.799 108.088C502.539 107.938 501.749 108.708 501.039 109.738C500.409 110.818 500.139 111.888 500.399 112.038C500.739 112.238 501.439 111.428 502.159 110.388Z" fill="#73737F"/>
<path d="M502.39 108.188L496.71 104.798L495.68 108.988L500.23 111.728L500.66 111.978C501.03 111.748 501.58 111.178 502.02 110.428C502.5 109.598 502.8 108.878 502.82 108.438L502.39 108.188Z" fill="#69DDAE"/>
<path d="M498.638 109.468C498.638 109.468 502.668 107.898 502.898 103.698C503.128 99.4878 500.338 94.0979 491.398 90.1579C482.448 86.2179 472.688 95.9279 478.198 105.008C484.748 115.688 498.638 109.468 498.638 109.468Z" fill="#75F1C1"/>
<path d="M494.559 91.8778C500.589 95.4678 502.489 99.7978 502.279 103.348C502.099 107.468 498.119 108.958 498.119 108.958C498.119 108.958 484.599 114.948 478.209 104.578C476.009 100.968 476.259 97.3278 477.899 94.4978C476.079 97.4478 475.689 101.338 478.059 105.048C484.619 115.728 498.499 109.518 498.499 109.518C498.499 109.518 502.529 107.948 502.759 103.748C503.089 100.148 500.979 95.5878 494.559 91.8778Z" fill="#69DDAE"/>
<path opacity="0.42" d="M492.988 107.428C494.958 107.228 496.388 105.948 496.188 104.488C495.988 103.038 494.298 101.948 492.328 102.148C490.358 102.348 488.928 103.628 489.128 105.088C489.338 106.548 491.018 107.628 492.988 107.428Z" fill="#A7A9CA"/>
<path opacity="0.42" d="M498.679 100.378C500.039 99.8278 500.569 97.9078 499.759 96.1078C498.949 94.3078 497.219 93.2978 495.859 93.8578C494.499 94.4078 493.969 96.3278 494.779 98.1278C495.499 99.8678 497.239 100.878 498.679 100.378Z" fill="#A7A9CA"/>
<path d="M493.049 107.128C495.019 106.928 496.449 105.648 496.249 104.188C496.049 102.738 494.359 101.648 492.389 101.848C490.419 102.048 488.989 103.328 489.189 104.788C489.309 106.198 491.129 107.248 493.049 107.128Z" fill="white"/>
<path opacity="0.16" d="M494.779 102.128C495.469 102.528 495.989 103.048 496.039 103.748C496.199 105.068 494.999 106.148 493.299 106.288C491.599 106.418 490.039 105.518 489.959 104.248C489.799 102.928 490.999 101.848 492.699 101.708C493.059 101.688 493.409 101.678 493.719 101.738C493.319 101.618 492.879 101.588 492.389 101.638C490.419 101.838 488.989 103.118 489.189 104.578C489.389 106.028 491.079 107.118 493.049 106.918C495.019 106.718 496.449 105.438 496.249 103.978C496.199 103.278 495.649 102.628 494.779 102.128Z" fill="#A7A9CA"/>
<path d="M498.65 100.028C500.01 99.4779 500.54 97.5579 499.73 95.7579C498.92 93.9579 497.18 92.9479 495.83 93.4979C494.47 94.0479 493.94 95.9678 494.75 97.7678C495.56 99.5678 497.29 100.578 498.65 100.028Z" fill="white"/>
<path d="M487.849 103.908C487.849 103.908 487.629 102.888 488.459 101.038C489.299 99.1878 486.289 99.7878 486.009 102.068C485.829 104.408 488.009 105.228 487.849 103.908Z" fill="#3CAF8E"/>
<path d="M494.739 91.9779C494.739 91.9779 493.669 92.0279 492.059 93.2079C490.449 94.3879 490.399 91.4679 492.619 90.6379C494.779 89.8879 496.029 91.9479 494.739 91.9779Z" fill="#3CAF8E"/>
<path opacity="0.42" d="M486.27 103.438C486.27 103.438 486.61 104.858 487.72 104.938C488.74 104.968 487.74 103.498 488.65 101.918C489.56 100.338 488.74 99.7479 487.93 99.9479C487.93 99.9479 488.51 99.9479 488.16 100.748C487.81 101.548 487.28 102.678 487.46 103.568C487.51 104.488 486.42 103.978 486.27 103.438Z" fill="#A7A9CA"/>
<path opacity="0.42" d="M491.139 91.7878C491.139 91.7878 490.899 92.2078 491.099 92.6578C491.439 93.0778 492.869 91.7878 493.859 91.6878C494.839 91.5878 495.069 91.3878 494.819 91.0178C494.819 91.0178 495.329 91.5378 494.999 91.8978L494.679 92.0478L494.849 92.1478C494.849 92.1478 493.689 92.1478 492.479 93.4478C491.369 94.5978 490.179 93.4578 491.139 91.7878Z" fill="#A7A9CA"/>
<path opacity="0.16" d="M498.828 99.1179C497.648 99.5479 496.088 98.6479 495.448 97.1679C494.718 95.6279 495.098 93.9579 496.328 93.4479C496.508 93.3279 496.728 93.3479 496.958 93.3679C496.598 93.3879 496.248 93.3979 495.838 93.4979C494.478 94.0479 493.948 95.9679 494.758 97.7679C495.568 99.5679 497.308 100.578 498.668 100.028C499.978 99.5579 500.408 97.8079 499.858 96.1579C500.228 97.4879 499.818 98.8079 498.828 99.1179Z" fill="#A7A9CA"/>
<path d="M499.458 102.828C498.978 103.658 498.288 104.258 498.008 104.548C497.958 104.628 497.868 104.578 497.788 104.528C497.698 104.478 497.748 104.398 497.798 104.308C498.078 104.028 498.868 103.258 499.348 102.418C499.398 102.338 499.398 102.338 499.488 102.388C499.578 102.438 499.528 102.518 499.528 102.518C499.558 102.658 499.508 102.748 499.458 102.828Z" fill="#3CAF8E"/>
<path d="M507.748 107.508C507.348 107.608 506.738 108.258 506.228 108.748C505.718 109.228 505.298 109.768 504.988 109.698C504.768 109.678 504.288 109.518 503.728 109.078C503.298 108.828 502.908 108.498 502.908 108.498L502.958 108.418C502.958 108.418 504.428 109.488 505.088 109.538C505.398 109.608 505.818 109.068 506.328 108.588C506.698 108.118 507.258 107.558 507.748 107.508Z" fill="#8F8F99"/>
<path d="M507.668 110.458C507.238 110.208 506.378 110.488 505.658 110.738C505.208 110.918 504.798 111.018 504.578 111.008C504.098 110.838 502.578 109.858 502.498 109.808L502.548 109.728C502.548 109.728 504.148 110.768 504.628 110.928C504.798 111.028 505.258 110.848 505.708 110.658C506.378 110.488 507.228 110.208 507.668 110.458Z" fill="#8F8F99"/>
<path d="M504.179 115.898C503.579 115.328 503.629 114.248 503.669 113.378C503.689 112.948 503.749 112.648 503.619 112.458C503.369 112.088 501.539 111.258 501.539 111.258L501.589 111.178C501.679 111.228 503.509 112.068 503.669 112.378C503.709 112.508 503.739 112.858 503.719 113.298C503.679 114.168 503.629 115.248 504.179 115.898Z" fill="#8F8F99"/>
<path d="M501.749 116.498C501.409 116.078 501.949 114.948 502.209 114.098C502.319 113.718 502.559 113.298 502.519 113.168C502.399 112.988 501.179 112.278 500.609 112.068L500.659 111.988C500.659 111.988 501.089 112.238 501.529 112.488C501.789 112.638 502.399 112.988 502.519 113.168C502.559 113.298 502.409 113.548 502.209 114.098C502.039 114.998 501.499 116.128 501.749 116.498Z" fill="#8F8F99"/>
<path d="M504.358 111.778C504.258 111.948 504.168 112.108 504.118 112.198C503.698 112.728 503.328 112.968 503.328 112.968L503.238 112.918C503.238 112.918 503.608 112.688 504.028 112.148C504.408 111.698 504.838 110.948 504.888 109.858C504.898 110.638 504.648 111.278 504.358 111.778Z" fill="#8F8F99"/>
<path d="M523.538 99.3879C524.628 98.9079 525.418 98.1379 525.168 97.7679C524.968 97.3179 523.938 97.4979 522.848 97.9879C521.758 98.4679 520.968 99.2379 521.218 99.6079C521.468 99.9679 522.458 99.8679 523.538 99.3879Z" fill="#EDEDF4"/>
<path d="M523.51 99.2478C524.46 98.7978 525.16 98.1978 524.95 97.7478C524.79 97.4278 523.85 97.4478 522.85 97.9778C521.9 98.4278 521.2 99.0278 521.4 99.4778C521.57 99.7978 522.55 99.6978 523.51 99.2478Z" fill="#BCBCCC"/>
<path d="M524.108 96.5979L521.068 98.0679L521.638 99.2879L521.798 99.6079C522.198 99.7279 522.868 99.5579 523.548 99.1779C524.228 98.7979 524.778 98.4479 524.978 98.1079L524.688 97.6079L524.108 96.5979Z" fill="#73737F"/>
<path opacity="0.15" d="M523.479 98.8978C522.779 98.7178 522.289 97.7578 522.289 97.7578L522.389 97.3778L520.979 98.0078L521.549 99.2278L521.709 99.5478C522.109 99.6678 522.779 99.4978 523.459 99.1178C524.139 98.7378 524.689 98.3878 524.879 98.0478L524.629 97.6778C524.699 98.3878 524.089 99.0378 523.479 98.8978Z" fill="#73737F"/>
<path d="M522.808 97.8478C523.628 97.4278 524.188 96.8678 524.108 96.5978C523.948 96.2778 523.098 96.3478 522.278 96.7678C521.458 97.1878 520.898 97.7478 520.978 98.0178C521.138 98.3278 521.988 98.2678 522.808 97.8478Z" fill="#8F8F99"/>
<path d="M522.019 99.6179C521.909 98.9979 521.459 98.1779 521.459 98.1779C521.549 98.2379 521.999 99.0479 522.019 99.6179Z" fill="#8F8F99"/>
<path d="M522.729 99.5878C522.619 98.9678 522.119 98.2378 522.119 98.2378C522.119 98.2378 522.239 98.4178 522.409 98.7378C522.539 98.9178 522.709 99.2378 522.729 99.5878Z" fill="#8F8F99"/>
<path d="M523.509 99.2479C523.419 99.1979 522.979 98.1579 522.809 97.8479C522.969 98.1679 523.509 99.2479 523.509 99.2479Z" fill="#8F8F99"/>
<path d="M524.369 98.7479C524.369 98.7479 523.779 97.9679 523.629 97.4279C523.829 97.8879 524.369 98.7479 524.369 98.7479Z" fill="#8F8F99"/>
<path d="M524.799 98.2179C524.799 98.2179 524.339 97.6179 523.969 96.8479C524.419 97.6679 524.799 98.2179 524.799 98.2179Z" fill="#8F8F99"/>
<path d="M523.199 95.1779L520.729 95.6479L521.129 97.7679C521.129 97.7679 521.079 97.8479 521.169 97.8979C521.249 98.1679 522.009 98.0479 522.779 97.7179C523.549 97.3879 524.059 96.8979 523.899 96.5879L523.199 95.1779Z" fill="#75F1C1"/>
<path d="M522.649 95.5279C522.629 97.9679 520.359 98.0979 519.089 97.4779C517.829 96.8579 517.389 97.6079 516.149 97.5579C514.909 97.5079 515.139 96.3079 515.139 96.3079C515.989 94.2379 518.749 95.0579 518.749 95.0579C518.749 95.0579 513.719 91.1479 514.989 88.5479C516.259 85.9479 518.439 85.9779 518.599 87.2979C518.769 88.6179 516.639 89.4979 516.639 89.4979C516.639 89.4979 518.269 91.8879 519.789 92.6579C519.789 92.6579 519.359 91.4079 520.409 90.5679C521.459 89.7279 524.819 90.3379 525.269 92.3779C525.709 94.4179 523.329 94.9279 522.919 92.2379C522.919 92.2379 521.819 91.9379 521.419 92.0379C521.419 92.0379 525.129 94.6279 522.649 95.5279Z" fill="#75F1C1"/>
<path d="M523.92 92.9278C523.54 92.3778 523.27 91.4378 522.43 91.5078C521.67 91.6278 521.43 92.0378 521.43 92.0378C521.88 91.8578 522.93 92.2378 522.93 92.2378C523.35 94.7078 525.46 94.4778 525.35 92.8578C525.31 93.5078 524.42 93.6578 523.92 92.9278Z" fill="#69DDAE"/>
<path d="M519.22 96.6678C517.65 95.9778 516.35 97.2378 515.76 96.4478C515.55 96.2178 515.6 95.9178 515.7 95.7478C515.47 95.9478 515.37 96.1178 515.31 96.4178C515.31 96.4178 515.08 97.6178 516.32 97.6678C517.56 97.7178 518 96.9678 519.26 97.5878C520.52 98.2078 522.71 98.0178 522.77 95.7178C522.13 97.2278 520.7 97.2978 519.22 96.6678Z" fill="#69DDAE"/>
<path d="M515.25 89.6979C515.16 88.6479 515.46 87.9279 515.8 87.3479C515.47 87.7179 515.15 88.0779 514.94 88.6279C513.72 91.1479 518.32 94.8079 518.7 95.1379C518.79 95.1979 515.51 91.8579 515.25 89.6979Z" fill="#69DDAE"/>
<path d="M522.769 95.7178C522.719 95.7978 522.629 95.7478 522.679 95.6678C522.189 94.7178 520.429 94.1478 520.429 94.1478C520.339 94.0978 520.339 94.0978 520.389 94.0178C520.439 93.9378 520.439 93.9378 520.529 93.9878C520.529 93.9878 521.009 94.1578 521.529 94.4578C522.219 94.8578 522.699 95.2378 522.949 95.6078C522.819 95.6278 522.769 95.7178 522.769 95.7178Z" fill="#3CAF8E"/>
<path d="M510.35 115.238L509.68 115.188L511.92 118.928L512.26 118.348L510.35 115.238Z" fill="white"/>
<path d="M513.019 117.218L514.079 115.388L510.789 115.268L512.399 118.088L512.739 117.508L511.829 115.868L513.069 115.918L512.679 116.588L513.019 117.218Z" fill="white"/>
<path d="M509.77 115.238L512.01 118.978L512.299 118.478L510.44 115.288L509.77 115.238Z" fill="#BCBCCC"/>
<path d="M513.019 117.218L514.079 115.388L510.789 115.268L512.399 118.088L512.739 117.508L511.829 115.868L513.069 115.918L512.679 116.588L513.019 117.218Z" fill="#BCBCCC"/>
<path d="M509.859 115.288L511.969 118.848L512.209 118.428L510.439 115.288H509.859Z" fill="white"/>
<path d="M512.449 118.008L510.879 115.318L513.939 115.418L512.979 117.088L512.689 116.588L513.119 115.838L511.739 115.818L512.729 117.508L512.449 118.008Z" fill="white"/>
<path d="M504.918 143.688C504.918 143.688 500.418 142.868 497.468 143.168C494.518 143.468 493.578 145.708 494.478 146.558C495.378 147.408 497.458 146.608 497.528 144.878C497.528 144.878 500.418 144.878 502.728 146.098C502.728 146.098 497.668 146.848 497.168 149.118C496.708 151.518 499.798 151.978 499.158 149.268C499.158 149.268 500.318 148.268 502.298 148.638C504.288 149.008 506.098 150.278 506.738 148.758C506.878 148.508 506.848 148.158 506.868 147.718C506.868 147.718 506.868 147.718 506.918 147.638C507.188 147.568 507.558 147.338 507.708 146.868C507.968 146.018 507.368 145.448 507.078 143.948C507.198 143.128 507.548 142.328 508.018 141.708C509.448 139.848 503.638 140.288 504.918 143.688Z" fill="#75F1C1"/>
<path d="M505.43 142.208C504.87 143.778 505.59 144.748 505.59 144.748C505.59 144.748 502.69 143.958 499.23 143.738C495.77 143.518 494.23 145.188 495.03 146.208C495.28 146.578 495.54 146.728 495.9 146.708C496.71 146.508 497.5 145.738 497.5 144.738C497.5 144.738 500.39 144.738 502.7 145.958C502.7 145.958 502.61 145.908 502.48 145.938L502.57 145.988C502.57 145.988 498.71 146.868 497.78 148.668C497.35 149.418 497.32 150.068 497.39 150.548C498.02 151.468 499.59 151.148 499.1 149.198C499.1 149.198 500.26 148.198 502.24 148.568C503.92 148.868 505.39 149.718 506.26 149.218C506.78 148.518 506.33 147.698 506.93 147.048C507.39 146.648 507.21 145.758 507.11 144.928C507.03 144.658 506.96 144.398 506.84 143.998C506.91 143.478 507.11 142.928 507.35 142.508C508.2 140.798 506.07 140.688 505.43 142.208Z" fill="#69DDAE"/>
<path opacity="0.15" d="M504.559 111.448C504.459 111.618 504.239 111.598 504.069 111.498L502.249 110.448C501.579 111.618 500.789 112.378 500.389 112.268L501.689 113.018C501.239 114.198 501.099 115.238 501.249 115.988C501.479 115.788 501.559 116.058 501.599 116.188C501.449 115.658 501.479 114.788 501.839 113.768C501.439 114.868 501.399 115.738 501.639 116.318C501.639 116.318 501.559 115.048 502.689 113.698C503.609 114.118 504.239 112.818 504.149 112.768C504.059 112.718 503.559 112.988 504.119 112.418C504.399 112.138 504.639 111.718 504.749 111.338C504.649 111.278 504.599 111.358 504.559 111.448ZM501.839 113.548L501.789 113.628L501.839 113.548ZM501.939 113.158C501.889 113.238 501.799 113.408 501.829 113.538C501.889 113.458 501.899 113.248 501.939 113.158Z" fill="#73737F"/>
<path opacity="0.15" d="M513.918 122.078C514.358 122.108 514.728 121.878 514.878 121.408C514.898 120.978 514.648 120.608 514.168 120.438C513.728 120.408 513.358 120.638 513.208 121.108C513.188 121.548 513.468 122.048 513.918 122.078Z" fill="#73737F"/>
<path d="M513.968 121.998C514.408 122.028 514.778 121.798 514.878 121.418C514.988 121.038 514.648 120.618 514.248 120.498C513.808 120.468 513.438 120.698 513.328 121.078C513.228 121.458 513.518 121.958 513.968 121.998Z" fill="#EDEDF4"/>
<g opacity="0.15">
<path opacity="0.15" d="M514.609 121.478C514.519 121.428 514.479 121.298 514.479 121.298C514.429 121.378 514.429 121.378 514.379 121.468C514.239 121.718 513.829 121.818 513.569 121.668C513.399 121.568 513.359 121.438 513.319 121.298L513.309 121.518L513.219 121.468C513.259 121.598 513.379 121.788 513.559 121.888C513.909 122.088 514.399 122.038 514.639 121.618C514.739 121.448 514.699 121.318 514.789 121.148C514.789 121.368 514.699 121.528 514.609 121.478Z" fill="#73737F"/>
</g>
<path d="M513.888 121.728C514.198 121.798 514.428 121.598 514.488 121.298C514.548 120.998 514.338 120.758 514.028 120.698C513.718 120.628 513.488 120.828 513.428 121.128C513.368 121.428 513.578 121.658 513.888 121.728Z" fill="white"/>
<path d="M513.8 121.678C514.11 121.748 514.34 121.548 514.4 121.248C514.46 120.948 514.25 120.718 513.94 120.648C513.63 120.578 513.4 120.778 513.34 121.078C513.42 121.348 513.58 121.658 513.8 121.678Z" fill="#57DCEA"/>
<path d="M513.8 121.678C514.11 121.748 514.34 121.548 514.4 121.248C514.46 120.948 514.25 120.718 513.94 120.648C513.63 120.578 513.4 120.778 513.34 121.078C513.42 121.348 513.58 121.658 513.8 121.678Z" fill="#BCBCCC"/>
<path d="M513.939 121.648C514.159 121.668 514.479 121.518 514.489 121.298C514.499 121.078 514.339 120.758 514.109 120.748C513.889 120.728 513.569 120.878 513.559 121.098C513.499 121.398 513.719 121.628 513.939 121.648Z" fill="#F2F2F2"/>
<path d="M513.899 121.508C514.119 121.528 514.309 121.408 514.309 121.188C514.319 120.968 514.199 120.788 513.969 120.768C513.749 120.748 513.569 120.868 513.559 121.088C513.549 121.308 513.679 121.498 513.899 121.508Z" fill="white"/>
<path opacity="0.54" d="M514.008 120.908C514.098 120.958 514.048 121.038 513.948 121.208C513.848 121.378 513.718 121.408 513.628 121.358C513.538 121.308 513.548 121.088 513.598 121.008C513.838 120.808 513.978 120.778 514.008 120.908Z" fill="white"/>
<path opacity="0.54" d="M514.118 121.528C514.028 121.478 514.078 121.398 514.168 121.448C514.218 121.368 514.218 121.368 514.308 121.418C514.398 121.468 514.348 121.548 514.298 121.638C514.258 121.498 514.208 121.578 514.118 121.528Z" fill="white"/>
<path opacity="0.15" d="M515.058 124.518C515.368 124.588 515.598 124.388 515.658 124.088C515.718 123.788 515.508 123.558 515.198 123.488C514.888 123.418 514.658 123.618 514.598 123.918C514.538 124.218 514.748 124.448 515.058 124.518Z" fill="#73737F"/>
<path d="M514.968 124.468C515.188 124.488 515.508 124.338 515.518 124.118C515.528 123.898 515.358 123.588 515.138 123.568C514.918 123.548 514.598 123.698 514.588 123.918C514.578 124.128 514.748 124.448 514.968 124.468Z" fill="#EDEDF4"/>
<g opacity="0.15">
<path opacity="0.15" d="M515.378 124.148C515.288 124.098 515.338 124.018 515.338 124.018L515.378 124.148C515.148 124.348 515.008 124.378 514.838 124.278C514.748 124.228 514.668 124.178 514.628 124.048C514.628 124.048 514.668 124.178 514.578 124.128C514.578 124.128 514.578 124.128 514.488 124.078C514.528 124.208 514.608 124.258 514.698 124.308C514.968 124.468 515.238 124.398 515.378 124.148C515.428 124.068 515.478 123.978 515.438 123.848C515.568 124.038 515.468 124.198 515.378 124.148Z" fill="#73737F"/>
</g>
<path opacity="0.15" d="M514.778 123.798C514.678 123.968 514.718 124.098 514.898 124.198C514.808 124.148 514.768 124.018 514.778 123.798C514.908 123.768 515.048 123.728 515.218 123.828C515.388 123.928 515.428 124.058 515.338 124.228C515.438 124.058 515.398 123.928 515.218 123.828C515.008 123.598 514.868 123.628 514.778 123.798Z" fill="#73737F"/>
<path d="M524.279 114.938L516.939 116.038L524.279 114.938Z" fill="#EDEDF4"/>
<path opacity="0.15" d="M517.039 116.878C517.479 116.908 517.849 116.678 517.999 116.208C518.019 115.778 517.769 115.408 517.289 115.238C516.849 115.208 516.479 115.438 516.329 115.908C516.309 116.338 516.639 116.758 517.039 116.878Z" fill="#73737F"/>
<path d="M516.998 116.738C517.438 116.768 517.808 116.538 517.918 116.158C517.938 115.728 517.688 115.358 517.288 115.238C516.848 115.208 516.478 115.438 516.368 115.818C516.348 116.258 516.598 116.628 516.998 116.738Z" fill="#EDEDF4"/>
<g opacity="0.15">
<path opacity="0.15" d="M517.73 116.278C517.64 116.228 517.61 116.098 517.61 116.098C517.56 116.178 517.56 116.178 517.51 116.268C517.37 116.518 516.96 116.618 516.7 116.468C516.53 116.368 516.49 116.238 516.45 116.098L516.44 116.318L516.35 116.268C516.39 116.398 516.51 116.588 516.69 116.688C517.04 116.888 517.53 116.838 517.77 116.418C517.87 116.248 517.83 116.118 517.92 115.948C517.91 116.158 517.82 116.328 517.73 116.278Z" fill="#73737F"/>
</g>
<path d="M516.919 116.468C517.229 116.538 517.459 116.338 517.519 116.038C517.579 115.738 517.369 115.508 517.059 115.438C516.749 115.368 516.519 115.568 516.459 115.868C516.449 116.088 516.699 116.458 516.919 116.468Z" fill="white"/>
<path d="M516.968 116.388C517.278 116.458 517.508 116.258 517.568 115.958C517.628 115.658 517.418 115.428 517.108 115.358C516.798 115.288 516.568 115.488 516.508 115.788C516.538 116.138 516.748 116.368 516.968 116.388Z" fill="#57DCEA"/>
<path d="M516.968 116.388C517.278 116.458 517.508 116.258 517.568 115.958C517.628 115.658 517.418 115.428 517.108 115.358C516.798 115.288 516.568 115.488 516.508 115.788C516.538 116.138 516.748 116.368 516.968 116.388Z" fill="#BCBCCC"/>
<path d="M517.058 116.438C517.278 116.458 517.598 116.308 517.608 116.088C517.618 115.868 517.458 115.558 517.228 115.538C516.998 115.518 516.688 115.668 516.678 115.888C516.618 116.188 516.748 116.368 517.058 116.438Z" fill="#F2F2F2"/>
<path d="M517.018 116.308C517.238 116.328 517.418 116.208 517.428 115.988C517.438 115.768 517.308 115.588 517.088 115.568C516.868 115.548 516.688 115.668 516.678 115.888C516.668 116.108 516.798 116.288 517.018 116.308Z" fill="white"/>
<path opacity="0.54" d="M517.178 115.618C517.268 115.668 517.218 115.748 517.118 115.918C517.018 116.088 516.888 116.118 516.798 116.068C516.708 116.018 516.718 115.798 516.768 115.718C516.868 115.558 517.098 115.568 517.178 115.618Z" fill="white"/>
<path opacity="0.54" d="M517.239 116.328C517.149 116.278 517.199 116.198 517.289 116.248C517.339 116.168 517.339 116.168 517.429 116.218C517.519 116.268 517.469 116.348 517.419 116.438C517.379 116.288 517.329 116.378 517.239 116.328Z" fill="white"/>
<path opacity="0.15" d="M520.009 116.138C520.319 116.208 520.549 116.008 520.609 115.708C520.669 115.408 520.459 115.168 520.149 115.108C519.839 115.038 519.609 115.238 519.549 115.538C519.569 115.888 519.699 116.078 520.009 116.138Z" fill="#73737F"/>
<path d="M520.008 116.138C520.228 116.158 520.548 116.008 520.558 115.788C520.568 115.568 520.398 115.258 520.178 115.238C519.958 115.218 519.638 115.368 519.628 115.588C519.528 115.758 519.698 116.078 520.008 116.138Z" fill="#EDEDF4"/>
<g opacity="0.15">
<path opacity="0.15" d="M520.419 115.828C520.329 115.778 520.379 115.698 520.379 115.698C520.379 115.698 520.329 115.778 520.419 115.828C520.189 116.028 520.049 116.058 519.879 115.958C519.789 115.908 519.709 115.858 519.669 115.728C519.669 115.728 519.709 115.858 519.619 115.808C519.619 115.808 519.619 115.808 519.529 115.758C519.569 115.888 519.649 115.938 519.739 115.988C520.009 116.138 520.279 116.078 520.419 115.828C520.469 115.748 520.519 115.658 520.479 115.528C520.519 115.658 520.419 115.828 520.419 115.828Z" fill="#73737F"/>
</g>
<path opacity="0.15" d="M519.729 115.418C519.629 115.588 519.669 115.718 519.849 115.818C519.759 115.778 519.719 115.638 519.729 115.418C519.869 115.388 519.999 115.348 520.169 115.448C520.339 115.548 520.379 115.678 520.289 115.848C520.389 115.678 520.349 115.548 520.169 115.448C520.039 115.268 519.819 115.258 519.729 115.418Z" fill="#73737F"/>
<path opacity="0.15" d="M506.839 123.108L502.439 120.898C502.439 120.898 502.349 120.848 502.299 120.928C502.299 120.928 502.249 121.008 502.339 121.058L505.819 122.848C505.029 122.618 504.529 122.878 504.529 122.878L504.479 122.958L504.569 123.008C504.569 123.008 505.249 122.628 506.599 123.298L506.689 123.348C506.689 123.348 506.779 123.398 506.829 123.318C506.879 123.248 506.929 123.158 506.839 123.108Z" fill="#73737F"/>
<path d="M509.479 144.208L513.129 137.088C513.129 137.088 513.419 136.588 513.579 135.908C513.689 135.308 513.779 134.358 513.379 133.458C512.469 131.818 507.779 124.328 507.689 124.278C507.779 124.328 512.469 131.828 513.379 133.458C513.669 133.958 513.899 134.758 513.579 135.908C513.419 136.588 513.129 137.088 513.129 137.088L509.479 144.208Z" fill="#EDEDF4"/>
<path d="M499.719 119.218L499.859 119.188C499.949 119.238 499.999 119.158 500.039 119.068L500.299 118.218C500.349 118.138 500.259 118.088 500.179 118.038L500.089 117.988C499.999 117.938 499.869 117.968 499.819 118.058L499.469 118.858C499.549 119.118 499.589 119.248 499.719 119.218Z" fill="#EDEDF4"/>
<path d="M508.599 104.438L508.639 104.568C508.729 104.618 508.679 104.698 508.629 104.788L508.069 105.358C508.019 105.438 507.939 105.388 507.849 105.338L507.759 105.288C507.669 105.238 507.639 105.108 507.679 105.018L508.289 104.368C508.339 104.288 508.559 104.298 508.599 104.438Z" fill="#EDEDF4"/>
<path d="M529.109 118.398L529.789 119.018L527.059 123.558L526.329 123.028L525.459 124.528L524.589 126.028L525.419 126.398L522.679 130.938L521.799 130.658L521.609 130.988L522.529 131.408L523.139 131.758C523.229 131.808 523.269 131.728 523.269 131.728L526.869 125.688L527.009 125.438L530.659 119.318C530.709 119.238 530.619 119.188 530.619 119.188L530.009 118.838L529.239 118.168L529.109 118.398Z" fill="#EDEDF4"/>
<path d="M526.888 123.458L526.418 123.068L526.888 123.458Z" fill="#D5D5E0"/>
<path d="M529.899 118.628L530.509 118.978C530.599 119.028 530.549 119.108 530.549 119.108L526.949 125.148L526.809 125.398L523.209 131.438C523.159 131.518 523.069 131.468 523.069 131.468L522.459 131.118L521.719 130.798L522.639 131.218L523.249 131.568C523.339 131.618 523.379 131.538 523.379 131.538L526.979 125.498L527.119 125.248L530.669 119.288C530.719 119.208 530.629 119.158 530.629 119.158L530.019 118.808L529.249 118.138L529.899 118.628Z" fill="#D5D5E0"/>
<path d="M525.25 126.288L524.59 126.018L525.25 126.288Z" fill="#D5D5E0"/>
<path d="M527.1 123.688L529.83 119.148L529.15 118.528L529.34 118.198L529.25 118.148L529.06 118.478L529.74 119.098L527.1 123.688Z" fill="white"/>
<path d="M521.899 130.698L522.779 130.978L525.509 126.438L525.419 126.388L522.679 130.928L521.899 130.698L521.619 130.978L521.709 131.028L521.899 130.698Z" fill="white"/>
<path d="M525.55 124.568L526.42 123.068L526.33 123.018L525.55 124.568L524.6 126.018L524.69 126.068L525.55 124.568Z" fill="white"/>
<path d="M553.939 137.518C553.939 137.518 553.849 137.468 553.939 137.518C553.849 137.468 553.899 137.388 553.379 137.088C553.119 136.938 552.809 136.868 552.809 136.868C552.809 136.868 553.069 137.018 553.379 137.088C553.949 137.308 553.989 137.438 553.939 137.518Z" fill="#8F8F99"/>
<path opacity="0.19" d="M528.409 83.7378L518.279 103.698C518.229 103.778 518.099 103.818 518.009 103.768L497.939 91.8378C497.849 91.7878 497.819 91.6578 497.859 91.5678L509.899 72.7178C509.949 72.6378 510.079 72.5978 510.169 72.6478L528.249 83.4178C528.419 83.5178 528.459 83.6478 528.409 83.7378Z" fill="white"/>
<path opacity="0.27" d="M510.429 72.7878L498.199 91.9778L497.939 91.8278C497.849 91.7778 497.819 91.6478 497.859 91.5578L509.899 72.7078C509.949 72.6278 510.079 72.5878 510.169 72.6378L510.429 72.7878Z" fill="white"/>
<path opacity="0.05" d="M526.359 74.8679L523.799 79.5079C523.749 79.5879 523.619 79.6279 523.439 79.5279L510.699 71.9479C510.609 71.8979 510.489 71.7179 510.539 71.6279L513.459 66.9679C513.509 66.8879 513.639 66.8479 513.819 66.9479L525.959 74.1779C526.369 74.4379 526.449 74.6979 526.359 74.8679Z" fill="white"/>
<path opacity="0.05" d="M527.669 84.4179L523.969 91.6279L505.889 80.8579L510.289 73.8379L527.509 84.0979C527.679 84.1979 527.719 84.3379 527.669 84.4179Z" fill="white"/>
<path opacity="0.05" d="M522.849 83.7478L520.819 87.4678C520.479 88.0478 519.719 88.1678 519.109 87.8178L508.529 81.4878C507.919 81.1378 507.689 80.3378 508.029 79.7478L510.419 76.0078C510.709 75.5078 511.519 75.3078 512.129 75.6578L522.229 81.6078C522.829 82.1778 523.149 83.0278 522.849 83.7478Z" fill="white"/>
<path opacity="0.29" d="M514.069 68.1078L511.829 71.5978C511.779 71.6778 511.779 71.6778 511.689 71.6278L511.599 71.5778C511.509 71.5278 511.509 71.5278 511.559 71.4478L513.799 67.9578C513.849 67.8778 513.939 67.9278 513.939 67.9278L514.029 67.9778C514.109 68.0178 514.069 68.1078 514.069 68.1078Z" fill="white"/>
<g opacity="0.46">
<path opacity="0.29" d="M514.128 69.5879L512.598 72.0379C512.598 72.0379 512.548 72.1179 512.458 72.0679C512.458 72.0679 512.368 72.0179 512.458 72.0679L513.988 69.6179C513.958 69.4879 514.048 69.5379 514.128 69.5879Z" fill="white"/>
<path opacity="0.29" d="M514.238 70.2079L512.948 72.2479C512.948 72.2479 512.898 72.3279 512.808 72.2779C512.808 72.2779 512.718 72.2279 512.808 72.2779L514.098 70.2379C514.068 70.1079 514.148 70.1579 514.238 70.2079Z" fill="white"/>
<path opacity="0.29" d="M515.118 69.4878L513.248 72.5278C513.248 72.5278 513.198 72.6078 513.108 72.5578C513.108 72.5578 513.018 72.5078 513.068 72.4278L514.938 69.3878C515.028 69.4378 515.028 69.4378 515.118 69.4878Z" fill="white"/>
<path opacity="0.29" d="M515.548 69.7378L513.678 72.7778C513.678 72.7778 513.628 72.8578 513.538 72.8078C513.538 72.8078 513.448 72.7578 513.498 72.6778L515.368 69.6378C515.378 69.6378 515.378 69.6378 515.548 69.7378C515.458 69.6878 515.548 69.7378 515.548 69.7378Z" fill="white"/>
</g>
<path opacity="0.29" d="M523.739 84.8178L521.649 88.8378C521.599 88.9178 521.599 88.9178 521.509 88.8678L521.419 88.8178C521.329 88.7678 521.379 88.6878 521.379 88.6878L523.469 84.6678C523.519 84.5878 523.519 84.5878 523.599 84.6378L523.689 84.6878C523.789 84.7278 523.739 84.8178 523.739 84.8178Z" fill="white"/>
<g opacity="0.46">
<path opacity="0.29" d="M523.799 86.5179L522.299 89.3179C522.299 89.3179 522.249 89.3979 522.159 89.3479C522.159 89.3479 522.069 89.2979 522.119 89.2179L523.619 86.4179C523.619 86.4179 523.669 86.3379 523.759 86.3879L523.799 86.5179C523.849 86.4379 523.849 86.4379 523.799 86.5179Z" fill="white"/>
<path opacity="0.29" d="M523.988 87.1879L522.728 89.5779C522.728 89.5779 522.678 89.6579 522.588 89.6079C522.588 89.6079 522.498 89.5579 522.548 89.4779L523.808 87.0879C523.808 87.0879 523.858 87.0079 523.948 87.0579L523.988 87.1879C523.898 87.1379 523.988 87.1879 523.988 87.1879Z" fill="white"/>
<path opacity="0.29" d="M524.918 86.3879L523.168 89.8279C523.168 89.8279 523.118 89.9079 523.028 89.8579C523.028 89.8579 522.938 89.8079 522.988 89.7279L524.738 86.2879C524.738 86.2879 524.788 86.2079 524.878 86.2579L524.918 86.3879C524.878 86.2479 524.918 86.3879 524.918 86.3879Z" fill="white"/>
<path opacity="0.29" d="M525.26 86.588L523.51 90.028C523.51 90.028 523.46 90.108 523.37 90.058C523.37 90.058 523.28 90.008 523.33 89.928L525.08 86.488C525.09 86.488 525.22 86.448 525.26 86.588C525.31 86.498 525.26 86.588 525.26 86.588Z" fill="white"/>
</g>
<path opacity="0.05" d="M510.458 76.3678L510.718 76.5178C510.978 76.6678 511.058 76.9378 510.908 77.1878L509.428 79.5578C509.288 79.8078 509.018 79.8778 508.758 79.7278L508.498 79.5778L508.358 79.8278C508.068 80.3278 508.258 80.9978 508.788 81.2978L519.188 87.5278C519.708 87.8278 520.388 87.6578 520.668 87.1578L522.508 83.7678C522.848 83.1878 522.618 82.3778 521.918 81.9778L511.898 76.0778C511.418 75.6978 510.738 75.8678 510.458 76.3678Z" fill="white"/>
<g opacity="0.3">
<g opacity="0.3">
<path opacity="0.3" d="M513.107 76.7778L509.938 82.0678L513.107 76.7778Z" fill="white"/>
</g>
<g opacity="0.3">
<path opacity="0.3" d="M521.728 81.8778L518.738 87.2678L521.728 81.8778Z" fill="white"/>
</g>
<g opacity="0.3">
<path opacity="0.3" d="M519.918 87.6178L508.598 80.9678L519.918 87.6178Z" fill="white"/>
</g>
<g opacity="0.3">
<path opacity="0.3" d="M520.597 86.4478L509.367 79.8478L520.597 86.4478Z" fill="white"/>
</g>
<g opacity="0.3">
<path opacity="0.3" d="M521.267 85.2778L510.127 78.7278L521.267 85.2778Z" fill="white"/>
</g>
<g opacity="0.3">
<path opacity="0.3" d="M521.857 84.0679L510.797 77.5679L521.857 84.0679Z" fill="white"/>
</g>
<g opacity="0.3">
<path opacity="0.3" d="M522.488 82.9778L511.479 76.3978L522.488 82.9778Z" fill="white"/>
</g>
</g>
<path opacity="0.19" d="M515.619 139.968L506.029 158.788C505.979 158.868 505.849 158.908 505.759 158.858L490.379 152.638C490.289 152.588 490.209 152.538 490.249 152.458L495.989 132.078C496.039 131.998 496.219 131.878 496.309 131.928L515.449 139.648C515.549 139.708 515.579 139.838 515.619 139.968Z" fill="white"/>
<path opacity="0.27" d="M496.618 131.998L490.678 152.708L490.418 152.558C490.328 152.508 490.248 152.458 490.288 152.378L496.028 131.998C496.078 131.918 496.258 131.798 496.348 131.848L496.618 131.998Z" fill="white"/>
<path opacity="0.05" d="M493.859 148.428L492.609 152.598C492.509 152.768 492.379 152.798 492.159 152.778L491.899 152.628C491.729 152.528 491.599 152.348 491.649 152.258L492.899 148.088C492.999 147.918 493.179 147.808 493.349 147.908L493.609 148.058C493.739 148.018 493.869 148.208 493.859 148.428Z" fill="white"/>
<path opacity="0.05" d="M496.129 149.288L494.709 153.358C494.609 153.528 494.479 153.558 494.259 153.538L493.999 153.388C493.829 153.288 493.699 153.108 493.749 153.018L495.089 148.898C495.189 148.728 495.369 148.618 495.539 148.718L495.799 148.868C496.019 148.888 496.089 149.158 496.129 149.288Z" fill="white"/>
<path opacity="0.05" d="M498.27 150.198L496.76 154.218C496.66 154.388 496.53 154.418 496.31 154.398L496.05 154.248C495.88 154.148 495.75 153.968 495.8 153.878L497.22 149.808C497.32 149.638 497.5 149.528 497.67 149.628L497.93 149.778C498.24 149.848 498.37 150.028 498.27 150.198Z" fill="white"/>
<path opacity="0.05" d="M500.549 151.068L498.949 155.038C498.849 155.208 498.719 155.238 498.499 155.218L498.239 155.068C498.069 154.968 497.939 154.788 497.989 154.698L499.499 150.678C499.599 150.508 499.779 150.398 499.949 150.498L500.209 150.648C500.519 150.708 500.599 150.978 500.549 151.068Z" fill="white"/>
<path opacity="0.05" d="M502.769 152.018L501.089 155.938C500.989 156.108 500.859 156.138 500.639 156.118L500.379 155.968C500.209 155.868 500.079 155.688 500.179 155.518L501.779 151.548C501.879 151.378 502.059 151.268 502.229 151.368L502.489 151.518C502.739 151.668 502.869 151.848 502.769 152.018Z" fill="white"/>
<path opacity="0.05" d="M504.908 152.918L503.088 156.878C502.988 157.048 502.858 157.078 502.638 157.058L502.378 156.908C502.208 156.808 502.078 156.628 502.128 156.538L503.948 152.578C504.048 152.408 504.228 152.298 504.488 152.448L504.748 152.598C504.928 152.488 505.008 152.748 504.908 152.918Z" fill="white"/>
<path opacity="0.05" d="M507.189 153.788L505.279 157.688C505.179 157.858 505.049 157.888 504.829 157.868L504.569 157.718C504.399 157.618 504.269 157.438 504.319 157.348L506.229 153.448C506.329 153.278 506.599 153.218 506.769 153.318L507.029 153.468C507.159 153.438 507.279 153.618 507.189 153.788Z" fill="white"/>
<path opacity="0.05" d="M515.618 139.968L512.398 146.338L494.568 139.158L496.618 131.998L515.458 139.648C515.548 139.708 515.578 139.838 515.618 139.968Z" fill="white"/>
<path opacity="0.29" d="M493.448 148.518L492.348 152.228C492.298 152.308 492.298 152.308 492.218 152.258L492.128 152.208C492.038 152.158 492.038 152.158 492.088 152.078L493.188 148.368C493.238 148.288 493.238 148.288 493.328 148.338L493.418 148.388L493.448 148.518Z" fill="white"/>
<path opacity="0.29" d="M503.258 144.958L501.608 149.008C501.558 149.088 501.558 149.088 501.468 149.038L501.378 148.988C501.288 148.938 501.288 148.938 501.338 148.858L502.988 144.798C503.038 144.718 503.038 144.718 503.118 144.768L503.208 144.818C503.218 144.818 503.308 144.868 503.258 144.958Z" fill="white"/>
<path opacity="0.29" d="M497.308 133.618L495.848 138.558C495.798 138.638 495.798 138.638 495.708 138.588L495.618 138.538C495.528 138.488 495.528 138.488 495.498 138.358L496.958 133.418C497.008 133.338 497.008 133.338 497.098 133.388L497.188 133.438C497.268 133.488 497.358 133.538 497.308 133.618Z" fill="white"/>
<path opacity="0.29" d="M494.979 142.068L493.729 146.238C493.679 146.318 493.679 146.318 493.589 146.268L493.499 146.218C493.409 146.168 493.409 146.168 493.459 146.088L494.709 141.918C494.759 141.838 494.759 141.838 494.849 141.888L494.939 141.938C494.939 141.928 495.029 141.978 494.979 142.068Z" fill="white"/>
<path opacity="0.44" d="M496.238 146.908C496.528 146.408 496.198 145.778 495.588 145.418C494.978 145.068 494.268 145.098 493.978 145.598C493.688 146.098 494.018 146.728 494.628 147.088C495.238 147.438 495.948 147.408 496.238 146.908Z" fill="white"/>
<path opacity="0.19" d="M508.509 72.1278L501.399 83.0378C501.349 83.1178 501.219 83.1578 501.129 83.1078L495.969 80.0178C495.879 79.9678 495.839 79.8378 495.889 79.7478L503.259 68.9878C503.309 68.9078 503.439 68.8678 503.529 68.9178L508.339 71.8078C508.469 71.9878 508.549 72.0378 508.509 72.1278Z" fill="white"/>
<path opacity="0.27" d="M503.738 69.1479L496.178 80.2479L495.918 80.0979C495.828 80.0479 495.788 79.9179 495.838 79.8279L503.208 69.0679C503.258 68.9879 503.388 68.9479 503.478 68.9979L503.738 69.1479Z" fill="white"/>
<path opacity="0.05" d="M504.889 71.3679L498.938 80.2779C498.888 80.3579 498.759 80.3979 498.579 80.2979L498.489 80.2479C498.399 80.1979 498.358 80.0679 498.408 79.9779L504.359 71.0679C504.409 70.9879 504.538 70.9479 504.628 70.9979L504.718 71.0479C504.948 71.0679 504.989 71.2079 504.889 71.3679Z" fill="white"/>
<path opacity="0.05" d="M506.529 72.5379L504.619 75.4379C504.519 75.6079 504.249 75.6678 503.989 75.5178L503.819 75.4178C503.649 75.3178 503.569 75.0479 503.669 74.8879L505.579 71.9878C505.679 71.8178 505.949 71.7579 506.119 71.8579L506.289 71.9579C506.549 72.1079 506.679 72.2879 506.529 72.5379Z" fill="white"/>
<path opacity="0.29" d="M505.939 72.7579L504.599 74.8779C504.549 74.9579 504.459 74.9079 504.459 74.9079L504.368 74.8579C504.278 74.8079 504.279 74.8079 504.329 74.7279L505.748 72.6579C505.798 72.5779 505.889 72.6279 505.889 72.6279L505.979 72.6779C505.949 72.5379 505.989 72.6779 505.939 72.7579Z" fill="white"/>
<path opacity="0.29" d="M499.658 77.0278L498.188 79.1778C498.138 79.2578 498.048 79.2078 498.048 79.2078L497.958 79.1578C497.868 79.1078 497.918 79.0278 497.918 79.0278L499.388 76.8778C499.438 76.7978 499.518 76.8478 499.518 76.8478L499.608 76.8978C499.618 76.8878 499.708 76.9378 499.658 77.0278Z" fill="white"/>
<path opacity="0.27" d="M503.419 73.5278L498.938 80.2878C498.888 80.3678 498.759 80.4078 498.579 80.3078L498.489 80.2578C498.399 80.2078 498.358 80.0778 498.408 79.9878L502.968 73.2778C503.018 73.1978 503.149 73.1578 503.329 73.2578L503.419 73.3078C503.429 73.3078 503.469 73.4378 503.419 73.5278Z" fill="white"/>
<g opacity="0.46">
<path opacity="0.29" d="M501.948 77.6778L500.138 80.4178C500.138 80.4178 500.088 80.4978 500.008 80.4478C500.008 80.4478 499.918 80.3978 499.968 80.3178L501.778 77.5778C501.778 77.5778 501.828 77.4978 501.918 77.5478L501.948 77.6778Z" fill="white"/>
<path opacity="0.29" d="M501.998 78.3778L500.428 80.6978C500.428 80.6978 500.378 80.7778 500.288 80.7278C500.288 80.7278 500.198 80.6778 500.248 80.5978L501.818 78.2778C501.818 78.2778 501.868 78.1978 501.958 78.2478L501.998 78.3778C502.048 78.2978 502.048 78.2978 501.998 78.3778Z" fill="white"/>
<path opacity="0.29" d="M503.058 77.5478L500.908 80.8678C500.908 80.8678 500.858 80.9478 500.778 80.8978C500.778 80.8978 500.688 80.8478 500.738 80.7678L502.888 77.4478C502.888 77.4478 502.938 77.3678 503.028 77.4178L503.058 77.5478Z" fill="white"/>
<path opacity="0.29" d="M503.497 77.7978L501.347 81.1178C501.347 81.1178 501.297 81.1978 501.207 81.1478C501.207 81.1478 501.117 81.0978 501.167 81.0178L503.317 77.6978C503.317 77.6978 503.367 77.6178 503.457 77.6678L503.497 77.7978Z" fill="white"/>
</g>
<path opacity="0.19" d="M494.969 125.038L489.539 144.478C489.479 144.778 489.209 144.848 488.899 144.778L474.519 138.028C474.349 137.928 474.219 137.748 474.229 137.528L477.709 117.068C477.769 116.768 478.089 116.618 478.349 116.768L494.769 124.588C494.909 124.558 494.979 124.828 494.969 125.038Z" fill="white"/>
<path opacity="0.27" d="M478.259 116.718C477.999 116.568 477.679 116.718 477.619 117.018L474.139 137.478C474.129 137.698 474.249 137.878 474.429 137.978L474.689 138.128L478.339 116.768L478.259 116.718Z" fill="white"/>
<path opacity="0.05" d="M475.66 137.468L481.68 140.278C481.77 140.328 481.9 140.298 481.86 140.158L483.71 131.548C483.76 131.468 483.67 131.418 483.58 131.368L477.31 128.408C477.22 128.358 477.09 128.388 477.13 128.528L475.59 137.208C475.48 137.368 475.57 137.418 475.66 137.468Z" fill="white"/>
<path opacity="0.05" d="M494.728 124.458L478.478 116.738L477.238 123.698L493.128 131.438L494.968 125.048C494.978 124.828 494.908 124.558 494.728 124.458Z" fill="white"/>
<path opacity="0.05" d="M479.148 117.788C479.058 117.738 478.928 117.768 478.968 117.908L478.018 123.368C477.968 123.448 478.058 123.498 478.148 123.548C478.238 123.598 478.368 123.568 478.328 123.428L479.278 117.968C479.318 117.888 479.228 117.838 479.148 117.788Z" fill="white"/>
<path d="M567.968 66.0978C567.968 66.0978 551.928 -1.12218 476.068 34.7078C400.218 70.5378 362.338 162.228 361.648 173.848C360.908 185.548 488.628 187.348 488.628 187.348L542.768 182.138L567.968 66.0978Z" fill="url(#paint0_radial)"/>
<path d="M552.658 217.318C552.658 217.318 582.578 117.358 572.908 67.1679C571.928 62.0479 564.968 60.6879 562.328 65.0579L489.098 186.938L545.568 229.008L552.658 217.318Z" fill="#345763"/>
<path d="M558.799 12.4279C455.989 -46.9721 354.559 128.798 354.559 128.798L553.929 246.408C553.879 246.488 656.329 68.7579 558.799 12.4279Z" fill="url(#paint1_radial)"/>
<path opacity="0.1" d="M558.629 12.3278C455.729 -47.1222 354.299 128.648 354.299 128.648L553.669 246.258C553.619 246.338 656.159 68.6578 558.629 12.3278ZM550.729 239.328L361.719 127.818C361.719 127.818 457.899 -38.8522 555.419 17.4778C647.919 70.9078 550.729 239.328 550.729 239.328Z" fill="url(#paint2_linear)"/>
<path opacity="0.1" d="M558.539 12.2778C455.639 -47.1722 354.209 128.588 354.209 128.588L553.579 246.198C553.539 246.288 656.069 68.6078 558.539 12.2778ZM550.639 239.278L361.629 127.758C361.629 127.758 395.089 69.7778 442.609 33.7278C460.949 19.1878 477.689 21.8478 480.769 33.7478C484.249 40.5378 446.179 75.0478 444.669 99.3178C443.029 123.618 505.239 118.848 529.299 92.5978C553.359 66.3478 552.439 38.6678 529.829 34.7378C508.909 31.1078 536.069 7.08784 557.919 18.9378C645.999 74.0278 550.639 239.278 550.639 239.278Z" fill="url(#paint3_linear)"/>
<path opacity="0.21" d="M507.529 200.698L545.559 229.008L552.709 217.228C552.709 217.228 573.619 147.328 574.879 95.2178C574.949 93.6978 574.429 92.1778 573.369 91.0078C572.859 90.4878 572.299 90.0578 571.729 89.8378C563.809 86.9378 522.419 163.478 507.529 200.698Z" fill="#27272D"/>
<path opacity="0.11" d="M580.629 43.3679C569.419 44.3479 547.749 108.358 524.749 161.258C501.739 214.158 432.149 146.928 417.339 124.688C402.529 102.448 425.869 67.2079 425.869 67.2079L374.389 115.118C374.389 115.118 374.099 117.618 373.609 121.678L518.939 207.408C528.299 203.028 539.949 201.078 552.079 207.308C581.129 222.308 591.829 42.3879 580.629 43.3679Z" fill="#27272D"/>
<path d="M274.309 258.268L359.239 115.218C365.459 104.658 412.329 109.128 462.539 134.208L463.899 139.278L491.959 155.958L496.489 154.288C542.859 186.428 569.379 225.768 563.069 236.288L562.979 236.238L478.049 379.288C467.879 396.488 384.059 537.208 384.059 537.208L180.369 416.098C180.319 416.188 264.139 275.468 274.309 258.268Z" fill="#F5F5F7"/>
<path d="M347.039 367.718L347.359 367.788C254.839 312.798 285.899 264.128 285.899 264.128L377.549 109.848C397.009 109.908 429.089 117.378 462.539 134.198L463.899 139.268L491.959 155.948L496.489 154.278C527.489 175.758 549.669 200.578 559.019 217.758L467.369 372.038C467.319 372.128 439.469 422.658 347.039 367.718Z" fill="white"/>
<path d="M510.929 324.168C514.729 317.798 507.669 305.508 491.039 289.608C474.419 273.708 450.329 256.098 423.069 239.878C395.899 223.708 368.799 210.918 346.889 203.968C324.979 197.018 310.789 196.678 307.049 202.958L307.229 203.058C314.929 190.138 366.839 206.688 422.879 239.998C450.049 256.168 474.229 273.818 490.759 289.678C498.789 297.408 504.689 304.268 508.079 310.148C511.639 316.128 512.519 320.798 510.569 323.958L510.929 324.168Z" fill="#C9C9D6"/>
<path d="M385.679 220.418L385.819 220.378L442.319 125.138C442.369 125.048 442.279 124.998 442.279 124.998C442.189 124.948 442.139 125.038 442.139 125.038L385.639 220.278C385.639 220.278 385.589 220.368 385.679 220.418Z" fill="#C9C9D6"/>
<path d="M463.848 139.358L491.908 156.038L496.438 154.368C496.528 154.418 496.708 154.518 496.798 154.578L390.978 332.788C385.428 342.198 373.298 345.298 363.898 339.748C354.498 334.198 351.398 322.058 356.938 312.658L462.598 134.718L463.848 139.358Z" fill="#D5D5E0"/>
<path d="M393.149 321.198C393.149 321.198 395.729 315.908 397.959 316.368C400.189 316.828 393.429 327.308 389.789 333.418C386.149 339.518 374.449 345.378 363.889 339.158L358.879 327.228L393.149 321.198Z" fill="#E6E6EF"/>
<path d="M366.068 305.078C366.068 305.078 369.448 300.248 368.028 298.598C366.608 296.948 360.638 307.898 356.998 313.998C353.358 320.098 353.768 333.188 364.328 339.408L377.228 338.058L366.068 305.078Z" fill="#E6E6EF"/>
<path d="M373.758 323.078C387.478 331.238 396.988 315.798 396.988 315.798L491.968 155.948L463.818 139.208L370.728 296.808C370.718 296.818 356.968 313.028 373.758 323.078Z" fill="#E6E6EF"/>
<path d="M365.698 336.628C357.988 332.058 355.968 321.138 361.208 312.268L453.268 157.278C457.838 149.568 467.818 146.888 475.528 151.458C475.618 151.508 475.618 151.508 475.708 151.558C475.798 151.608 475.798 151.608 475.888 151.658C483.598 156.228 486.038 166.208 481.468 173.918L389.408 328.908C383.998 337.678 373.408 341.198 365.698 336.628Z" fill="url(#paint4_radial)"/>
<path d="M474.769 152.568C474.859 152.618 474.859 152.618 474.949 152.668C475.039 152.718 475.039 152.718 475.129 152.768C482.749 157.288 485.189 167.268 480.679 174.888L389.099 328.848C383.859 337.718 373.379 341.058 365.759 336.538C373.379 341.058 383.779 337.668 388.959 328.888L479.889 175.858C484.409 168.238 481.999 158.398 474.379 153.878C474.289 153.828 474.289 153.828 474.199 153.778C474.109 153.728 474.109 153.728 474.019 153.678C466.489 149.208 456.699 151.758 452.089 159.328L361.159 312.358C355.969 321.138 357.959 331.918 365.569 336.438C357.859 331.868 355.929 320.998 361.119 312.218L452.609 158.208C457.219 150.638 467.149 148.048 474.769 152.568Z" fill="#04B2C4"/>
<path opacity="0.4" d="M369.249 330.468C364.489 327.598 363.319 320.978 366.459 315.528L457.179 162.858C460.049 158.088 466.099 156.468 470.769 159.288L470.859 159.338L470.949 159.388C475.619 162.208 477.099 168.298 474.379 173.028L383.749 325.748C380.459 331.238 374.019 333.338 369.249 330.468Z" fill="url(#paint5_radial)"/>
<path opacity="0.44" d="M474.768 152.568L366.238 335.278" stroke="#A9FBFF" stroke-width="0.2285" stroke-miterlimit="10"/>
<path opacity="0.44" d="M390.218 326.288L362.598 309.858" stroke="#A9FBFF" stroke-width="0.2285" stroke-miterlimit="10"/>
<path opacity="0.44" d="M395.349 317.588L367.729 301.158" stroke="#A9FBFF" stroke-width="0.2285" stroke-miterlimit="10"/>
<path opacity="0.44" d="M400.569 308.948L372.959 292.518" stroke="#A9FBFF" stroke-width="0.2285" stroke-miterlimit="10"/>
<path opacity="0.44" d="M405.71 300.258L378.09 283.828" stroke="#A9FBFF" stroke-width="0.2285" stroke-miterlimit="10"/>
<path opacity="0.44" d="M410.899 291.478L383.229 275.138" stroke="#A9FBFF" stroke-width="0.2285" stroke-miterlimit="10"/>
<path opacity="0.44" d="M416.028 282.788L388.408 266.358" stroke="#A9FBFF" stroke-width="0.2285" stroke-miterlimit="10"/>
<path opacity="0.44" d="M421.169 274.098L393.549 257.668" stroke="#A9FBFF" stroke-width="0.2285" stroke-miterlimit="10"/>
<path opacity="0.44" d="M426.39 265.458L398.77 249.028" stroke="#A9FBFF" stroke-width="0.2285" stroke-miterlimit="10"/>
<path opacity="0.44" d="M431.518 256.768L403.898 240.338" stroke="#A9FBFF" stroke-width="0.2285" stroke-miterlimit="10"/>
<path opacity="0.44" d="M436.71 247.988L409.09 231.558" stroke="#A9FBFF" stroke-width="0.2285" stroke-miterlimit="10"/>
<path opacity="0.44" d="M441.839 239.298L414.219 222.868" stroke="#A9FBFF" stroke-width="0.2285" stroke-miterlimit="10"/>
<path opacity="0.44" d="M447.069 230.658L419.449 214.228" stroke="#A9FBFF" stroke-width="0.2285" stroke-miterlimit="10"/>
<path opacity="0.44" d="M452.198 221.968L424.578 205.538" stroke="#A9FBFF" stroke-width="0.2285" stroke-miterlimit="10"/>
<path opacity="0.44" d="M457.39 213.188L429.77 196.758" stroke="#A9FBFF" stroke-width="0.2285" stroke-miterlimit="10"/>
<path opacity="0.44" d="M462.518 204.488L434.898 188.058" stroke="#A9FBFF" stroke-width="0.2285" stroke-miterlimit="10"/>
<path opacity="0.44" d="M467.659 195.798L440.039 179.368" stroke="#A9FBFF" stroke-width="0.2285" stroke-miterlimit="10"/>
<path opacity="0.44" d="M472.878 187.158L445.258 170.728" stroke="#A9FBFF" stroke-width="0.2285" stroke-miterlimit="10"/>
<path opacity="0.44" d="M478.069 178.378L450.449 161.948" stroke="#A9FBFF" stroke-width="0.2285" stroke-miterlimit="10"/>
<path opacity="0.44" d="M483.2 169.688L455.59 153.258" stroke="#A9FBFF" stroke-width="0.2285" stroke-miterlimit="10"/>
<path opacity="0.44" d="M385.028 335.068L357.408 318.638" stroke="#A9FBFF" stroke-width="0.2285" stroke-miterlimit="10"/>
<path opacity="0.44" d="M478.069 178.378L450.449 161.948" stroke="#A9FBFF" stroke-width="0.2285" stroke-miterlimit="10"/>
<path d="M471.089 190.888L448.659 164.848L439.469 180.358L461.019 207.078L471.089 190.888Z" fill="url(#paint6_radial)"/>
<path d="M403.258 304.918L381.188 279.088L372.008 294.588L393.118 321.058L403.258 304.918Z" fill="url(#paint7_radial)"/>
<path d="M456.519 215.298L434.089 189.258L432.289 192.378L453.839 219.098L456.519 215.298Z" fill="url(#paint8_radial)"/>
<path d="M365.79 336.678C365.7 336.628 365.7 336.628 365.61 336.578C365.52 336.528 365.52 336.528 365.43 336.478C357.72 331.908 355.279 321.928 359.849 314.218L451.91 159.228C456.99 150.628 467.12 147.078 474.77 151.138C467.34 147.318 457.539 150.708 452.619 159.038L360.77 313.668C356.31 321.198 358.679 330.898 366.119 335.308C366.209 335.358 366.21 335.358 366.3 335.408C366.39 335.458 366.39 335.458 366.48 335.508C373.92 339.928 383.57 337.408 388.04 329.878L479.89 175.248C484.82 166.908 483.13 156.658 476.21 151.948C483.39 156.808 485.07 167.298 479.99 175.898L387.909 330.898C383.479 338.568 373.5 341.248 365.79 336.678Z" fill="#E6E6EF"/>
<path d="M394.318 319.378L480.278 174.548C484.738 167.018 482.368 157.318 474.928 152.908C474.838 152.858 474.838 152.858 474.748 152.808C474.658 152.758 474.658 152.758 474.568 152.708C467.128 148.288 457.478 150.808 453.008 158.338L367.818 301.828C367.778 301.688 368.428 300.158 368.338 300.108L453.218 157.148C457.788 149.438 467.768 146.758 475.478 151.328C475.568 151.378 475.568 151.378 475.658 151.428C475.748 151.478 475.748 151.478 475.838 151.528C483.548 156.098 485.988 166.078 481.418 173.788L396.348 317.098C396.028 317.038 394.408 319.428 394.318 319.378Z" fill="#D5D5E0"/>
<path d="M405.768 230.118L405.488 230.188L407.318 235.048L407.598 234.968L405.768 230.118Z" fill="#C9C9D6"/>
<path d="M363.238 336.158L367.288 338.618L368.218 337.008L364.168 334.548L363.238 336.158Z" fill="#E6E6EF"/>
<path d="M385.259 225.878C388.179 226.378 391.029 224.328 391.439 221.358C391.939 218.438 389.889 215.588 386.919 215.178C383.999 214.678 381.149 216.728 380.739 219.698C380.329 222.678 382.339 225.388 385.259 225.878Z" fill="#F5F5F7"/>
<path d="M384.409 215.398C383.689 215.818 383.009 216.378 382.549 217.178C381.209 219.498 381.909 222.398 384.229 223.738C386.549 225.078 389.449 224.378 390.789 222.058C391.249 221.258 391.539 220.348 391.449 219.468C391.699 220.688 391.439 221.958 390.769 223.118C389.279 225.708 385.949 226.518 383.369 225.028C380.789 223.538 379.969 220.208 381.459 217.618C382.169 216.608 383.239 215.788 384.409 215.398Z" fill="#D9D9E2"/>
<path d="M385.949 223.658C388.009 224.018 389.889 222.608 390.239 220.548C390.589 218.488 389.179 216.608 387.129 216.258C385.079 215.908 383.189 217.318 382.839 219.368C382.539 221.338 383.889 223.308 385.949 223.658Z" fill="white"/>
<path d="M385.958 223.428C387.928 223.728 389.758 222.408 390.058 220.448C390.358 218.478 389.038 216.648 387.078 216.348C385.118 216.048 383.278 217.368 382.978 219.328C382.678 221.298 383.998 223.128 385.958 223.428Z" fill="#57DCEA"/>
<path d="M385.958 223.428C387.928 223.728 389.758 222.408 390.058 220.448C390.358 218.478 389.038 216.648 387.078 216.348C385.118 216.048 383.278 217.368 382.978 219.328C382.678 221.298 383.998 223.128 385.958 223.428Z" fill="#C8C8CE"/>
<path d="M385.869 223.378C387.609 223.668 389.249 222.478 389.539 220.738C389.829 218.998 388.639 217.358 386.899 217.068C385.159 216.778 383.519 217.968 383.229 219.708C382.939 221.448 384.139 223.088 385.869 223.378Z" fill="#D9D9DD"/>
<path d="M386.158 222.478C387.578 222.698 388.828 221.758 389.138 220.398C389.358 218.978 388.418 217.728 387.058 217.408C385.638 217.188 384.388 218.128 384.078 219.488C383.758 220.858 384.738 222.248 386.158 222.478Z" fill="#F2F2F2"/>
<path d="M384.888 218.288C384.568 219.048 385.368 219.518 386.308 219.938C387.388 220.328 388.208 220.558 388.578 219.708C388.898 218.948 388.318 217.888 387.328 217.558C386.248 217.168 385.208 217.528 384.888 218.288Z" fill="white"/>
<path d="M386.369 222.718C386.489 222.308 386.129 222.098 385.629 221.938C385.129 221.768 384.729 221.648 384.609 222.058C384.489 222.468 384.749 222.848 385.189 223.108C385.839 223.238 386.259 223.128 386.369 222.718Z" fill="white"/>
<path d="M439.939 250.208L434.899 251.108L434.889 251.338L439.929 250.438L439.939 250.208Z" fill="#C9C9D6"/>
<path d="M372.818 347.158C391.268 350.208 408.639 337.628 411.679 319.168C414.719 300.708 402.158 283.338 383.698 280.288C365.238 277.238 347.878 289.818 344.838 308.278C341.798 326.748 354.358 344.118 372.818 347.158Z" fill="#F5F5F7"/>
<path d="M374.289 344.208C392.019 347.068 408.699 335.058 411.509 317.408C414.369 299.678 402.369 282.988 384.729 280.168C366.999 277.308 350.319 289.318 347.509 306.968C344.549 324.648 356.559 341.338 374.289 344.208Z" fill="white"/>
<path d="M375.218 339.508C390.288 342.028 404.428 331.758 406.938 316.678C409.458 301.598 399.188 287.458 384.118 284.938C369.048 282.418 354.918 292.688 352.388 307.768C349.868 322.848 360.138 336.988 375.218 339.508Z" fill="#E6E6EF"/>
<path d="M374.728 339.108C388.438 341.318 401.398 332.038 403.658 318.228C405.868 304.518 396.588 291.548 382.788 289.278C369.078 287.068 356.118 296.348 353.858 310.158C351.658 323.878 360.938 336.848 374.728 339.108Z" fill="url(#paint9_radial)"/>
<path d="M374.129 338.288C387.059 340.398 399.309 331.538 401.419 318.608C403.529 305.678 394.669 293.418 381.749 291.308C368.819 289.198 356.569 298.058 354.459 310.988C352.439 323.968 361.209 336.168 374.129 338.288Z" fill="url(#paint10_radial)"/>
<path d="M375.559 333.758C386.339 335.468 396.469 328.228 398.169 317.438C399.879 306.648 392.639 296.518 381.859 294.818C371.079 293.108 360.949 300.348 359.249 311.138C357.499 321.778 364.829 331.958 375.559 333.758Z" fill="url(#paint11_radial)"/>
<path d="M367.848 302.418L369.648 310.838L361.238 312.638L363.368 322.548L374.628 320.128L377.048 331.398L386.958 329.268L385.158 320.848L393.568 319.048L388.978 297.958L367.848 302.418ZM385.128 328.098L378.208 329.578L376.118 319.808L375.798 318.308L374.298 318.638L364.528 320.728L363.048 313.808L381.178 310.008L385.128 328.098ZM391.678 317.968L384.758 319.448L382.668 309.678L382.338 308.178L380.848 308.508L371.078 310.598L369.598 303.678L387.728 299.878L391.678 317.968Z" fill="white"/>
<path d="M398.629 316.038C394.549 319.398 386.309 316.778 380.199 310.268C374.089 303.758 372.489 295.818 376.509 292.558C380.589 289.208 388.829 291.818 394.939 298.328C401.109 304.738 402.699 312.678 398.629 316.038Z" fill="url(#paint12_radial)"/>
<path d="M371.678 332.228C369.258 334.158 364.408 332.668 360.808 328.808C357.208 324.948 356.248 320.228 358.668 318.298C361.088 316.368 365.938 317.858 369.538 321.718C373.108 325.438 374.158 330.208 371.678 332.228Z" fill="url(#paint13_radial)"/>
<path d="M401.709 409.998C405.679 413.008 408.809 417.068 410.829 421.808C415.569 432.758 419.799 464.578 407.329 485.568C390.959 513.108 385.069 502.088 385.069 502.088L342.839 476.988C342.839 476.988 332.399 471.788 353.139 441.418C371.549 414.468 385.559 397.818 401.709 409.998Z" fill="white"/>
<path d="M283.678 339.688C279.138 337.658 274.018 336.848 269.018 337.288C257.148 338.278 227.248 349.918 214.828 370.818C198.458 398.358 211.018 398.238 211.018 398.238L253.248 423.338C253.248 423.338 262.808 430.048 279.498 397.228C294.048 368.278 301.998 348.128 283.678 339.688Z" fill="white"/>
<path d="M310.069 527.178L337.929 480.348L251.519 428.998L224.549 476.348L310.069 527.178Z" fill="#C9C9D6"/>
<g opacity="0.21">
<path opacity="0.21" d="M305.139 524.198L332.989 477.368L256.419 431.828L229.369 479.118L305.139 524.198Z" fill="#27272D"/>
</g>
<g opacity="0.21">
<path opacity="0.21" d="M295.378 518.448L323.238 471.618L266.128 437.678L238.898 484.868L295.378 518.448Z" fill="#27272D"/>
</g>
<path d="M311.119 525.158C316.559 515.928 301.779 497.048 278.179 482.938C254.439 468.868 230.829 464.868 225.379 474.088C219.939 483.318 234.719 502.198 258.319 516.308C282.069 530.388 305.669 534.388 311.119 525.158Z" fill="#AEAEBA"/>
<path d="M392.499 532.678C400.089 519.938 387.009 498.108 363.319 483.938C339.579 469.868 314.269 468.808 306.679 481.548C299.089 494.288 312.169 516.118 335.859 530.278C359.549 544.448 384.999 545.468 392.499 532.678Z" fill="#AEAEBA"/>
<path d="M391.408 530.858C398.748 518.558 386.118 497.588 363.408 483.998C340.558 470.438 316.168 469.438 308.828 481.738C301.498 494.038 314.118 515.008 336.828 528.598C359.688 542.148 384.078 543.158 391.408 530.858Z" fill="#747480"/>
<path d="M386.859 524.538C392.819 514.418 381.959 496.968 362.589 485.418C343.219 473.868 322.619 472.678 316.659 482.798C310.699 492.918 321.559 510.368 340.929 521.918C360.299 533.468 380.899 534.658 386.859 524.538Z" fill="#5BD9E5"/>
<path d="M266.088 457.518C273.678 444.778 260.598 422.938 236.908 408.778C213.168 394.708 187.858 393.648 180.268 406.388C172.678 419.128 185.758 440.968 209.448 455.128C233.138 469.298 258.498 470.258 266.088 457.518Z" fill="#AEAEBA"/>
<path d="M264.999 455.698C272.329 443.398 259.709 422.428 236.999 408.828C214.149 395.268 189.759 394.268 182.419 406.568C175.079 418.868 187.709 439.838 210.419 453.438C233.329 466.908 257.669 467.998 264.999 455.698Z" fill="#747480"/>
<path d="M260.449 449.378C266.409 439.258 255.549 421.808 236.179 410.258C216.809 398.708 196.209 397.518 190.249 407.638C184.289 417.758 195.149 435.208 214.519 446.758C233.799 458.258 254.399 459.448 260.449 449.378Z" fill="#5BD9E5"/>
<path d="M262.328 412.528L282.548 378.528C297.228 353.708 327.798 343.998 351.228 357.178C351.848 357.538 352.478 357.898 353.098 358.258L352.298 357.798C352.918 358.158 353.548 358.518 354.118 358.968C376.878 373.308 382.918 404.868 368.198 429.548L347.988 463.548C347.888 463.488 263.518 410.478 262.328 412.528Z" fill="#F5F5F7"/>
<path d="M270.309 417.248L291.239 381.998C306.529 356.328 334.129 343.728 353.329 354.348C353.859 354.658 354.309 354.918 354.849 355.228L354.139 354.818C354.679 355.128 355.119 355.388 355.609 355.778C373.999 367.588 376.289 397.818 360.949 423.578L340.009 458.818C339.969 458.678 271.539 415.108 270.309 417.248Z" fill="white"/>
<path d="M347.858 463.348C355.448 450.608 342.368 428.768 318.678 414.608C294.938 400.538 269.628 399.478 262.038 412.218C254.448 424.958 267.528 446.788 291.218 460.958C314.898 475.128 340.208 476.188 347.858 463.348Z" fill="#AEAEBA"/>
<path d="M346.679 461.478C354.019 449.178 341.479 428.258 318.629 414.698C295.869 401.198 271.479 400.188 264.199 412.398C256.869 424.698 269.399 445.618 292.249 459.178C314.999 472.688 339.479 473.738 346.679 461.478Z" fill="#747480"/>
<path d="M342.419 454.858C348.479 444.558 337.729 426.928 318.349 415.388C298.979 403.838 278.279 402.828 272.219 413.128C266.159 423.428 276.909 441.058 296.289 452.598C315.569 464.088 336.259 465.098 342.419 454.858Z" fill="#5BD9E5"/>
<g opacity="0.5">
<path opacity="0.5" d="M276.499 458.648C285.229 443.938 269.359 418.478 241.119 401.698C212.879 384.908 182.949 383.208 174.229 397.908C165.499 412.618 181.369 438.078 209.609 454.858C237.839 471.648 267.769 473.358 276.499 458.648Z" fill="#5BD9E5"/>
</g>
<g opacity="0.5">
<path opacity="0.5" d="M355.3 466.938C364.03 452.228 348.16 426.768 319.92 409.988C291.68 393.198 261.75 391.498 253.03 406.198C244.31 420.908 260.17 446.368 288.41 463.148C316.65 479.938 346.57 481.648 355.3 466.938Z" fill="#5BD9E5"/>
</g>
<g opacity="0.5">
<path opacity="0.5" d="M400.48 534.308C409.2 519.598 393.34 494.138 365.1 477.358C336.86 460.568 306.93 458.868 298.21 473.568C289.49 488.278 305.35 513.738 333.59 530.518C361.83 547.308 391.75 549.018 400.48 534.308Z" fill="#5BD9E5"/>
</g>
<path d="M310.449 526.318C315.529 517.718 300.439 499.368 276.749 485.208C253.009 471.138 229.709 466.598 224.619 475.198C219.539 483.798 234.629 502.148 258.319 516.308C282.069 530.388 305.369 534.918 310.449 526.318Z" fill="#AEAEBA"/>
<path d="M308.859 524.328C313.689 516.168 299.369 498.748 276.839 485.258C254.309 471.768 232.089 467.618 227.259 475.768C222.429 483.928 236.749 501.358 259.279 514.848C281.779 528.198 304.039 532.488 308.859 524.328Z" fill="#747480"/>
<path d="M304.499 507.778C305.619 509.138 306.349 510.748 306.659 512.478C306.969 514.208 306.699 515.708 305.979 516.958C301.819 523.958 282.759 520.318 263.299 508.718C243.839 497.118 231.539 482.168 235.699 475.168C236.419 473.918 237.679 472.978 239.329 472.388C240.979 471.798 242.829 471.678 244.519 472.058C253.909 473.918 265.489 478.578 277.119 485.418C288.859 492.438 298.389 500.438 304.499 507.778Z" fill="white"/>
<path d="M187.909 749.578C194.959 743.038 201.589 735.158 207.939 725.478C241.199 674.668 215.179 627.468 240.459 612.648C264.429 598.598 288.909 637.458 254.779 649.038C248.239 651.278 242.279 655.168 237.879 660.498C230.399 669.858 222.529 686.538 235.929 707.838C261.749 749.118 209.229 775.898 199.839 769.048C199.839 769.048 233.939 793.338 253.589 760.048C268.989 733.928 235.329 710.768 244.829 691.088C254.249 671.358 278.229 686.638 270.239 703.908C270.239 703.908 296.889 705.298 308.029 654.728C319.219 604.078 301.909 587.078 324.939 564.598C343.189 546.808 366.189 587.878 333.729 590.678C333.729 590.678 347.119 605.198 366.189 587.878C389.489 566.648 389.729 518.098 359.859 496.148C359.859 496.148 341.599 478.708 326.169 480.628C326.169 480.628 340.349 441.658 286.649 426.508C286.649 426.508 271.379 420.748 253.939 433.548C253.939 433.548 251.419 421.048 218.259 415.788C185.099 410.528 151.449 454.438 154.019 478.028C154.019 478.028 166.189 465.468 176.219 475.758C186.579 486.228 165.619 517.448 128.199 512.358C84.3988 506.208 63.8288 539.188 74.5988 562.028C80.8788 575.398 67.2888 606.158 33.6088 601.598C33.6088 601.598 64.8888 621.308 82.3288 602.828C97.0088 587.238 72.6788 570.668 84.4688 560.078C96.3088 549.408 121.279 555.408 109.629 577.128C97.8788 598.778 52.5388 640.198 49.0988 683.298C49.0988 683.298 67.6688 642.598 104.019 644.228C140.449 645.908 133.619 694.698 93.4788 691.858C102.979 699.648 105.979 724.018 72.0188 732.638C71.2388 732.848 70.5088 732.968 69.6588 733.128C42.2088 738.828 16.4688 792.888 85.2388 845.408C120.819 872.638 88.7288 910.228 41.8088 902.278C8.03883 896.558 -12.1012 921.028 8.01884 942.828C-2.18116 924.678 13.1588 905.308 44.5888 920.958C73.9288 935.498 103.109 930.798 113.389 914.308C136.719 876.908 82.6588 856.508 92.4888 824.888C102.319 793.258 144.449 798.338 157.349 746.598C170.339 695.118 210.359 726.768 187.909 749.578Z" fill="url(#paint14_linear)" fill-opacity="0.5"/>
<path opacity="0.2" d="M188.039 748.628C195.099 742.088 201.719 734.208 208.079 724.518C241.349 673.688 215.309 626.468 240.609 611.638C264.589 597.578 289.089 636.468 254.939 648.048C248.399 650.288 242.429 654.178 238.039 659.518C230.559 668.878 222.679 685.558 236.089 706.878C261.929 748.178 209.389 774.958 199.989 768.108C199.989 768.108 234.109 792.418 253.759 759.108C269.159 732.978 235.489 709.808 244.989 690.118C254.409 670.388 278.409 685.668 270.409 702.948C270.409 702.948 297.069 704.338 308.209 653.748C319.399 603.078 302.079 586.068 325.119 563.588C343.379 545.788 366.389 586.878 333.919 589.678C333.919 589.678 347.309 604.198 366.389 586.878C389.689 565.648 389.929 517.078 360.039 495.108C360.039 495.108 341.769 477.658 326.329 479.578C326.329 479.578 340.509 440.598 286.779 425.428C286.779 425.428 271.499 419.668 254.049 432.468C254.049 432.468 251.529 419.958 218.349 414.698C185.169 409.428 151.509 453.358 154.079 476.958C154.079 476.958 166.249 464.398 176.289 474.688C186.659 485.168 165.679 516.388 128.249 511.298C84.4288 505.138 63.8588 538.128 74.6288 560.988C80.9188 574.358 67.3088 605.138 33.6288 600.568C33.6288 600.568 64.9288 620.288 82.3788 601.798C97.0688 586.208 72.7188 569.618 84.5188 559.028C96.3688 548.358 121.349 554.368 109.689 576.088C97.9488 597.758 52.5888 639.198 49.1588 682.318C49.1588 682.318 67.7288 641.598 104.099 643.238C140.549 644.918 133.719 693.728 93.5588 690.888C103.069 698.678 106.069 723.068 72.0988 731.688C71.3188 731.898 70.5888 732.018 69.7388 732.178C42.2688 737.878 16.5288 791.958 85.3388 844.508C120.939 871.748 88.8388 909.358 41.8988 901.388C8.10883 895.658 -12.0312 920.148 8.09883 941.948C-2.10117 923.798 13.2288 904.418 44.6888 920.068C74.0388 934.618 103.229 929.918 113.519 913.418C136.859 876.008 82.7688 855.598 92.5988 823.948C102.429 792.308 144.579 797.388 157.489 745.628C170.459 694.148 210.509 725.818 188.039 748.628Z" fill="url(#paint15_linear)"/>
<path opacity="0.1" d="M292.89 643.758C242.92 602.948 294 576.298 319.63 578.098C345.27 579.898 352.25 561.358 352.25 561.358C338.92 568.128 329.81 565.518 329.81 565.518C359.72 557.838 358.95 532.038 358.95 532.038C366.7 539.308 364.99 548.938 364.99 548.938C364.99 548.938 375.949 532.698 357.62 513.878C339.38 495.118 312.34 497.818 312.34 497.818C319.33 485.928 325.26 460.018 298.08 442.718C270.96 425.328 263.12 434.078 263.12 434.078C271.75 435.218 276.42 443.218 276.42 443.218C258.89 436.808 239.39 449.438 239.39 449.438C232.29 433.918 216.56 423.908 199.57 424.838C199 424.908 198.43 424.978 197.76 424.988C173.96 426.908 158.36 457.848 168.54 474.478C168.54 474.478 170.98 461.278 183.85 462.208C194.57 462.958 205.38 484.468 192.32 501.348C193.06 495.008 192.05 487.788 186.29 481.668C186.29 481.668 194.25 500.998 171.31 516.818C148.17 530.008 128.73 539.088 128.23 565.478C128.23 565.478 132.04 551.748 145.8 549.748C145.8 549.748 157.97 550.278 153.33 564.988C148.75 579.598 127.47 588.418 109.09 578.858C109.09 578.858 116.77 589.928 135.64 589.418C117.22 596.968 97.1595 604.358 88.0195 627.088C88.0195 627.088 93.0595 618.578 103.52 614.938C109.77 612.838 116.75 614.088 121.58 618.598C123.58 620.418 125.14 622.778 125.43 625.728C127.76 644.458 101.06 628.638 92.7295 658.478C92.7295 658.478 95.1895 654.448 99.9595 652.168C105.05 649.798 110.58 654.458 109.18 659.878C108.66 661.698 107.85 664.018 106.46 666.668C106.46 666.668 106.46 666.668 106.4 666.768C97.7595 683.818 98.6295 703.698 117.67 716.688C102.12 700.398 123.35 658.768 141.7 666.318C142.91 666.748 143.95 667.488 144.93 668.318C148.57 671.218 152.68 676.508 147.31 688.808C143.61 697.288 148.4 703.248 150.52 709.918C148.73 706.358 145.52 702.248 140.25 697.348C128.1 686.208 133.79 678.878 133.79 678.878C133.79 678.878 124.23 690.618 138.49 707.078C151.88 722.508 139.5 733.148 137.83 734.438C136.92 735.108 136.1 735.828 135.08 736.438C102.52 759.978 113.92 788.068 113.92 788.068C115.22 747.398 186.43 753.488 188.33 695.908C188.67 684.288 190.14 672.528 192.63 662.018C195.91 669.218 201.22 670.828 201.22 670.828C194.44 663.728 194.94 655.258 196.42 649.468C196.74 648.458 201.88 632.178 220.78 633.008C240.35 633.828 251.87 616.848 253.96 608.628C254.83 619.088 259.54 627.248 259.54 627.248C254.76 615.058 269.8 598.658 269.8 598.658C259.22 625.738 270.5 627.338 285.22 661.858C293.67 681.478 270.74 706.728 270.74 706.728C294.99 691.178 322.19 667.728 292.89 643.758Z" fill="#5BD9E5"/>
<path opacity="0.8" d="M313.209 508.868C302.849 514.958 296.029 508.198 296.029 508.198C306.469 522.408 327.699 509.318 336.699 514.648C345.689 519.978 345.709 526.698 345.709 526.698C338.879 519.938 332.959 523.228 332.959 523.228C344.769 539.708 323.339 564.768 296.169 564.898C269.099 565.088 266.749 582.648 266.749 582.648C266.749 582.648 266.569 562.278 290.869 557.808C315.079 553.278 317.599 539.838 317.599 539.838C306.099 554.658 287.639 551.778 269.719 554.708C251.799 557.638 250.609 575.738 250.609 575.738C243.919 559.668 256.599 549.548 256.599 549.548C256.599 549.548 231.339 560.318 240.889 580.718C250.379 601.228 227.999 623.048 215.599 607.568C203.209 592.088 194.859 599.348 194.859 599.348C201.929 587.328 212.939 593.818 212.939 593.818C199.859 579.288 171.049 582.498 177.209 606.458C183.429 630.308 153.359 635.478 153.359 635.478C173.479 615.028 162.979 593.938 160.739 581.778C158.499 569.618 167.369 561.458 167.369 561.458C165.219 569.608 171.039 575.788 171.039 575.788C170.689 551.298 189.849 530.168 189.849 530.168C171.929 533.098 167.179 541.088 167.179 541.088C172.589 515.908 200.399 512.108 207.299 495.968C214.099 479.768 209.109 470.048 209.109 470.048C215.509 475.218 216.209 480.988 216.209 480.988C213.999 452.748 188.979 444.728 188.979 444.728C205.199 435.448 221.659 446.428 221.659 446.428C218.689 437.868 210.599 436.548 210.599 436.548C232.909 437.628 242.049 463.168 242.049 463.168C261.269 448.918 270.689 455.838 270.689 455.838C266.299 451.828 259.529 451.938 259.529 451.938C275.589 445.248 296.599 457.658 296.599 457.658C296.599 457.658 306.969 461.768 311.219 475.088C311.219 475.088 306.679 468.308 300.909 474.368C292.739 483.218 302.059 511.688 313.209 508.868Z" fill="url(#paint16_linear)"/>
<path d="M331.059 429.618C347.989 401.098 348.179 384.908 346.519 377.288C345.639 373.448 342.569 371.558 338.809 372.718C331.389 374.858 317.259 382.868 300.319 411.388C283.489 439.728 282.559 456.798 283.819 464.908C284.439 469.188 287.719 471.328 291.819 470.008C299.339 467.688 313.509 459.208 331.059 429.618Z" fill="#474854"/>
<path opacity="0.1" d="M336.169 406.758C346.179 389.818 346.389 380.188 345.319 375.648C344.859 373.358 342.989 372.278 340.739 372.878C336.329 374.138 327.879 378.888 317.869 395.828C307.909 412.678 307.299 422.788 308.069 427.638C308.469 430.248 310.379 431.468 312.819 430.738C317.329 429.308 325.709 424.268 336.169 406.758Z" fill="white"/>
<path opacity="0.21" d="M338.898 372.768C340.728 372.278 342.338 372.378 343.668 373.148C342.418 372.428 340.858 372.238 339.178 372.698C332.468 374.648 319.618 381.858 304.428 407.578C289.188 433.158 288.358 448.608 289.488 455.928C290.088 459.838 293.068 461.678 296.688 460.558C303.598 458.478 316.378 450.758 332.228 424.108C347.568 398.358 347.708 383.688 346.178 376.858C345.778 375.078 344.928 373.878 343.678 373.158C345.018 373.928 345.908 375.278 346.338 377.198C347.978 384.448 347.698 399.988 331.568 427.308C314.788 455.558 301.238 463.798 293.908 465.988C290.008 467.188 286.898 465.148 286.268 461.098C285.078 453.268 285.918 436.988 302.078 409.798C318.198 382.468 331.758 374.838 338.898 372.768Z" fill="#27272D"/>
<defs>
<radialGradient id="paint0_radial" cx="0" cy="0" r="1" gradientUnits="userSpaceOnUse" gradientTransform="translate(487.515 -15.3544) rotate(9.99019) scale(375.253 364.313)">
<stop offset="0.1106" stop-color="#57DCEA" stop-opacity="0"/>
<stop offset="0.6861" stop-color="#57C8CE"/>
</radialGradient>
<radialGradient id="paint1_radial" cx="0" cy="0" r="1" gradientUnits="userSpaceOnUse" gradientTransform="translate(520.374 -115.673) rotate(30.5507) scale(672.936 646.805)">
<stop stop-color="#57DCEA" stop-opacity="0"/>
<stop offset="0.5938" stop-color="#57C8CE"/>
</radialGradient>
<linearGradient id="paint2_linear" x1="456.693" y1="182.928" x2="588.026" y2="-36.0188" gradientUnits="userSpaceOnUse">
<stop stop-color="#5ADFE5" stop-opacity="0"/>
<stop offset="0.1095" stop-color="#75E4E9" stop-opacity="0.1269"/>
<stop offset="0.3679" stop-color="#B0F0F3" stop-opacity="0.4267"/>
<stop offset="0.5886" stop-color="#DBF8F9" stop-opacity="0.6827"/>
<stop offset="0.7604" stop-color="#F5FDFD" stop-opacity="0.8819"/>
<stop offset="0.8622" stop-color="white"/>
</linearGradient>
<linearGradient id="paint3_linear" x1="635.971" y1="-125.388" x2="455.617" y2="184.449" gradientUnits="userSpaceOnUse">
<stop offset="0.339" stop-color="white"/>
<stop offset="1" stop-color="white" stop-opacity="0"/>
</linearGradient>
<radialGradient id="paint4_radial" cx="0" cy="0" r="1" gradientUnits="userSpaceOnUse" gradientTransform="translate(485.583 141.25) rotate(-149.269) scale(304.953 305.02)">
<stop offset="0.339" stop-color="#57DCEA"/>
<stop offset="1" stop-color="#04B2C4"/>
</radialGradient>
<radialGradient id="paint5_radial" cx="0" cy="0" r="1" gradientUnits="userSpaceOnUse" gradientTransform="translate(420.099 244.97) rotate(30.0114) scale(70.774 70.7902)">
<stop offset="0.1795" stop-color="#5ADFE5" stop-opacity="0"/>
<stop offset="1" stop-color="white"/>
</radialGradient>
<radialGradient id="paint6_radial" cx="0" cy="0" r="1" gradientUnits="userSpaceOnUse" gradientTransform="translate(461.084 128.697) rotate(-149.269) scale(69.839 69.8543)">
<stop offset="0.339" stop-color="white"/>
<stop offset="1" stop-color="white" stop-opacity="0"/>
</radialGradient>
<radialGradient id="paint7_radial" cx="0" cy="0" r="1" gradientUnits="userSpaceOnUse" gradientTransform="translate(394.853 265.994) rotate(-149.271) scale(47.804 48.5135)">
<stop offset="0.339" stop-color="white"/>
<stop offset="1" stop-color="white" stop-opacity="0"/>
</radialGradient>
<radialGradient id="paint8_radial" cx="0" cy="0" r="1" gradientUnits="userSpaceOnUse" gradientTransform="translate(459.189 244.514) rotate(-149.269) scale(66.5782 66.5929)">
<stop offset="0.339" stop-color="white"/>
<stop offset="1" stop-color="white" stop-opacity="0"/>
</radialGradient>
<radialGradient id="paint9_radial" cx="0" cy="0" r="1" gradientUnits="userSpaceOnUse" gradientTransform="translate(351.709 317.596) rotate(51.4564) scale(64.2005 64.1939)">
<stop offset="0.1823" stop-color="#57DCEA"/>
<stop offset="0.6861" stop-color="#04B2C4"/>
</radialGradient>
<radialGradient id="paint10_radial" cx="0" cy="0" r="1" gradientUnits="userSpaceOnUse" gradientTransform="translate(365.136 337.052) rotate(6.45005) scale(63.0496 63.0777)">
<stop offset="0.3849" stop-color="#57DCEA"/>
<stop offset="0.7584" stop-color="#04B2C4"/>
</radialGradient>
<radialGradient id="paint11_radial" cx="0" cy="0" r="1" gradientUnits="userSpaceOnUse" gradientTransform="translate(387.919 289.484) rotate(6.45004) scale(40.7453 40.7635)">
<stop offset="0.1823" stop-color="#57DCEA"/>
<stop offset="0.6861" stop-color="#04B2C4"/>
</radialGradient>
<radialGradient id="paint12_radial" cx="0" cy="0" r="1" gradientUnits="userSpaceOnUse" gradientTransform="translate(443.346 275.624) rotate(6.45005) scale(75.7132 75.7471)">
<stop offset="0.339" stop-color="white"/>
<stop offset="1" stop-color="white" stop-opacity="0"/>
</radialGradient>
<radialGradient id="paint13_radial" cx="0" cy="0" r="1" gradientUnits="userSpaceOnUse" gradientTransform="translate(398.083 308.237) rotate(6.45006) scale(44.9051 44.9248)">
<stop offset="0.339" stop-color="white"/>
<stop offset="1" stop-color="white" stop-opacity="0"/>
</radialGradient>
<linearGradient id="paint14_linear" x1="288.882" y1="394.369" x2="24.253" y2="1005.35" gradientUnits="userSpaceOnUse">
<stop stop-color="#3B98F4"/>
<stop offset="1" stop-color="#3B98F4" stop-opacity="0"/>
</linearGradient>
<linearGradient id="paint15_linear" x1="289.783" y1="393.814" x2="43.2144" y2="956.522" gradientUnits="userSpaceOnUse">
<stop stop-color="#5BD9E5"/>
<stop offset="1" stop-color="#5BD9E5" stop-opacity="0"/>
</linearGradient>
<linearGradient id="paint16_linear" x1="286.869" y1="451.935" x2="173.966" y2="647.388" gradientUnits="userSpaceOnUse">
<stop stop-color="#5BD9E5"/>
<stop offset="1" stop-color="#69DBFF" stop-opacity="0"/>
</linearGradient>
</defs>
</svg>
