<svg width="1745" height="792" viewBox="0 0 1745 792" fill="none" xmlns="http://www.w3.org/2000/svg">
<path d="M188.89 228.124C189.428 228.124 189.865 227.687 189.865 227.149C189.865 226.61 189.428 226.173 188.89 226.173C188.351 226.173 187.914 226.61 187.914 227.149C187.914 227.687 188.351 228.124 188.89 228.124Z" fill="white"/>
<path d="M353.878 464.937C354.417 464.937 354.853 464.5 354.853 463.961C354.853 463.422 354.417 462.986 353.878 462.986C353.339 462.986 352.902 463.422 352.902 463.961C352.902 464.5 353.339 464.937 353.878 464.937Z" fill="white"/>
<path d="M143.161 328.117C143.7 328.117 144.137 327.68 144.137 327.142C144.137 326.603 143.7 326.166 143.161 326.166C142.622 326.166 142.186 326.603 142.186 327.142C142.186 327.68 142.622 328.117 143.161 328.117Z" fill="white"/>
<path d="M335.976 422.329C336.514 422.329 336.951 421.892 336.951 421.353C336.951 420.814 336.514 420.378 335.976 420.378C335.437 420.378 335 420.814 335 421.353C335 421.892 335.437 422.329 335.976 422.329Z" fill="white"/>
<path d="M663.976 132.329C664.514 132.329 664.951 131.892 664.951 131.353C664.951 130.814 664.514 130.378 663.976 130.378C663.437 130.378 663 130.814 663 131.353C663 131.892 663.437 132.329 663.976 132.329Z" fill="white"/>
<path d="M180.231 593.342C180.77 593.342 181.207 592.906 181.207 592.367C181.207 591.828 180.77 591.391 180.231 591.391C179.693 591.391 179.256 591.828 179.256 592.367C179.256 592.906 179.693 593.342 180.231 593.342Z" fill="white"/>
<path d="M388.143 361.407C388.682 361.407 389.119 360.971 389.119 360.432C389.119 359.893 388.682 359.456 388.143 359.456C387.605 359.456 387.168 359.893 387.168 360.432C387.168 360.971 387.605 361.407 388.143 361.407Z" fill="white"/>
<path d="M218.034 473.229C218.573 473.229 219.01 472.792 219.01 472.253C219.01 471.715 218.573 471.278 218.034 471.278C217.495 471.278 217.059 471.715 217.059 472.253C217.059 472.792 217.495 473.229 218.034 473.229Z" fill="white"/>
<path d="M201.206 392.259C201.745 392.259 202.182 391.822 202.182 391.283C202.182 390.745 201.745 390.308 201.206 390.308C200.667 390.308 200.23 390.745 200.23 391.283C200.23 391.822 200.667 392.259 201.206 392.259Z" fill="white"/>
<path d="M333.976 144.329C334.514 144.329 334.951 143.892 334.951 143.353C334.951 142.814 334.514 142.378 333.976 142.378C333.437 142.378 333 142.814 333 143.353C333 143.892 333.437 144.329 333.976 144.329Z" fill="white"/>
<path d="M9.63374 93.9871C10.1725 93.9871 10.6093 93.5503 10.6093 93.0115C10.6093 92.4728 10.1725 92.036 9.63374 92.036C9.09497 92.036 8.6582 92.4728 8.6582 93.0115C8.6582 93.5503 9.09497 93.9871 9.63374 93.9871Z" fill="white"/>
<path d="M0.975542 37.4057C1.51432 37.4057 1.95108 36.9689 1.95108 36.4301C1.95108 35.8914 1.51432 35.4546 0.975542 35.4546C0.436765 35.4546 0 35.8914 0 36.4301C0 36.9689 0.436765 37.4057 0.975542 37.4057Z" fill="white"/>
<path d="M61.8252 22.5286C62.3639 22.5286 62.8007 22.0918 62.8007 21.5531C62.8007 21.0143 62.3639 20.5775 61.8252 20.5775C61.2864 20.5775 60.8496 21.0143 60.8496 21.5531C60.8496 22.0918 61.2864 22.5286 61.8252 22.5286Z" fill="white"/>
<path d="M48.6552 21.919C49.194 21.919 49.6308 21.4822 49.6308 20.9434C49.6308 20.4047 49.194 19.9679 48.6552 19.9679C48.1165 19.9679 47.6797 20.4047 47.6797 20.9434C47.6797 21.4822 48.1165 21.919 48.6552 21.919Z" fill="white"/>
<path d="M186.085 138.74C186.624 138.74 187.06 138.303 187.06 137.764C187.06 137.226 186.624 136.789 186.085 136.789C185.546 136.789 185.109 137.226 185.109 137.764C185.109 138.303 185.546 138.74 186.085 138.74Z" fill="white"/>
<path d="M183.157 129.472C183.696 129.472 184.133 129.036 184.133 128.497C184.133 127.958 183.696 127.521 183.157 127.521C182.618 127.521 182.182 127.958 182.182 128.497C182.182 129.036 182.618 129.472 183.157 129.472Z" fill="white"/>
<path d="M110.358 157.031C110.897 157.031 111.334 156.595 111.334 156.056C111.334 155.517 110.897 155.08 110.358 155.08C109.82 155.08 109.383 155.517 109.383 156.056C109.383 156.595 109.82 157.031 110.358 157.031Z" fill="white"/>
<path d="M80.1162 106.791C80.6549 106.791 81.0917 106.354 81.0917 105.815C81.0917 105.277 80.6549 104.84 80.1162 104.84C79.5774 104.84 79.1406 105.277 79.1406 105.815C79.1406 106.354 79.5774 106.791 80.1162 106.791Z" fill="white"/>
<path d="M121.333 184.225C121.872 184.225 122.309 183.788 122.309 183.249C122.309 182.71 121.872 182.274 121.333 182.274C120.794 182.274 120.357 182.71 120.357 183.249C120.357 183.788 120.794 184.225 121.333 184.225Z" fill="white"/>
<path d="M100.237 52.0387C100.776 52.0387 101.213 51.602 101.213 51.0632C101.213 50.5244 100.776 50.0876 100.237 50.0876C99.6985 50.0876 99.2617 50.5244 99.2617 51.0632C99.2617 51.602 99.6985 52.0387 100.237 52.0387Z" fill="white"/>
<path d="M70.7275 19.7239C71.2663 19.7239 71.703 19.2871 71.703 18.7484C71.703 18.2096 71.2663 17.7728 70.7275 17.7728C70.1887 17.7728 69.752 18.2096 69.752 18.7484C69.752 19.2871 70.1887 19.7239 70.7275 19.7239Z" fill="white"/>
<path d="M282.784 36.674C283.323 36.674 283.76 36.2372 283.76 35.6984C283.76 35.1597 283.323 34.7229 282.784 34.7229C282.245 34.7229 281.809 35.1597 281.809 35.6984C281.809 36.2372 282.245 36.674 282.784 36.674Z" fill="white"/>
<path d="M244.983 92.2798C245.522 92.2798 245.959 91.8431 245.959 91.3043C245.959 90.7655 245.522 90.3287 244.983 90.3287C244.445 90.3287 244.008 90.7655 244.008 91.3043C244.008 91.8431 244.445 92.2798 244.983 92.2798Z" fill="white"/>
<path d="M58.6552 191.541C59.194 191.541 59.6308 191.104 59.6308 190.566C59.6308 190.027 59.194 189.59 58.6552 189.59C58.1165 189.59 57.6797 190.027 57.6797 190.566C57.6797 191.104 58.1165 191.541 58.6552 191.541Z" fill="white"/>
<path d="M168.892 37.4057C169.43 37.4057 169.867 36.9689 169.867 36.4301C169.867 35.8914 169.43 35.4546 168.892 35.4546C168.353 35.4546 167.916 35.8914 167.916 36.4301C167.916 36.9689 168.353 37.4057 168.892 37.4057Z" fill="white"/>
<path d="M28.9013 261.049C29.4401 261.049 29.8769 260.612 29.8769 260.073C29.8769 259.534 29.4401 259.098 28.9013 259.098C28.3625 259.098 27.9258 259.534 27.9258 260.073C27.9258 260.612 28.3625 261.049 28.9013 261.049Z" fill="white"/>
<path d="M425.946 375.553C426.485 375.553 426.922 375.116 426.922 374.577C426.922 374.038 426.485 373.602 425.946 373.602C425.407 373.602 424.971 374.038 424.971 374.577C424.971 375.116 425.407 375.553 425.946 375.553Z" fill="white"/>
<path d="M546.669 392.259C547.208 392.259 547.644 391.822 547.644 391.283C547.644 390.745 547.208 390.308 546.669 390.308C546.13 390.308 545.693 390.745 545.693 391.283C545.693 391.822 546.13 392.259 546.669 392.259Z" fill="white"/>
<path d="M299.126 285.559C299.665 285.559 300.101 285.122 300.101 284.584C300.101 284.045 299.665 283.608 299.126 283.608C298.587 283.608 298.15 284.045 298.15 284.584C298.15 285.122 298.587 285.559 299.126 285.559Z" fill="white"/>
<path d="M273.395 263.487C273.934 263.487 274.371 263.051 274.371 262.512C274.371 261.973 273.934 261.536 273.395 261.536C272.857 261.536 272.42 261.973 272.42 262.512C272.42 263.051 272.857 263.487 273.395 263.487Z" fill="white"/>
<path d="M441.311 67.5256C441.85 67.5256 442.287 67.0888 442.287 66.55C442.287 66.0112 441.85 65.5745 441.311 65.5745C440.773 65.5745 440.336 66.0112 440.336 66.55C440.336 67.0888 440.773 67.5256 441.311 67.5256Z" fill="white"/>
<path d="M214.497 209.589C215.036 209.589 215.473 209.152 215.473 208.613C215.473 208.074 215.036 207.638 214.497 207.638C213.958 207.638 213.521 208.074 213.521 208.613C213.521 209.152 213.958 209.589 214.497 209.589Z" fill="white"/>
<path d="M327.538 68.3791C328.077 68.3791 328.514 67.9423 328.514 67.4035C328.514 66.8647 328.077 66.428 327.538 66.428C326.999 66.428 326.562 66.8647 326.562 67.4035C326.562 67.9423 326.999 68.3791 327.538 68.3791Z" fill="white"/>
<path d="M144.259 237.636C144.798 237.636 145.234 237.199 145.234 236.66C145.234 236.121 144.798 235.684 144.259 235.684C143.72 235.684 143.283 236.121 143.283 236.66C143.283 237.199 143.72 237.636 144.259 237.636Z" fill="white"/>
<path d="M1455.63 379.089C1456.17 379.089 1456.61 378.652 1456.61 378.114C1456.61 377.575 1456.17 377.138 1455.63 377.138C1455.09 377.138 1454.65 377.575 1454.65 378.114C1454.65 378.652 1455.09 379.089 1455.63 379.089Z" fill="white"/>
<path d="M1172.72 510.177C1173.26 510.177 1173.7 509.741 1173.7 509.202C1173.7 508.663 1173.26 508.226 1172.72 508.226C1172.18 508.226 1171.75 508.663 1171.75 509.202C1171.75 509.741 1172.18 510.177 1172.72 510.177Z" fill="white"/>
<path d="M1205.16 456.645C1205.7 456.645 1206.13 456.208 1206.13 455.669C1206.13 455.13 1205.7 454.694 1205.16 454.694C1204.62 454.694 1204.18 455.13 1204.18 455.669C1204.18 456.208 1204.62 456.645 1205.16 456.645Z" fill="white"/>
<path d="M1195.41 465.424C1195.94 465.424 1196.38 464.988 1196.38 464.449C1196.38 463.91 1195.94 463.473 1195.41 463.473C1194.87 463.473 1194.43 463.91 1194.43 464.449C1194.43 464.988 1194.87 465.424 1195.41 465.424Z" fill="white"/>
<path d="M1343.57 428.232C1344.1 428.232 1344.54 427.795 1344.54 427.257C1344.54 426.718 1344.1 426.281 1343.57 426.281C1343.03 426.281 1342.59 426.718 1342.59 427.257C1342.59 427.795 1343.03 428.232 1343.57 428.232Z" fill="white"/>
<path d="M1355.64 333.361C1356.18 333.361 1356.61 332.924 1356.61 332.385C1356.61 331.846 1356.18 331.41 1355.64 331.41C1355.1 331.41 1354.66 331.846 1354.66 332.385C1354.66 332.924 1355.1 333.361 1355.64 333.361Z" fill="white"/>
<path d="M1334.66 517.494C1335.2 517.494 1335.64 517.057 1335.64 516.519C1335.64 515.98 1335.2 515.543 1334.66 515.543C1334.12 515.543 1333.69 515.98 1333.69 516.519C1333.69 517.057 1334.12 517.494 1334.66 517.494Z" fill="white"/>
<path d="M1253.33 450.304C1253.87 450.304 1254.3 449.867 1254.3 449.328C1254.3 448.789 1253.87 448.353 1253.33 448.353C1252.79 448.353 1252.35 448.789 1252.35 449.328C1252.35 449.867 1252.79 450.304 1253.33 450.304Z" fill="white"/>
<path d="M1209.55 448.353C1210.09 448.353 1210.53 447.916 1210.53 447.377C1210.53 446.838 1210.09 446.401 1209.55 446.401C1209.01 446.401 1208.57 446.838 1208.57 447.377C1208.57 447.916 1209.01 448.353 1209.55 448.353Z" fill="white"/>
<path d="M1090.41 370.309C1090.95 370.309 1091.39 369.872 1091.39 369.334C1091.39 368.795 1090.95 368.358 1090.41 368.358C1089.87 368.358 1089.44 368.795 1089.44 369.334C1089.44 369.872 1089.87 370.309 1090.41 370.309Z" fill="white"/>
<path d="M1339.17 457.62C1339.71 457.62 1340.15 457.183 1340.15 456.645C1340.15 456.106 1339.71 455.669 1339.17 455.669C1338.64 455.669 1338.2 456.106 1338.2 456.645C1338.2 457.183 1338.64 457.62 1339.17 457.62Z" fill="white"/>
<path d="M1210.52 408.111C1211.06 408.111 1211.5 407.675 1211.5 407.136C1211.5 406.597 1211.06 406.16 1210.52 406.16C1209.99 406.16 1209.55 406.597 1209.55 407.136C1209.55 407.675 1209.99 408.111 1210.52 408.111Z" fill="white"/>
<path d="M1291.49 391.405C1292.03 391.405 1292.47 390.969 1292.47 390.43C1292.47 389.891 1292.03 389.454 1291.49 389.454C1290.96 389.454 1290.52 389.891 1290.52 390.43C1290.52 390.969 1290.96 391.405 1291.49 391.405Z" fill="white"/>
<path d="M1153.58 736.869C1154.12 736.869 1154.55 736.432 1154.55 735.893C1154.55 735.355 1154.12 734.918 1153.58 734.918C1153.04 734.918 1152.6 735.355 1152.6 735.893C1152.6 736.432 1153.04 736.869 1153.58 736.869Z" fill="white"/>
<path d="M1517.94 524.323C1518.48 524.323 1518.92 523.886 1518.92 523.347C1518.92 522.808 1518.48 522.372 1517.94 522.372C1517.4 522.372 1516.97 522.808 1516.97 523.347C1516.97 523.886 1517.4 524.323 1517.94 524.323Z" fill="white"/>
<path d="M1589.77 199.711C1590.31 199.711 1590.74 199.275 1590.74 198.736C1590.74 198.197 1590.31 197.76 1589.77 197.76C1589.23 197.76 1588.79 198.197 1588.79 198.736C1588.79 199.275 1589.23 199.711 1589.77 199.711Z" fill="white"/>
<path d="M1646.35 191.175C1646.89 191.175 1647.32 190.739 1647.32 190.2C1647.32 189.661 1646.89 189.224 1646.35 189.224C1645.81 189.224 1645.37 189.661 1645.37 190.2C1645.37 190.739 1645.81 191.175 1646.35 191.175Z" fill="white"/>
<path d="M1661.23 252.025C1661.76 252.025 1662.2 251.588 1662.2 251.049C1662.2 250.51 1661.76 250.074 1661.23 250.074C1660.69 250.074 1660.25 250.51 1660.25 251.049C1660.25 251.588 1660.69 252.025 1661.23 252.025Z" fill="white"/>
<path d="M1661.96 238.733C1662.49 238.733 1662.93 238.296 1662.93 237.758C1662.93 237.219 1662.49 236.782 1661.96 236.782C1661.42 236.782 1660.98 237.219 1660.98 237.758C1660.98 238.296 1661.42 238.733 1661.96 238.733Z" fill="white"/>
<path d="M1545.01 376.163C1545.55 376.163 1545.99 375.726 1545.99 375.187C1545.99 374.648 1545.55 374.211 1545.01 374.211C1544.48 374.211 1544.04 374.648 1544.04 375.187C1544.04 375.726 1544.48 376.163 1545.01 376.163Z" fill="white"/>
<path d="M1554.28 373.236C1554.82 373.236 1555.26 372.799 1555.26 372.26C1555.26 371.722 1554.82 371.285 1554.28 371.285C1553.74 371.285 1553.31 371.722 1553.31 372.26C1553.31 372.799 1553.74 373.236 1554.28 373.236Z" fill="white"/>
<path d="M1526.72 300.436C1527.26 300.436 1527.7 299.999 1527.7 299.461C1527.7 298.922 1527.26 298.485 1526.72 298.485C1526.18 298.485 1525.75 298.922 1525.75 299.461C1525.75 299.999 1526.18 300.436 1526.72 300.436Z" fill="white"/>
<path d="M1576.96 270.194C1577.5 270.194 1577.94 269.757 1577.94 269.219C1577.94 268.68 1577.5 268.243 1576.96 268.243C1576.42 268.243 1575.99 268.68 1575.99 269.219C1575.99 269.757 1576.42 270.194 1576.96 270.194Z" fill="white"/>
<path d="M1499.53 311.533C1500.07 311.533 1500.51 311.096 1500.51 310.557C1500.51 310.019 1500.07 309.582 1499.53 309.582C1498.99 309.582 1498.55 310.019 1498.55 310.557C1498.55 311.096 1498.99 311.533 1499.53 311.533Z" fill="white"/>
<path d="M1631.72 290.437C1632.25 290.437 1632.69 290 1632.69 289.461C1632.69 288.922 1632.25 288.486 1631.72 288.486C1631.18 288.486 1630.74 288.922 1630.74 289.461C1630.74 290 1631.18 290.437 1631.72 290.437Z" fill="white"/>
<path d="M1664.03 260.927C1664.57 260.927 1665.01 260.49 1665.01 259.951C1665.01 259.412 1664.57 258.976 1664.03 258.976C1663.49 258.976 1663.05 259.412 1663.05 259.951C1663.05 260.49 1663.49 260.927 1664.03 260.927Z" fill="white"/>
<path d="M1647.2 472.985C1647.74 472.985 1648.18 472.548 1648.18 472.009C1648.18 471.471 1647.74 471.034 1647.2 471.034C1646.66 471.034 1646.23 471.471 1646.23 472.009C1646.23 472.548 1646.66 472.985 1647.2 472.985Z" fill="white"/>
<path d="M1591.47 435.061C1592.01 435.061 1592.45 434.624 1592.45 434.085C1592.45 433.546 1592.01 433.11 1591.47 433.11C1590.93 433.11 1590.5 433.546 1590.5 434.085C1590.5 434.624 1590.93 435.061 1591.47 435.061Z" fill="white"/>
<path d="M1492.33 248.732C1492.87 248.732 1493.31 248.296 1493.31 247.757C1493.31 247.218 1492.87 246.781 1492.33 246.781C1491.8 246.781 1491.36 247.218 1491.36 247.757C1491.36 248.296 1491.8 248.732 1492.33 248.732Z" fill="white"/>
<path d="M1691.71 290.071C1692.25 290.071 1692.69 289.634 1692.69 289.095C1692.69 288.557 1692.25 288.12 1691.71 288.12C1691.17 288.12 1690.74 288.557 1690.74 289.095C1690.74 289.634 1691.17 290.071 1691.71 290.071Z" fill="white"/>
<path d="M1646.35 359.09C1646.89 359.09 1647.32 358.654 1647.32 358.115C1647.32 357.576 1646.89 357.139 1646.35 357.139C1645.81 357.139 1645.37 357.576 1645.37 358.115C1645.37 358.654 1645.81 359.09 1646.35 359.09Z" fill="white"/>
<path d="M1422.71 218.978C1423.24 218.978 1423.68 218.542 1423.68 218.003C1423.68 217.464 1423.24 217.027 1422.71 217.027C1422.17 217.027 1421.73 217.464 1421.73 218.003C1421.73 218.542 1422.17 218.978 1422.71 218.978Z" fill="white"/>
<path d="M1308.2 616.146C1308.74 616.146 1309.18 615.709 1309.18 615.17C1309.18 614.631 1308.74 614.195 1308.2 614.195C1307.66 614.195 1307.23 614.631 1307.23 615.17C1307.23 615.709 1307.66 616.146 1308.2 616.146Z" fill="white"/>
<path d="M1509.53 607.854C1510.07 607.854 1510.5 607.417 1510.5 606.878C1510.5 606.339 1510.07 605.902 1509.53 605.902C1508.99 605.902 1508.55 606.339 1508.55 606.878C1508.55 607.417 1508.99 607.854 1509.53 607.854Z" fill="white"/>
<path d="M1420.27 463.473C1420.81 463.473 1421.24 463.037 1421.24 462.498C1421.24 461.959 1420.81 461.522 1420.27 461.522C1419.73 461.522 1419.29 461.959 1419.29 462.498C1419.29 463.037 1419.73 463.473 1420.27 463.473Z" fill="white"/>
<path d="M1462.09 465.424C1462.63 465.424 1463.07 464.988 1463.07 464.449C1463.07 463.91 1462.63 463.473 1462.09 463.473C1461.55 463.473 1461.12 463.91 1461.12 464.449C1461.12 464.988 1461.55 465.424 1462.09 465.424Z" fill="white"/>
<path d="M1518.92 479.692C1519.46 479.692 1519.89 479.255 1519.89 478.716C1519.89 478.178 1519.46 477.741 1518.92 477.741C1518.38 477.741 1517.94 478.178 1517.94 478.716C1517.94 479.255 1518.38 479.692 1518.92 479.692Z" fill="white"/>
<path d="M1365.51 401.77C1366.05 401.77 1366.49 401.334 1366.49 400.795C1366.49 400.256 1366.05 399.819 1365.51 399.819C1364.98 399.819 1364.54 400.256 1364.54 400.795C1364.54 401.334 1364.98 401.77 1365.51 401.77Z" fill="white"/>
<path d="M1692.69 441.89C1693.23 441.89 1693.66 441.453 1693.66 440.914C1693.66 440.375 1693.23 439.938 1692.69 439.938C1692.15 439.938 1691.71 440.375 1691.71 440.914C1691.71 441.453 1692.15 441.89 1692.69 441.89Z" fill="white"/>
<path d="M1616.23 631.51C1616.77 631.51 1617.2 631.074 1617.2 630.535C1617.2 629.996 1616.77 629.559 1616.23 629.559C1615.69 629.559 1615.25 629.996 1615.25 630.535C1615.25 631.074 1615.69 631.51 1616.23 631.51Z" fill="white"/>
<path d="M1474.29 404.575C1474.83 404.575 1475.26 404.138 1475.26 403.6C1475.26 403.061 1474.83 402.624 1474.29 402.624C1473.75 402.624 1473.31 403.061 1473.31 403.6C1473.31 404.138 1473.75 404.575 1474.29 404.575Z" fill="white"/>
<path d="M1615.37 517.616C1615.91 517.616 1616.35 517.179 1616.35 516.64C1616.35 516.102 1615.91 515.665 1615.37 515.665C1614.84 515.665 1614.4 516.102 1614.4 516.64C1614.4 517.179 1614.84 517.616 1615.37 517.616Z" fill="white"/>
<path d="M1446.12 334.336C1446.66 334.336 1447.09 333.899 1447.09 333.361C1447.09 332.822 1446.66 332.385 1446.12 332.385C1445.58 332.385 1445.14 332.822 1445.14 333.361C1445.14 333.899 1445.58 334.336 1446.12 334.336Z" fill="white"/>
<path d="M1205.16 138.13C1205.7 138.13 1206.13 137.694 1206.13 137.155C1206.13 136.616 1205.7 136.179 1205.16 136.179C1204.62 136.179 1204.18 136.616 1204.18 137.155C1204.18 137.694 1204.62 138.13 1205.16 138.13Z" fill="white"/>
<path d="M1159.19 104.23C1159.73 104.23 1160.16 103.793 1160.16 103.255C1160.16 102.716 1159.73 102.279 1159.19 102.279C1158.65 102.279 1158.21 102.716 1158.21 103.255C1158.21 103.793 1158.65 104.23 1159.19 104.23Z" fill="white"/>
<path d="M1191.62 50.6974C1192.16 50.6974 1192.6 50.2607 1192.6 49.7219C1192.6 49.1831 1192.16 48.7463 1191.62 48.7463C1191.09 48.7463 1190.65 49.1831 1190.65 49.7219C1190.65 50.2607 1191.09 50.6974 1191.62 50.6974Z" fill="white"/>
<path d="M1181.75 59.5993C1182.29 59.5993 1182.72 59.1625 1182.72 58.6237C1182.72 58.085 1182.29 57.6482 1181.75 57.6482C1181.21 57.6482 1180.77 58.085 1180.77 58.6237C1180.77 59.1625 1181.21 59.5993 1181.75 59.5993Z" fill="white"/>
<path d="M1329.91 22.2848C1330.45 22.2848 1330.88 21.8481 1330.88 21.3093C1330.88 20.7705 1330.45 20.3337 1329.91 20.3337C1329.37 20.3337 1328.93 20.7705 1328.93 21.3093C1328.93 21.8481 1329.37 22.2848 1329.91 22.2848Z" fill="white"/>
<path d="M1321 111.547C1321.54 111.547 1321.98 111.11 1321.98 110.571C1321.98 110.032 1321.54 109.596 1321 109.596C1320.47 109.596 1320.03 110.032 1320.03 110.571C1320.03 111.11 1320.47 111.547 1321 111.547Z" fill="white"/>
<path d="M1264.06 97.4014C1264.6 97.4014 1265.03 96.9646 1265.03 96.4259C1265.03 95.8871 1264.6 95.4503 1264.06 95.4503C1263.52 95.4503 1263.08 95.8871 1263.08 96.4259C1263.08 96.9646 1263.52 97.4014 1264.06 97.4014Z" fill="white"/>
<path d="M1220.52 263.609C1221.06 263.609 1221.5 263.173 1221.5 262.634C1221.5 262.095 1221.06 261.658 1220.52 261.658C1219.99 261.658 1219.55 262.095 1219.55 262.634C1219.55 263.173 1219.99 263.609 1220.52 263.609Z" fill="white"/>
<path d="M1239.67 44.3564C1240.21 44.3564 1240.64 43.9196 1240.64 43.3808C1240.64 42.842 1240.21 42.4053 1239.67 42.4053C1239.13 42.4053 1238.69 42.842 1238.69 43.3808C1238.69 43.9196 1239.13 44.3564 1239.67 44.3564Z" fill="white"/>
<path d="M1196.01 42.4053C1196.55 42.4053 1196.99 41.9685 1196.99 41.4298C1196.99 40.891 1196.55 40.4542 1196.01 40.4542C1195.48 40.4542 1195.04 40.891 1195.04 41.4298C1195.04 41.9685 1195.48 42.4053 1196.01 42.4053Z" fill="white"/>
<path d="M1127.6 410.063C1128.14 410.063 1128.58 409.626 1128.58 409.087C1128.58 408.548 1128.14 408.111 1127.6 408.111C1127.07 408.111 1126.63 408.548 1126.63 409.087C1126.63 409.626 1127.07 410.063 1127.6 410.063Z" fill="white"/>
<path d="M1325.52 51.673C1326.06 51.673 1326.49 51.2362 1326.49 50.6975C1326.49 50.1587 1326.06 49.7219 1325.52 49.7219C1324.98 49.7219 1324.54 50.1587 1324.54 50.6975C1324.54 51.2362 1324.98 51.673 1325.52 51.673Z" fill="white"/>
<path d="M1308.81 172.396C1309.35 172.396 1309.79 171.959 1309.79 171.421C1309.79 170.882 1309.35 170.445 1308.81 170.445C1308.27 170.445 1307.84 170.882 1307.84 171.421C1307.84 171.959 1308.27 172.396 1308.81 172.396Z" fill="white"/>
<path d="M1196.99 2.28616C1197.53 2.28616 1197.96 1.8494 1197.96 1.31062C1197.96 0.771842 1197.53 0.335083 1196.99 0.335083C1196.45 0.335083 1196.01 0.771842 1196.01 1.31062C1196.01 1.8494 1196.45 2.28616 1196.99 2.28616Z" fill="white"/>
<path d="M1140.04 330.922C1140.58 330.922 1141.02 330.485 1141.02 329.946C1141.02 329.407 1140.58 328.971 1140.04 328.971C1139.5 328.971 1139.07 329.407 1139.07 329.946C1139.07 330.485 1139.5 330.922 1140.04 330.922Z" fill="white"/>
<path d="M1504.41 118.498C1504.95 118.498 1505.38 118.061 1505.38 117.522C1505.38 116.983 1504.95 116.547 1504.41 116.547C1503.87 116.547 1503.43 116.983 1503.43 117.522C1503.43 118.061 1503.87 118.498 1504.41 118.498Z" fill="white"/>
<path d="M1744.02 116.059C1744.56 116.059 1745 115.622 1745 115.083C1745 114.544 1744.56 114.108 1744.02 114.108C1743.49 114.108 1743.05 114.544 1743.05 115.083C1743.05 115.622 1743.49 116.059 1744.02 116.059Z" fill="white"/>
<path d="M1724.76 169.835C1725.3 169.835 1725.73 169.399 1725.73 168.86C1725.73 168.321 1725.3 167.884 1724.76 167.884C1724.22 167.884 1723.78 168.321 1723.78 168.86C1723.78 169.399 1724.22 169.835 1724.76 169.835Z" fill="white"/>
<path d="M1694.03 151.422C1694.57 151.422 1695 150.985 1695 150.446C1695 149.908 1694.57 149.471 1694.03 149.471C1693.49 149.471 1693.05 149.908 1693.05 150.446C1693.05 150.985 1693.49 151.422 1694.03 151.422Z" fill="white"/>
<path d="M1706.22 239.831C1706.76 239.831 1707.2 239.394 1707.2 238.855C1707.2 238.316 1706.76 237.88 1706.22 237.88C1705.68 237.88 1705.25 238.316 1705.25 238.855C1705.25 239.394 1705.68 239.831 1706.22 239.831Z" fill="white"/>
<path d="M1685.37 12.6513C1685.91 12.6513 1686.35 12.2145 1686.35 11.6757C1686.35 11.137 1685.91 10.7002 1685.37 10.7002C1684.83 10.7002 1684.39 11.137 1684.39 11.6757C1684.39 12.2145 1684.83 12.6513 1685.37 12.6513Z" fill="white"/>
<path d="M1688.05 71.3057C1688.59 71.3057 1689.03 70.8689 1689.03 70.3302C1689.03 69.7914 1688.59 69.3546 1688.05 69.3546C1687.51 69.3546 1687.08 69.7914 1687.08 70.3302C1687.08 70.8689 1687.51 71.3057 1688.05 71.3057Z" fill="white"/>
<path d="M860.671 166.177C861.21 166.177 861.646 165.74 861.646 165.202C861.646 164.663 861.21 164.226 860.671 164.226C860.132 164.226 859.695 164.663 859.695 165.202C859.695 165.74 860.132 166.177 860.671 166.177Z" fill="white"/>
<path d="M1644.28 109.84C1644.82 109.84 1645.25 109.403 1645.25 108.864C1645.25 108.325 1644.82 107.889 1644.28 107.889C1643.74 107.889 1643.3 108.325 1643.3 108.864C1643.3 109.403 1643.74 109.84 1644.28 109.84Z" fill="white"/>
<path d="M1655.01 152.276C1655.55 152.276 1655.98 151.839 1655.98 151.3C1655.98 150.761 1655.55 150.325 1655.01 150.325C1654.47 150.325 1654.03 150.761 1654.03 151.3C1654.03 151.839 1654.47 152.276 1655.01 152.276Z" fill="white"/>
<path d="M1633.54 67.0378C1634.08 67.0378 1634.52 66.601 1634.52 66.0622C1634.52 65.5234 1634.08 65.0867 1633.54 65.0867C1633.01 65.0867 1632.57 65.5234 1632.57 66.0622C1632.57 66.601 1633.01 67.0378 1633.54 67.0378Z" fill="white"/>
<path d="M1577.94 29.2355C1578.48 29.2355 1578.91 28.7987 1578.91 28.26C1578.91 27.7212 1578.48 27.2844 1577.94 27.2844C1577.4 27.2844 1576.96 27.7212 1576.96 28.26C1576.96 28.7987 1577.4 29.2355 1577.94 29.2355Z" fill="white"/>
<path d="M853.354 103.499C853.893 103.499 854.33 103.062 854.33 102.523C854.33 101.984 853.893 101.547 853.354 101.547C852.816 101.547 852.379 101.984 852.379 102.523C852.379 103.062 852.816 103.499 853.354 103.499Z" fill="white"/>
<path d="M1616.23 162.885C1616.77 162.885 1617.2 162.448 1617.2 161.909C1617.2 161.37 1616.77 160.934 1616.23 160.934C1615.69 160.934 1615.25 161.37 1615.25 161.909C1615.25 162.448 1615.69 162.885 1616.23 162.885Z" fill="white"/>
<path d="M783.849 73.6226C784.387 73.6226 784.824 73.1858 784.824 72.6471C784.824 72.1083 784.387 71.6715 783.849 71.6715C783.31 71.6715 782.873 72.1083 782.873 72.6471C782.873 73.1858 783.31 73.6226 783.849 73.6226Z" fill="white"/>
<path d="M1385.64 155.08C1386.17 155.08 1386.61 154.644 1386.61 154.105C1386.61 153.566 1386.17 153.129 1385.64 153.129C1385.1 153.129 1384.66 153.566 1384.66 154.105C1384.66 154.644 1385.1 155.08 1385.64 155.08Z" fill="white"/>
<path d="M1341.13 269.097C1341.66 269.097 1342.1 268.66 1342.1 268.121C1342.1 267.583 1341.66 267.146 1341.13 267.146C1340.59 267.146 1340.15 267.583 1340.15 268.121C1340.15 268.66 1340.59 269.097 1341.13 269.097Z" fill="white"/>
<path d="M1331.86 272.023C1332.4 272.023 1332.83 271.587 1332.83 271.048C1332.83 270.509 1332.4 270.072 1331.86 270.072C1331.32 270.072 1330.88 270.509 1330.88 271.048C1330.88 271.587 1331.32 272.023 1331.86 272.023Z" fill="white"/>
<path d="M1290.15 270.072C1290.69 270.072 1291.13 269.636 1291.13 269.097C1291.13 268.558 1290.69 268.121 1290.15 268.121C1289.61 268.121 1289.18 268.558 1289.18 269.097C1289.18 269.636 1289.61 270.072 1290.15 270.072Z" fill="white"/>
<path d="M1294.66 210.198C1295.2 210.198 1295.64 209.762 1295.64 209.223C1295.64 208.684 1295.2 208.247 1294.66 208.247C1294.13 208.247 1293.69 208.684 1293.69 209.223C1293.69 209.762 1294.13 210.198 1294.66 210.198Z" fill="white"/>
<path d="M1277.84 330.922C1278.38 330.922 1278.81 330.485 1278.81 329.946C1278.81 329.407 1278.38 328.971 1277.84 328.971C1277.3 328.971 1276.86 329.407 1276.86 329.946C1276.86 330.485 1277.3 330.922 1277.84 330.922Z" fill="white"/>
<path d="M1495.99 201.906C1496.53 201.906 1496.97 201.47 1496.97 200.931C1496.97 200.392 1496.53 199.955 1495.99 199.955C1495.45 199.955 1495.02 200.392 1495.02 200.931C1495.02 201.47 1495.45 201.906 1495.99 201.906Z" fill="white"/>
<path d="M1384.66 83.3781C1385.2 83.3781 1385.63 82.9413 1385.63 82.4025C1385.63 81.8638 1385.2 81.427 1384.66 81.427C1384.12 81.427 1383.68 81.8638 1383.68 82.4025C1383.68 82.9413 1384.12 83.3781 1384.66 83.3781Z" fill="white"/>
<path d="M1406.73 57.6481C1407.27 57.6481 1407.71 57.2113 1407.71 56.6726C1407.71 56.1338 1407.27 55.697 1406.73 55.697C1406.19 55.697 1405.76 56.1338 1405.76 56.6726C1405.76 57.2113 1406.19 57.6481 1406.73 57.6481Z" fill="white"/>
<path d="M1505.38 73.7445C1505.92 73.7445 1506.36 73.3078 1506.36 72.769C1506.36 72.2302 1505.92 71.7935 1505.38 71.7935C1504.84 71.7935 1504.41 72.2302 1504.41 72.769C1504.41 73.3078 1504.84 73.7445 1505.38 73.7445Z" fill="white"/>
<path d="M1679.03 35.9423C1679.57 35.9423 1680 35.5055 1680 34.9668C1680 34.428 1679.57 33.9912 1679.03 33.9912C1678.49 33.9912 1678.05 34.428 1678.05 34.9668C1678.05 35.5055 1678.49 35.9423 1679.03 35.9423Z" fill="white"/>
<path d="M1602.69 225.563C1603.23 225.563 1603.67 225.126 1603.67 224.588C1603.67 224.049 1603.23 223.612 1602.69 223.612C1602.15 223.612 1601.72 224.049 1601.72 224.588C1601.72 225.126 1602.15 225.563 1602.69 225.563Z" fill="white"/>
<path d="M1443.92 119.473C1444.46 119.473 1444.9 119.036 1444.9 118.498C1444.9 117.959 1444.46 117.522 1443.92 117.522C1443.38 117.522 1442.95 117.959 1442.95 118.498C1442.95 119.036 1443.38 119.473 1443.92 119.473Z" fill="white"/>
<path d="M1062.73 181.664C1063.27 181.664 1063.71 181.227 1063.71 180.688C1063.71 180.15 1063.27 179.713 1062.73 179.713C1062.19 179.713 1061.76 180.15 1061.76 180.688C1061.76 181.227 1062.19 181.664 1062.73 181.664Z" fill="white"/>
<path d="M950.544 230.929C951.083 230.929 951.519 230.492 951.519 229.953C951.519 229.414 951.083 228.978 950.544 228.978C950.005 228.978 949.568 229.414 949.568 229.953C949.568 230.492 950.005 230.929 950.544 230.929Z" fill="white"/>
<path d="M962.737 135.935C963.276 135.935 963.713 135.499 963.713 134.96C963.713 134.421 963.276 133.984 962.737 133.984C962.198 133.984 961.762 134.421 961.762 134.96C961.762 135.499 962.198 135.935 962.737 135.935Z" fill="white"/>
<path d="M860.306 253C860.844 253 861.281 252.564 861.281 252.025C861.281 251.486 860.844 251.049 860.306 251.049C859.767 251.049 859.33 251.486 859.33 252.025C859.33 252.564 859.767 253 860.306 253Z" fill="white"/>
<path d="M898.597 194.102C899.135 194.102 899.572 193.665 899.572 193.126C899.572 192.588 899.135 192.151 898.597 192.151C898.058 192.151 897.621 192.588 897.621 193.126C897.621 193.665 898.058 194.102 898.597 194.102Z" fill="white"/>
<path d="M1133.82 103.133C1134.36 103.133 1134.8 102.696 1134.8 102.157C1134.8 101.618 1134.36 101.182 1133.82 101.182C1133.28 101.182 1132.85 101.618 1132.85 102.157C1132.85 102.696 1133.28 103.133 1133.82 103.133Z" fill="white"/>
<path d="M1106.63 114.108C1107.17 114.108 1107.61 113.671 1107.61 113.132C1107.61 112.593 1107.17 112.156 1106.63 112.156C1106.09 112.156 1105.65 112.593 1105.65 113.132C1105.65 113.671 1106.09 114.108 1106.63 114.108Z" fill="white"/>
<path d="M1099.43 51.4291C1099.97 51.4291 1100.41 50.9923 1100.41 50.4536C1100.41 49.9148 1099.97 49.478 1099.43 49.478C1098.9 49.478 1098.46 49.9148 1098.46 50.4536C1098.46 50.9923 1098.9 51.4291 1099.43 51.4291Z" fill="white"/>
<path d="M1029.81 21.6751C1030.34 21.6751 1030.78 21.2383 1030.78 20.6995C1030.78 20.1608 1030.34 19.724 1029.81 19.724C1029.27 19.724 1028.83 20.1608 1028.83 20.6995C1028.83 21.2383 1029.27 21.6751 1029.81 21.6751Z" fill="white"/>
<path d="M972.614 204.345C973.153 204.345 973.59 203.908 973.59 203.37C973.59 202.831 973.153 202.394 972.614 202.394C972.075 202.394 971.639 202.831 971.639 203.37C971.639 203.908 972.075 204.345 972.614 204.345Z" fill="white"/>
<path d="M1081.39 207.272C1081.93 207.272 1082.36 206.835 1082.36 206.296C1082.36 205.758 1081.93 205.321 1081.39 205.321C1080.85 205.321 1080.41 205.758 1080.41 206.296C1080.41 206.835 1080.85 207.272 1081.39 207.272Z" fill="white"/>
<path d="M1053.22 137.033C1053.76 137.033 1054.2 136.596 1054.2 136.057C1054.2 135.519 1053.76 135.082 1053.22 135.082C1052.68 135.082 1052.24 135.519 1052.24 136.057C1052.24 136.596 1052.68 137.033 1053.22 137.033Z" fill="white"/>
<path d="M863.11 386.528C863.649 386.528 864.086 386.091 864.086 385.552C864.086 385.013 863.649 384.577 863.11 384.577C862.572 384.577 862.135 385.013 862.135 385.552C862.135 386.091 862.572 386.528 863.11 386.528Z" fill="white"/>
<path d="M839.698 307.875C840.237 307.875 840.674 307.438 840.674 306.899C840.674 306.36 840.237 305.923 839.698 305.923C839.159 305.923 838.723 306.36 838.723 306.899C838.723 307.438 839.159 307.875 839.698 307.875Z" fill="white"/>
<path d="M978.956 359.944C979.495 359.944 979.932 359.507 979.932 358.969C979.932 358.43 979.495 357.993 978.956 357.993C978.417 357.993 977.98 358.43 977.98 358.969C977.98 359.507 978.417 359.944 978.956 359.944Z" fill="white"/>
<path d="M922.009 345.677C922.548 345.677 922.984 345.24 922.984 344.701C922.984 344.162 922.548 343.726 922.009 343.726C921.47 343.726 921.033 344.162 921.033 344.701C921.033 345.24 921.47 345.677 922.009 345.677Z" fill="white"/>
<path d="M827.626 66.3061C828.165 66.3061 828.601 65.8693 828.601 65.3305C828.601 64.7917 828.165 64.355 827.626 64.355C827.087 64.355 826.65 64.7917 826.65 65.3305C826.65 65.8693 827.087 66.3061 827.626 66.3061Z" fill="white"/>
<path d="M747.143 133.618C747.682 133.618 748.119 133.182 748.119 132.643C748.119 132.104 747.682 131.667 747.143 131.667C746.605 131.667 746.168 132.104 746.168 132.643C746.168 133.182 746.605 133.618 747.143 133.618Z" fill="white"/>
<path d="M1162.24 366.773C1162.77 366.773 1163.21 366.336 1163.21 365.797C1163.21 365.259 1162.77 364.822 1162.24 364.822C1161.7 364.822 1161.26 365.259 1161.26 365.797C1161.26 366.336 1161.7 366.773 1162.24 366.773Z" fill="white"/>
<path d="M1043.58 403.478C1044.12 403.478 1044.56 403.041 1044.56 402.502C1044.56 401.963 1044.12 401.527 1043.58 401.527C1043.05 401.527 1042.61 401.963 1042.61 402.502C1042.61 403.041 1043.05 403.478 1043.58 403.478Z" fill="white"/>
<path d="M948.226 71.7935C948.764 71.7935 949.201 71.3567 949.201 70.818C949.201 70.2792 948.764 69.8424 948.226 69.8424C947.687 69.8424 947.25 70.2792 947.25 70.818C947.25 71.3567 947.687 71.7935 948.226 71.7935Z" fill="white"/>
<path d="M938.958 74.7201C939.497 74.7201 939.933 74.2834 939.933 73.7446C939.933 73.2058 939.497 72.769 938.958 72.769C938.419 72.769 937.982 73.2058 937.982 73.7446C937.982 74.2834 938.419 74.7201 938.958 74.7201Z" fill="white"/>
<path d="M897.132 72.7691C897.671 72.7691 898.107 72.3323 898.107 71.7935C898.107 71.2548 897.671 70.818 897.132 70.818C896.593 70.818 896.156 71.2548 896.156 71.7935C896.156 72.3323 896.593 72.7691 897.132 72.7691Z" fill="white"/>
<path d="M901.767 12.8952C902.305 12.8952 902.742 12.4584 902.742 11.9196C902.742 11.3809 902.305 10.9441 901.767 10.9441C901.228 10.9441 900.791 11.3809 900.791 11.9196C900.791 12.4584 901.228 12.8952 901.767 12.8952Z" fill="white"/>
<path d="M884.938 133.618C885.477 133.618 885.914 133.182 885.914 132.643C885.914 132.104 885.477 131.667 884.938 131.667C884.4 131.667 883.963 132.104 883.963 132.643C883.963 133.182 884.4 133.618 884.938 133.618Z" fill="white"/>
<path d="M1103.09 4.60306C1103.63 4.60306 1104.07 4.16629 1104.07 3.62751C1104.07 3.08874 1103.63 2.65198 1103.09 2.65198C1102.55 2.65198 1102.12 3.08874 1102.12 3.62751C1102.12 4.16629 1102.55 4.60306 1103.09 4.60306Z" fill="white"/>
<path d="M1042.49 331.775C1043.03 331.775 1043.46 331.339 1043.46 330.8C1043.46 330.261 1043.03 329.824 1042.49 329.824C1041.95 329.824 1041.51 330.261 1041.51 330.8C1041.51 331.339 1041.95 331.775 1042.49 331.775Z" fill="white"/>
<path d="M1064.56 305.924C1065.1 305.924 1065.54 305.487 1065.54 304.948C1065.54 304.409 1065.1 303.972 1064.56 303.972C1064.02 303.972 1063.58 304.409 1063.58 304.948C1063.58 305.487 1064.02 305.924 1064.56 305.924Z" fill="white"/>
<path d="M1106.39 307.875C1106.92 307.875 1107.36 307.438 1107.36 306.899C1107.36 306.36 1106.92 305.923 1106.39 305.923C1105.85 305.923 1105.41 306.36 1105.41 306.899C1105.41 307.438 1105.85 307.875 1106.39 307.875Z" fill="white"/>
<path d="M1163.33 322.142C1163.87 322.142 1164.31 321.705 1164.31 321.166C1164.31 320.628 1163.87 320.191 1163.33 320.191C1162.79 320.191 1162.36 320.628 1162.36 321.166C1162.36 321.705 1162.79 322.142 1163.33 322.142Z" fill="white"/>
<path d="M1101.87 367.748C1102.41 367.748 1102.85 367.312 1102.85 366.773C1102.85 366.234 1102.41 365.797 1101.87 365.797C1101.34 365.797 1100.9 366.234 1100.9 366.773C1100.9 367.312 1101.34 367.748 1101.87 367.748Z" fill="white"/>
<path d="M1601.84 111.669C1602.38 111.669 1602.81 111.232 1602.81 110.693C1602.81 110.154 1602.38 109.718 1601.84 109.718C1601.3 109.718 1600.86 110.154 1600.86 110.693C1600.86 111.232 1601.3 111.669 1601.84 111.669Z" fill="white"/>
<path d="M1001.76 771.866C1002.3 771.866 1002.73 771.43 1002.73 770.891C1002.73 770.352 1002.3 769.915 1001.76 769.915C1001.22 769.915 1000.78 770.352 1000.78 770.891C1000.78 771.43 1001.22 771.866 1001.76 771.866Z" fill="white"/>
<path d="M1172.84 739.064C1173.38 739.064 1173.82 738.627 1173.82 738.088C1173.82 737.55 1173.38 737.113 1172.84 737.113C1172.31 737.113 1171.87 737.55 1171.87 738.088C1171.87 738.627 1172.31 739.064 1172.84 739.064Z" fill="white"/>
<path d="M1145.65 750.039C1146.19 750.039 1146.63 749.602 1146.63 749.063C1146.63 748.524 1146.19 748.088 1145.65 748.088C1145.11 748.088 1144.68 748.524 1144.68 749.063C1144.68 749.602 1145.11 750.039 1145.65 750.039Z" fill="white"/>
<path d="M1138.33 687.36C1138.87 687.36 1139.31 686.923 1139.31 686.385C1139.31 685.846 1138.87 685.409 1138.33 685.409C1137.8 685.409 1137.36 685.846 1137.36 686.385C1137.36 686.923 1137.8 687.36 1138.33 687.36Z" fill="white"/>
<path d="M1068.83 657.606C1069.37 657.606 1069.8 657.169 1069.8 656.631C1069.8 656.092 1069.37 655.655 1068.83 655.655C1068.29 655.655 1067.85 656.092 1067.85 656.631C1067.85 657.169 1068.29 657.606 1068.83 657.606Z" fill="white"/>
<path d="M1092.24 772.964C1092.78 772.964 1093.22 772.527 1093.22 771.988C1093.22 771.45 1092.78 771.013 1092.24 771.013C1091.7 771.013 1091.27 771.45 1091.27 771.988C1091.27 772.527 1091.7 772.964 1092.24 772.964Z" fill="white"/>
<path d="M851.282 576.758C851.821 576.758 852.258 576.321 852.258 575.783C852.258 575.244 851.821 574.807 851.282 574.807C850.743 574.807 850.307 575.244 850.307 575.783C850.307 576.321 850.743 576.758 851.282 576.758Z" fill="white"/>
<path d="M805.188 542.858C805.727 542.858 806.164 542.421 806.164 541.883C806.164 541.344 805.727 540.907 805.188 540.907C804.65 540.907 804.213 541.344 804.213 541.883C804.213 542.421 804.65 542.858 805.188 542.858Z" fill="white"/>
<path d="M663.976 431.329C664.514 431.329 664.951 430.892 664.951 430.353C664.951 429.814 664.514 429.378 663.976 429.378C663.437 429.378 663 429.814 663 430.353C663 430.892 663.437 431.329 663.976 431.329Z" fill="white"/>
<path d="M829.976 435.329C830.514 435.329 830.951 434.892 830.951 434.353C830.951 433.814 830.514 433.378 829.976 433.378C829.437 433.378 829 433.814 829 434.353C829 434.892 829.437 435.329 829.976 435.329Z" fill="white"/>
<path d="M976.03 460.913C976.569 460.913 977.006 460.476 977.006 459.937C977.006 459.398 976.569 458.962 976.03 458.962C975.492 458.962 975.055 459.398 975.055 459.937C975.055 460.476 975.492 460.913 976.03 460.913Z" fill="white"/>
<path d="M362.901 626.511C363.44 626.511 363.877 626.074 363.877 625.535C363.877 624.996 363.44 624.56 362.901 624.56C362.363 624.56 361.926 624.996 361.926 625.535C361.926 626.074 362.363 626.511 362.901 626.511Z" fill="white"/>
<path d="M967.128 550.175C967.667 550.175 968.103 549.738 968.103 549.199C968.103 548.66 967.667 548.224 967.128 548.224C966.589 548.224 966.152 548.66 966.152 549.199C966.152 549.738 966.589 550.175 967.128 550.175Z" fill="white"/>
<path d="M910.181 536.029C910.719 536.029 911.156 535.593 911.156 535.054C911.156 534.515 910.719 534.078 910.181 534.078C909.642 534.078 909.205 534.515 909.205 535.054C909.205 535.593 909.642 536.029 910.181 536.029Z" fill="white"/>
<path d="M866.647 702.237C867.186 702.237 867.623 701.8 867.623 701.262C867.623 700.723 867.186 700.286 866.647 700.286C866.109 700.286 865.672 700.723 865.672 701.262C865.672 701.8 866.109 702.237 866.647 702.237Z" fill="white"/>
<path d="M885.792 482.984C886.331 482.984 886.768 482.548 886.768 482.009C886.768 481.47 886.331 481.033 885.792 481.033C885.253 481.033 884.816 481.47 884.816 482.009C884.816 482.548 885.253 482.984 885.792 482.984Z" fill="white"/>
<path d="M842.015 481.033C842.553 481.033 842.99 480.596 842.99 480.058C842.99 479.519 842.553 479.082 842.015 479.082C841.476 479.082 841.039 479.519 841.039 480.058C841.039 480.596 841.476 481.033 842.015 481.033Z" fill="white"/>
<path d="M971.64 490.301C972.178 490.301 972.615 489.864 972.615 489.325C972.615 488.786 972.178 488.35 971.64 488.35C971.101 488.35 970.664 488.786 970.664 489.325C970.664 489.864 971.101 490.301 971.64 490.301Z" fill="white"/>
<path d="M954.933 611.024C955.471 611.024 955.908 610.587 955.908 610.049C955.908 609.51 955.471 609.073 954.933 609.073C954.394 609.073 953.957 609.51 953.957 610.049C953.957 610.587 954.394 611.024 954.933 611.024Z" fill="white"/>
<path d="M786.165 769.55C786.704 769.55 787.141 769.113 787.141 768.574C787.141 768.035 786.704 767.599 786.165 767.599C785.626 767.599 785.189 768.035 785.189 768.574C785.189 769.113 785.626 769.55 786.165 769.55Z" fill="white"/>
<path d="M477.976 558.329C478.514 558.329 478.951 557.892 478.951 557.353C478.951 556.814 478.514 556.378 477.976 556.378C477.437 556.378 477 556.814 477 557.353C477 557.892 477.437 558.329 477.976 558.329Z" fill="white"/>
<path d="M1031.76 593.708C1032.3 593.708 1032.73 593.271 1032.73 592.733C1032.73 592.194 1032.3 591.757 1031.76 591.757C1031.22 591.757 1030.78 592.194 1030.78 592.733C1030.78 593.271 1031.22 593.708 1031.76 593.708Z" fill="white"/>
<path d="M987.249 707.725C987.788 707.725 988.225 707.288 988.225 706.749C988.225 706.21 987.788 705.774 987.249 705.774C986.71 705.774 986.273 706.21 986.273 706.749C986.273 707.288 986.71 707.725 987.249 707.725Z" fill="white"/>
<path d="M977.979 710.651C978.518 710.651 978.955 710.214 978.955 709.676C978.955 709.137 978.518 708.7 977.979 708.7C977.441 708.7 977.004 709.137 977.004 709.676C977.004 710.214 977.441 710.651 977.979 710.651Z" fill="white"/>
<path d="M936.153 708.7C936.692 708.7 937.129 708.263 937.129 707.725C937.129 707.186 936.692 706.749 936.153 706.749C935.614 706.749 935.178 707.186 935.178 707.725C935.178 708.263 935.614 708.7 936.153 708.7Z" fill="white"/>
<path d="M940.667 648.826C941.206 648.826 941.643 648.389 941.643 647.851C941.643 647.312 941.206 646.875 940.667 646.875C940.128 646.875 939.691 647.312 939.691 647.851C939.691 648.389 940.128 648.826 940.667 648.826Z" fill="white"/>
<path d="M923.96 769.55C924.499 769.55 924.935 769.113 924.935 768.574C924.935 768.035 924.499 767.599 923.96 767.599C923.421 767.599 922.984 768.035 922.984 768.574C922.984 769.113 923.421 769.55 923.96 769.55Z" fill="white"/>
<path d="M1142.12 640.534C1142.65 640.534 1143.09 640.097 1143.09 639.559C1143.09 639.02 1142.65 638.583 1142.12 638.583C1141.58 638.583 1141.14 639.02 1141.14 639.559C1141.14 640.097 1141.58 640.534 1142.12 640.534Z" fill="white"/>
<path d="M1030.78 522.006C1031.32 522.006 1031.76 521.569 1031.76 521.03C1031.76 520.492 1031.32 520.055 1030.78 520.055C1030.24 520.055 1029.81 520.492 1029.81 521.03C1029.81 521.569 1030.24 522.006 1030.78 522.006Z" fill="white"/>
<path d="M1052.73 496.154C1053.27 496.154 1053.71 495.717 1053.71 495.179C1053.71 494.64 1053.27 494.203 1052.73 494.203C1052.19 494.203 1051.76 494.64 1051.76 495.179C1051.76 495.717 1052.19 496.154 1052.73 496.154Z" fill="white"/>
<path d="M1094.56 498.227C1095.1 498.227 1095.53 497.79 1095.53 497.252C1095.53 496.713 1095.1 496.276 1094.56 496.276C1094.02 496.276 1093.58 496.713 1093.58 497.252C1093.58 497.79 1094.02 498.227 1094.56 498.227Z" fill="white"/>
<path d="M1151.5 512.372C1152.04 512.372 1152.48 511.936 1152.48 511.397C1152.48 510.858 1152.04 510.421 1151.5 510.421C1150.97 510.421 1150.53 510.858 1150.53 511.397C1150.53 511.936 1150.97 512.372 1151.5 512.372Z" fill="white"/>
<path d="M1090.05 557.979C1090.58 557.979 1091.02 557.542 1091.02 557.003C1091.02 556.465 1090.58 556.028 1090.05 556.028C1089.51 556.028 1089.07 556.465 1089.07 557.003C1089.07 557.542 1089.51 557.979 1090.05 557.979Z" fill="white"/>
<path d="M608.86 574.563C609.399 574.563 609.836 574.126 609.836 573.588C609.836 573.049 609.399 572.612 608.86 572.612C608.322 572.612 607.885 573.049 607.885 573.588C607.885 574.126 608.322 574.563 608.86 574.563Z" fill="white"/>
<path d="M565.976 709.329C566.514 709.329 566.951 708.892 566.951 708.353C566.951 707.815 566.514 707.378 565.976 707.378C565.437 707.378 565 707.815 565 708.353C565 708.892 565.437 709.329 565.976 709.329Z" fill="white"/>
<path d="M426.976 741.329C427.514 741.329 427.951 740.892 427.951 740.353C427.951 739.814 427.514 739.378 426.976 739.378C426.437 739.378 426 739.814 426 740.353C426 740.892 426.437 741.329 426.976 741.329Z" fill="white"/>
<path d="M343.513 611.634C344.051 611.634 344.488 611.197 344.488 610.658C344.488 610.119 344.051 609.683 343.513 609.683C342.974 609.683 342.537 610.119 342.537 610.658C342.537 611.197 342.974 611.634 343.513 611.634Z" fill="white"/>
<path d="M470.976 429.329C471.514 429.329 471.951 428.892 471.951 428.353C471.951 427.814 471.514 427.378 470.976 427.378C470.437 427.378 470 427.814 470 428.353C470 428.892 470.437 429.329 470.976 429.329Z" fill="white"/>
<path d="M756.976 555.329C757.514 555.329 757.951 554.892 757.951 554.353C757.951 553.814 757.514 553.378 756.976 553.378C756.437 553.378 756 553.814 756 554.353C756 554.892 756.437 555.329 756.976 555.329Z" fill="white"/>
<path d="M745.436 490.057C745.975 490.057 746.412 489.62 746.412 489.081C746.412 488.543 745.975 488.106 745.436 488.106C744.898 488.106 744.461 488.543 744.461 489.081C744.461 489.62 744.898 490.057 745.436 490.057Z" fill="white"/>
<path d="M699.341 575.661C699.88 575.661 700.316 575.224 700.316 574.685C700.316 574.146 699.88 573.71 699.341 573.71C698.802 573.71 698.365 574.146 698.365 574.685C698.365 575.224 698.802 575.661 699.341 575.661Z" fill="white"/>
<path d="M588.983 66.0622C589.522 66.0622 589.959 65.6254 589.959 65.0866C589.959 64.5479 589.522 64.1111 588.983 64.1111C588.445 64.1111 588.008 64.5479 588.008 65.0866C588.008 65.6254 588.445 66.0622 588.983 66.0622Z" fill="white"/>
<path d="M626.175 105.815C626.714 105.815 627.15 105.379 627.15 104.84C627.15 104.301 626.714 103.864 626.175 103.864C625.636 103.864 625.199 104.301 625.199 104.84C625.199 105.379 625.636 105.815 626.175 105.815Z" fill="white"/>
<path d="M638.614 26.6747C639.153 26.6747 639.59 26.2379 639.59 25.6992C639.59 25.1604 639.153 24.7236 638.614 24.7236C638.075 24.7236 637.639 25.1604 637.639 25.6992C637.639 26.2379 638.075 26.6747 638.614 26.6747Z" fill="white"/>
<path d="M361.683 82.1586C362.221 82.1586 362.658 81.7218 362.658 81.1831C362.658 80.6443 362.221 80.2075 361.683 80.2075C361.144 80.2075 360.707 80.6443 360.707 81.1831C360.707 81.7218 361.144 82.1586 361.683 82.1586Z" fill="white"/>
<path d="M315.587 48.3805C316.126 48.3805 316.562 47.9438 316.562 47.405C316.562 46.8662 316.126 46.4294 315.587 46.4294C315.048 46.4294 314.611 46.8662 314.611 47.405C314.611 47.9438 315.048 48.3805 315.587 48.3805Z" fill="white"/>
<path d="M338.268 3.62759C338.807 3.62759 339.244 3.19084 339.244 2.65206C339.244 2.11328 338.807 1.67651 338.268 1.67651C337.73 1.67651 337.293 2.11328 337.293 2.65206C337.293 3.19084 337.73 3.62759 338.268 3.62759Z" fill="white"/>
<path d="M477.528 55.5751C478.067 55.5751 478.504 55.1383 478.504 54.5996C478.504 54.0608 478.067 53.624 477.528 53.624C476.99 53.624 476.553 54.0608 476.553 54.5996C476.553 55.1383 476.99 55.5751 477.528 55.5751Z" fill="white"/>
<path d="M420.581 41.4297C421.12 41.4297 421.557 40.993 421.557 40.4542C421.557 39.9154 421.12 39.4786 420.581 39.4786C420.042 39.4786 419.605 39.9154 419.605 40.4542C419.605 40.993 420.042 41.4297 420.581 41.4297Z" fill="white"/>
<path d="M660.808 62.5258C661.346 62.5258 661.783 62.089 661.783 61.5502C661.783 61.0115 661.346 60.5747 660.808 60.5747C660.269 60.5747 659.832 61.0115 659.832 61.5502C659.832 62.089 660.269 62.5258 660.808 62.5258Z" fill="white"/>
<path d="M542.036 99.1087C542.575 99.1087 543.012 98.6719 543.012 98.1331C543.012 97.5944 542.575 97.1576 542.036 97.1576C541.497 97.1576 541.061 97.5944 541.061 98.1331C541.061 98.6719 541.497 99.1087 542.036 99.1087Z" fill="white"/>
<path d="M541.06 27.4064C541.598 27.4064 542.035 26.9696 542.035 26.4309C542.035 25.8921 541.598 25.4553 541.06 25.4553C540.521 25.4553 540.084 25.8921 540.084 26.4309C540.084 26.9696 540.521 27.4064 541.06 27.4064Z" fill="white"/>
<path d="M563.132 1.67642C563.671 1.67642 564.107 1.23965 564.107 0.700878C564.107 0.162101 563.671 -0.274658 563.132 -0.274658C562.593 -0.274658 562.156 0.162101 562.156 0.700878C562.156 1.23965 562.593 1.67642 563.132 1.67642Z" fill="white"/>
<path d="M604.958 3.62759C605.497 3.62759 605.934 3.19084 605.934 2.65206C605.934 2.11328 605.497 1.67651 604.958 1.67651C604.419 1.67651 603.982 2.11328 603.982 2.65206C603.982 3.19084 604.419 3.62759 604.958 3.62759Z" fill="white"/>
<path d="M661.782 17.7729C662.321 17.7729 662.758 17.3361 662.758 16.7973C662.758 16.2585 662.321 15.8218 661.782 15.8218C661.243 15.8218 660.807 16.2585 660.807 16.7973C660.807 17.3361 661.243 17.7729 661.782 17.7729Z" fill="white"/>
<path d="M600.446 63.5014C600.985 63.5014 601.422 63.0646 601.422 62.5258C601.422 61.9871 600.985 61.5503 600.446 61.5503C599.907 61.5503 599.471 61.9871 599.471 62.5258C599.471 63.0646 599.907 63.5014 600.446 63.5014Z" fill="white"/>
<path d="M474.601 156.666C475.139 156.666 475.576 156.229 475.576 155.69C475.576 155.151 475.139 154.714 474.601 154.714C474.062 154.714 473.625 155.151 473.625 155.69C473.625 156.229 474.062 156.666 474.601 156.666Z" fill="white"/>
<path d="M593.13 193.858C593.669 193.858 594.105 193.421 594.105 192.883C594.105 192.344 593.669 191.907 593.13 191.907C592.591 191.907 592.154 192.344 592.154 192.883C592.154 193.421 592.591 193.858 593.13 193.858Z" fill="white"/>
<path d="M650.077 208.004C650.616 208.004 651.053 207.567 651.053 207.028C651.053 206.489 650.616 206.052 650.077 206.052C649.538 206.052 649.102 206.489 649.102 207.028C649.102 207.567 649.538 208.004 650.077 208.004Z" fill="white"/>
<path d="M244.007 185.81C244.546 185.81 244.982 185.373 244.982 184.834C244.982 184.296 244.546 183.859 244.007 183.859C243.468 183.859 243.031 184.296 243.031 184.834C243.031 185.373 243.468 185.81 244.007 185.81Z" fill="white"/>
<path d="M775.19 78.1345C775.729 78.1345 776.166 77.6978 776.166 77.159C776.166 76.6202 775.729 76.1835 775.19 76.1835C774.652 76.1835 774.215 76.6202 774.215 77.159C774.215 77.6978 774.652 78.1345 775.19 78.1345Z" fill="white"/>
<path d="M749.339 56.0629C749.878 56.0629 750.314 55.6261 750.314 55.0874C750.314 54.5486 749.878 54.1118 749.339 54.1118C748.8 54.1118 748.363 54.5486 748.363 55.0874C748.363 55.6261 748.8 56.0629 749.339 56.0629Z" fill="white"/>
<path d="M751.288 14.3586C751.827 14.3586 752.264 13.9218 752.264 13.383C752.264 12.8442 751.827 12.4075 751.288 12.4075C750.749 12.4075 750.312 12.8442 750.312 13.383C750.312 13.9218 750.749 14.3586 751.288 14.3586Z" fill="white"/>
<path d="M811.163 18.8704C811.702 18.8704 812.139 18.4336 812.139 17.8949C812.139 17.3561 811.702 16.9193 811.163 16.9193C810.624 16.9193 810.188 17.3561 810.188 17.8949C810.188 18.4336 810.624 18.8704 811.163 18.8704Z" fill="white"/>
<path d="M690.44 2.16422C690.979 2.16422 691.416 1.72745 691.416 1.18867C691.416 0.649894 690.979 0.213135 690.44 0.213135C689.902 0.213135 689.465 0.649894 689.465 1.18867C689.465 1.72745 689.902 2.16422 690.44 2.16422Z" fill="white"/>
<path d="M825.917 65.0866C826.456 65.0866 826.892 64.6498 826.892 64.111C826.892 63.5723 826.456 63.1355 825.917 63.1355C825.378 63.1355 824.941 63.5723 824.941 64.111C824.941 64.6498 825.378 65.0866 825.917 65.0866Z" fill="white"/>
<path d="M779.823 31.1866C780.362 31.1866 780.799 30.7498 780.799 30.211C780.799 29.6722 780.362 29.2355 779.823 29.2355C779.284 29.2355 778.848 29.6722 778.848 30.211C778.848 30.7498 779.284 31.1866 779.823 31.1866Z" fill="white"/>
<path d="M754.46 30.0892C754.999 30.0892 755.435 29.6524 755.435 29.1136C755.435 28.5748 754.999 28.1381 754.46 28.1381C753.921 28.1381 753.484 28.5748 753.484 29.1136C753.484 29.6524 753.921 30.0892 754.46 30.0892Z" fill="white"/>
<path d="M727.267 41.0639C727.805 41.0639 728.242 40.6271 728.242 40.0883C728.242 39.5496 727.805 39.1128 727.267 39.1128C726.728 39.1128 726.291 39.5496 726.291 40.0883C726.291 40.6271 726.728 41.0639 727.267 41.0639Z" fill="white"/>
<path d="M468.138 31.6743C468.676 31.6743 469.113 31.2376 469.113 30.6988C469.113 30.16 468.676 29.7233 468.138 29.7233C467.599 29.7233 467.162 30.16 467.162 30.6988C467.162 31.2376 467.599 31.6743 468.138 31.6743Z" fill="white"/>
<path d="M442.286 9.60269C442.825 9.60269 443.262 9.16592 443.262 8.62715C443.262 8.08837 442.825 7.65161 442.286 7.65161C441.747 7.65161 441.311 8.08837 441.311 8.62715C441.311 9.16592 441.747 9.60269 442.286 9.60269Z" fill="white"/>
<path d="M518.866 18.6265C519.405 18.6265 519.842 18.1897 519.842 17.651C519.842 17.1122 519.405 16.6754 518.866 16.6754C518.327 16.6754 517.891 17.1122 517.891 17.651C517.891 18.1897 518.327 18.6265 518.866 18.6265Z" fill="white"/>
<path d="M197.913 271.292C198.452 271.292 198.889 270.855 198.889 270.316C198.889 269.777 198.452 269.341 197.913 269.341C197.374 269.341 196.938 269.777 196.938 270.316C196.938 270.855 197.374 271.292 197.913 271.292Z" fill="white"/>
<path d="M463.138 791.255C463.676 791.255 464.113 790.819 464.113 790.28C464.113 789.741 463.676 789.304 463.138 789.304C462.599 789.304 462.162 789.741 462.162 790.28C462.162 790.819 462.599 791.255 463.138 791.255Z" fill="white"/>
<path d="M247.976 559.329C248.514 559.329 248.951 558.892 248.951 558.353C248.951 557.814 248.514 557.378 247.976 557.378C247.437 557.378 247 557.814 247 558.353C247 558.892 247.437 559.329 247.976 559.329Z" fill="white"/>
<path d="M568.132 784.305C568.671 784.305 569.107 783.868 569.107 783.329C569.107 782.79 568.671 782.354 568.132 782.354C567.593 782.354 567.156 782.79 567.156 783.329C567.156 783.868 567.593 784.305 568.132 784.305Z" fill="white"/>
<path d="M393.143 572.246C393.682 572.246 394.119 571.809 394.119 571.271C394.119 570.732 393.682 570.295 393.143 570.295C392.605 570.295 392.168 570.732 392.168 571.271C392.168 571.809 392.605 572.246 393.143 572.246Z" fill="white"/>
<path d="M531.06 572.246C531.598 572.246 532.035 571.809 532.035 571.271C532.035 570.732 531.598 570.295 531.06 570.295C530.521 570.295 530.084 570.732 530.084 571.271C530.084 571.809 530.521 572.246 531.06 572.246Z" fill="white"/>
<path d="M688.61 770.281C689.149 770.281 689.586 769.845 689.586 769.306C689.586 768.767 689.149 768.33 688.61 768.33C688.072 768.33 687.635 768.767 687.635 769.306C687.635 769.845 688.072 770.281 688.61 770.281Z" fill="white"/>
<path d="M710.683 744.551C711.221 744.551 711.658 744.115 711.658 743.576C711.658 743.037 711.221 742.6 710.683 742.6C710.144 742.6 709.707 743.037 709.707 743.576C709.707 744.115 710.144 744.551 710.683 744.551Z" fill="white"/>
<path d="M752.976 746.951C753.514 746.951 753.951 746.514 753.951 745.976C753.951 745.437 753.514 745 752.976 745C752.437 745 752 745.437 752 745.976C752 746.514 752.437 746.951 752.976 746.951Z" fill="white"/>
<path d="M809.333 760.648C809.872 760.648 810.308 760.211 810.308 759.672C810.308 759.133 809.872 758.697 809.333 758.697C808.794 758.697 808.357 759.133 808.357 759.672C808.357 760.211 808.794 760.648 809.333 760.648Z" fill="white"/>
</svg>
