<svg width="344" height="649" viewBox="0 0 344 649" fill="none" xmlns="http://www.w3.org/2000/svg">
<g opacity="0.8">
<ellipse opacity="0.8" rx="2.78147" ry="2.59989" transform="matrix(-1 0 0 1 292.028 154.547)" fill="white"/>
<path opacity="0.2" d="M-25.7042 304.574C-25.7042 407.338 63.4315 490.705 173.464 490.705C283.497 490.705 372.632 407.338 372.632 304.574C372.632 201.811 283.497 118.444 173.464 118.444C63.4315 118.444 -25.7042 201.811 -25.7042 304.574Z" stroke="url(#paint0_linear)" stroke-width="1.08316"/>
<path opacity="0.2" d="M121.142 391.997C173.044 420.006 239.381 403.373 269.324 354.897C299.267 306.42 281.509 244.404 229.607 216.395C177.705 188.385 111.368 205.019 81.4251 253.495C51.4824 301.972 69.2401 363.987 121.142 391.997Z" stroke="url(#paint1_linear)" stroke-width="1.08316"/>
<path opacity="0.2" d="M249.787 578.427C410.801 538.099 506.303 383.421 463.18 232.99C420.057 82.5585 254.609 -6.76294 93.5946 33.5643C-67.4201 73.8916 -162.922 228.57 -119.799 379.001C-76.6761 529.432 88.7718 618.754 249.787 578.427Z" stroke="url(#paint2_linear)" stroke-width="1.08316"/>
<path opacity="0.2" d="M284.742 154.584C284.742 158.272 287.951 161.322 291.988 161.322C296.025 161.322 299.235 158.272 299.235 154.584C299.235 150.897 296.025 147.846 291.988 147.846C287.951 147.846 284.742 150.897 284.742 154.584Z" stroke="url(#paint3_linear)" stroke-width="1.08316"/>
<path opacity="0.2" d="M64.4961 285.19C64.4961 287.249 66.2938 288.981 68.5897 288.981C70.8856 288.981 72.6834 287.249 72.6834 285.19C72.6834 283.13 70.8856 281.399 68.5897 281.399C66.2938 281.399 64.4961 283.13 64.4961 285.19Z" stroke="url(#paint4_linear)" stroke-width="1.08316"/>
<path opacity="0.2" d="M-0.397727 208.325C-0.397727 210.385 1.40005 212.116 3.69593 212.116C5.99182 212.116 7.7896 210.385 7.7896 208.325C7.7896 206.265 5.99182 204.534 3.69593 204.534C1.40005 204.534 -0.397727 206.265 -0.397727 208.325Z" stroke="url(#paint5_linear)" stroke-width="1.08316"/>
<ellipse rx="1.66888" ry="1.55994" transform="matrix(-1 0 0 1 68.4678 285.127)" fill="white"/>
<ellipse rx="1.66888" ry="1.55994" transform="matrix(-1 0 0 1 3.57343 208.263)" fill="white"/>
</g>
<defs>
<linearGradient id="paint0_linear" x1="318.935" y1="36.7853" x2="351.78" y2="405.609" gradientUnits="userSpaceOnUse">
<stop stop-color="white"/>
<stop offset="1" stop-color="white" stop-opacity="0"/>
</linearGradient>
<linearGradient id="paint1_linear" x1="115.472" y1="154.187" x2="256.359" y2="364.172" gradientUnits="userSpaceOnUse">
<stop stop-color="white"/>
<stop offset="1" stop-color="white" stop-opacity="0"/>
</linearGradient>
<linearGradient id="paint2_linear" x1="-260.399" y1="121.667" x2="460.965" y2="248.451" gradientUnits="userSpaceOnUse">
<stop stop-color="white"/>
<stop offset="1" stop-color="white" stop-opacity="0"/>
</linearGradient>
<linearGradient id="paint3_linear" x1="300.395" y1="148.805" x2="292.795" y2="162.317" gradientUnits="userSpaceOnUse">
<stop stop-color="white"/>
<stop offset="1" stop-color="white" stop-opacity="0"/>
</linearGradient>
<linearGradient id="paint4_linear" x1="73.593" y1="281.75" x2="69.0698" y2="289.792" gradientUnits="userSpaceOnUse">
<stop stop-color="white"/>
<stop offset="1" stop-color="white" stop-opacity="0"/>
</linearGradient>
<linearGradient id="paint5_linear" x1="8.69916" y1="204.886" x2="4.176" y2="212.928" gradientUnits="userSpaceOnUse">
<stop stop-color="white"/>
<stop offset="1" stop-color="white" stop-opacity="0"/>
</linearGradient>
</defs>
</svg>
