<svg width="1920" height="479" viewBox="0 0 1920 479" fill="none" xmlns="http://www.w3.org/2000/svg">
<path opacity="0.1" d="M1430.85 196.241C1428.73 178.333 1420.78 160.915 1407.01 147.144C1374.46 114.594 1321.66 114.594 1289.11 147.144C1281 155.254 1274.85 164.671 1270.82 174.686C1270.44 174.251 1270.01 173.815 1269.57 173.38C1251.5 155.309 1222.22 155.309 1204.15 173.38C1199.41 178.115 1195.93 183.613 1193.7 189.491C1190.48 185.572 1187.11 181.817 1183.46 178.17C1124.24 118.949 1028.28 118.949 969.058 178.17C946.959 200.269 933.133 227.43 927.527 255.952C923.336 249.039 918.219 242.507 912.232 236.52C881.206 205.494 835.43 198.2 797.491 214.693C793.463 172.672 775.392 131.74 743.169 99.5711C671.429 27.8309 556.198 26.0891 482.335 94.2913C479.45 85.6368 474.551 77.5265 467.638 70.6138C443.798 46.773 405.206 46.773 381.365 70.6138C357.524 94.4546 357.524 133.046 381.365 156.887C394.918 170.44 413.207 176.265 430.897 174.414C409.724 239.622 425.019 314.084 476.837 365.903C550.374 439.439 669.632 439.439 743.169 365.903C744.911 364.161 746.543 362.419 748.176 360.677C752.749 368.787 758.464 376.462 765.377 383.375C805.928 423.926 871.626 423.926 912.177 383.375C923.499 372.053 931.609 358.827 936.617 344.675C944.02 362.092 954.797 378.422 969.003 392.574C1028.22 451.795 1124.19 451.795 1183.41 392.574C1221.95 354.037 1235.39 299.932 1223.74 250.509C1239.47 255.135 1257.11 251.216 1269.52 238.86C1269.95 238.425 1270.33 237.99 1270.77 237.554C1274.85 247.569 1280.95 256.986 1289.06 265.096C1321.61 297.646 1374.41 297.646 1406.96 265.096C1410.93 261.123 1414.36 256.877 1417.35 252.414C1419.58 257.095 1422.63 261.504 1426.5 265.423C1444.57 283.494 1473.85 283.494 1491.92 265.423C1509.99 247.352 1509.99 218.068 1491.92 199.997C1475.27 183.286 1448.98 182.034 1430.85 196.241ZM1634.59 115.792C1602.04 83.2418 1549.24 83.2418 1516.69 115.792C1484.14 148.341 1484.14 201.14 1516.69 233.689C1549.24 266.239 1602.04 266.239 1634.59 233.689C1667.14 201.14 1667.14 148.341 1634.59 115.792Z" fill="#CCCCD6"/>
<path d="M1955.51 89.3604C1955.51 138.193 1915.92 177.78 1867.09 177.78C1818.26 177.78 1778.67 138.193 1778.67 89.3604C1778.67 40.5277 1818.26 0.94104 1867.09 0.94104C1915.92 0.94104 1955.51 40.5277 1955.51 89.3604Z" fill="#EFEFF3"/>
<path d="M1780.12 94.5955C1729.61 94.5955 1686.38 125.796 1668.62 169.964C1661.44 166.722 1653.51 164.87 1645.18 164.87C1616.89 164.87 1593.39 185.651 1589.17 212.8C1578.41 209.616 1567.06 207.937 1555.26 207.937C1522.74 207.937 1493.29 220.846 1471.65 241.859C1450.93 224.956 1424.54 214.883 1395.79 214.883C1362.75 214.883 1332.83 228.197 1311.13 249.789C1302.62 229.239 1282.37 214.768 1258.7 214.768C1246.73 214.768 1235.62 218.472 1226.47 224.782C1202.87 204.811 1172.37 192.771 1139.1 192.771C1072.84 192.771 1017.7 240.411 1006.01 303.334C992.933 300.44 979.335 298.877 965.39 298.877C927.952 298.877 893.117 309.933 863.896 328.978C863.896 328.688 863.896 328.457 863.896 328.167C863.896 296.851 838.493 271.439 807.188 271.439C794.4 271.439 782.538 275.722 773.048 282.842C766.22 279.948 758.698 278.327 750.828 278.327C750.713 278.327 750.597 278.327 750.481 278.327C750.481 247.01 725.079 221.598 693.774 221.598C662.469 221.598 637.067 247.01 637.067 278.327C637.067 289.152 640.134 299.282 645.399 307.907C644.821 308.37 644.242 308.775 643.721 309.238C636.083 287.647 615.831 272.075 591.817 271.439C576.193 241.801 545.062 221.598 509.186 221.598C501.027 221.598 493.1 222.64 485.52 224.608C452.942 109.935 347.513 26.0001 222.468 26.0001C71.4413 26.0001 -51 148.488 -51 299.513C-51 450.539 71.4413 573.027 222.41 573.027C337.097 573.027 435.235 502.405 475.856 402.262C486.156 406.198 497.382 408.34 509.07 408.34C534.126 408.34 556.924 398.441 573.705 382.349C578.913 383.912 584.41 384.78 590.139 384.78C603.853 384.78 616.409 379.918 626.188 371.871C633.942 393.926 654.947 409.729 679.655 409.729C698.692 409.729 715.531 400.352 725.831 385.938C733.353 389.643 741.802 391.727 750.771 391.727C763.559 391.727 775.421 387.443 784.911 380.323C791.739 383.217 799.261 384.838 807.13 384.838C807.593 384.838 807.999 384.838 808.461 384.838C790.003 413.723 779.298 448.108 779.298 484.924C779.298 587.73 862.565 671.029 965.332 671.029C1068.1 671.029 1151.37 587.73 1151.37 484.924C1151.37 477.514 1150.96 470.278 1150.09 463.1C1219.7 457.485 1274.39 399.194 1274.39 328.109C1274.39 327.357 1274.39 326.662 1274.39 325.91C1274.91 325.736 1275.43 325.62 1275.95 325.447C1275.72 328.63 1275.54 331.814 1275.54 335.056C1275.54 401.451 1329.36 455.286 1395.73 455.286C1428.25 455.286 1457.7 442.377 1479.34 421.364C1500.06 438.267 1526.44 448.339 1555.2 448.339C1621.57 448.339 1675.39 394.505 1675.39 328.109C1675.39 309.18 1670.99 291.294 1663.24 275.317C1666.88 274.101 1670.41 272.48 1673.65 270.57C1693.73 308.833 1733.89 334.998 1780.12 334.998C1846.49 334.998 1900.31 281.163 1900.31 214.768C1900.25 148.43 1846.49 94.5955 1780.12 94.5955Z" fill="#EFEFF3"/>
<path d="M1990 153.132C1990 200.537 1966.83 237.187 1921 243V722H-4V323.276C-4 258.91 50.1152 206.77 114.451 206.77C178.786 206.77 230.901 258.91 230.901 323.276C230.901 329.508 230.422 335.681 229.464 341.674C238.569 339.397 248.093 338.198 257.857 338.198C276.787 338.198 294.638 342.753 310.392 350.724C314.885 290.493 365.203 243.028 426.543 243.028C463.084 243.028 495.73 259.869 517.056 286.238C531.372 253.277 564.199 230.203 602.417 230.203C643.81 230.203 678.853 257.232 690.953 294.629C712.039 286.238 735.041 281.624 759.122 281.624C815.371 281.624 865.749 306.855 899.594 346.589C910.855 344.131 922.596 342.813 934.637 342.813C945.898 342.813 956.86 343.952 967.463 346.109C1022.27 255.254 1121.89 194.544 1235.71 194.544C1339.76 194.544 1431.95 245.306 1488.92 323.455C1518.27 324.534 1545.82 332.505 1570.14 345.75C1595.54 258.371 1676.17 194.544 1771.66 194.544C1786.87 194.544 1801.73 196.222 1816.04 199.279C1808.26 185.675 1803.82 169.913 1803.82 153.132C1803.82 101.712 1845.52 60 1896.91 60C1948.31 60 1990 101.712 1990 153.132Z" fill="white"/>
</svg>
