<svg width="25" height="20" viewBox="0 0 25 20" fill="none" xmlns="http://www.w3.org/2000/svg">
<path d="M24.1667 0.708434L20.3444 19.1674C20.3444 19.1674 19.8099 20.4476 18.3398 19.8331L9.51958 13.3558L6.31234 11.871L0.913324 10.13C0.913324 10.13 0.084764 9.8485 0.00451604 9.23404C-0.0757319 8.61959 0.940073 8.28683 0.940073 8.28683L22.4024 0.222255C22.4024 0.222255 24.1665 -0.520147 24.1665 0.708756" fill="#01D4E4"/>
<path d="M9.1267 19.1666C9.1267 19.1666 8.87624 19.1438 8.56398 18.1816C8.2522 17.2195 6.66602 12.1559 6.66602 12.1559L19.2765 4.35793C19.2765 4.35793 20.0046 3.92749 19.9786 4.35793C19.9786 4.35793 20.1085 4.43395 19.7184 4.78837C19.3285 5.14295 9.81221 13.4726 9.81221 13.4726" fill="#108F9B"/>
<path opacity="0.3" d="M12.4993 15.9312L9.63493 19.0491C9.63493 19.0491 9.41091 19.252 9.16602 19.1248L9.71455 13.3334" fill="#01D4E4"/>
</svg>
