<svg width="1368" height="532" viewBox="0 0 1368 532" fill="none" xmlns="http://www.w3.org/2000/svg">
<mask id="mask0" style="mask-type:alpha" maskUnits="userSpaceOnUse" x="0" y="0" width="1368" height="532">
<path d="M0 24C0 10.7452 10.7452 0 24 0H1344C1357.25 0 1368 10.7452 1368 24V532H0V24Z" fill="url(#paint0_linear)"/>
</mask>
<g mask="url(#mask0)">
<g opacity="0.75">
<path d="M181.878 75.9367C182.417 75.9367 182.853 75.5 182.853 74.9612C182.853 74.4224 182.417 73.9857 181.878 73.9857C181.339 73.9857 180.902 74.4224 180.902 74.9612C180.902 75.5 181.339 75.9367 181.878 75.9367Z" fill="white"/>
<path d="M163.976 33.3288C164.514 33.3288 164.951 32.892 164.951 32.3532C164.951 31.8145 164.514 31.3777 163.976 31.3777C163.437 31.3777 163 31.8145 163 32.3532C163 32.892 163.437 33.3288 163.976 33.3288Z" fill="white"/>
<path d="M8.2314 204.342C8.77018 204.342 9.20695 203.906 9.20695 203.367C9.20695 202.828 8.77018 202.391 8.2314 202.391C7.69263 202.391 7.25586 202.828 7.25586 203.367C7.25586 203.906 7.69263 204.342 8.2314 204.342Z" fill="white"/>
<path d="M46.0341 84.2289C46.5729 84.2289 47.0097 83.7921 47.0097 83.2533C47.0097 82.7145 46.5729 82.2778 46.0341 82.2778C45.4954 82.2778 45.0586 82.7145 45.0586 83.2533C45.0586 83.7921 45.4954 84.2289 46.0341 84.2289Z" fill="white"/>
<path d="M29.206 3.25891C29.7448 3.25891 30.1816 2.82216 30.1816 2.28339C30.1816 1.74461 29.7448 1.30786 29.206 1.30786C28.6672 1.30786 28.2305 1.74461 28.2305 2.28339C28.2305 2.82216 28.6672 3.25891 29.206 3.25891Z" fill="white"/>
<path d="M374.669 3.25891C375.208 3.25891 375.644 2.82216 375.644 2.28339C375.644 1.74461 375.208 1.30786 374.669 1.30786C374.13 1.30786 373.693 1.74461 373.693 2.28339C373.693 2.82216 374.13 3.25891 374.669 3.25891Z" fill="white"/>
<path d="M1033.16 67.6446C1033.7 67.6446 1034.13 67.2078 1034.13 66.6691C1034.13 66.1303 1033.7 65.6935 1033.16 65.6935C1032.62 65.6935 1032.18 66.1303 1032.18 66.6691C1032.18 67.2078 1032.62 67.6446 1033.16 67.6446Z" fill="white"/>
<path d="M1023.41 76.4245C1023.94 76.4245 1024.38 75.9878 1024.38 75.449C1024.38 74.9102 1023.94 74.4734 1023.41 74.4734C1022.87 74.4734 1022.43 74.9102 1022.43 75.449C1022.43 75.9878 1022.87 76.4245 1023.41 76.4245Z" fill="white"/>
<path d="M1171.57 39.232C1172.1 39.232 1172.54 38.7952 1172.54 38.2565C1172.54 37.7177 1172.1 37.2809 1171.57 37.2809C1171.03 37.2809 1170.59 37.7177 1170.59 38.2565C1170.59 38.7952 1171.03 39.232 1171.57 39.232Z" fill="white"/>
<path d="M1081.33 61.3036C1081.87 61.3036 1082.3 60.8669 1082.3 60.3281C1082.3 59.7893 1081.87 59.3525 1081.33 59.3525C1080.79 59.3525 1080.35 59.7893 1080.35 60.3281C1080.35 60.8669 1080.79 61.3036 1081.33 61.3036Z" fill="white"/>
<path d="M1037.55 59.3525C1038.09 59.3525 1038.53 58.9158 1038.53 58.377C1038.53 57.8382 1038.09 57.4015 1037.55 57.4015C1037.01 57.4015 1036.57 57.8382 1036.57 58.377C1036.57 58.9158 1037.01 59.3525 1037.55 59.3525Z" fill="white"/>
<path d="M1167.17 68.6202C1167.71 68.6202 1168.15 68.1834 1168.15 67.6446C1168.15 67.1059 1167.71 66.6691 1167.17 66.6691C1166.64 66.6691 1166.2 67.1059 1166.2 67.6446C1166.2 68.1834 1166.64 68.6202 1167.17 68.6202Z" fill="white"/>
<path d="M1038.52 19.1115C1039.06 19.1115 1039.5 18.6747 1039.5 18.1359C1039.5 17.5972 1039.06 17.1604 1038.52 17.1604C1037.99 17.1604 1037.55 17.5972 1037.55 18.1359C1037.55 18.6747 1037.99 19.1115 1038.52 19.1115Z" fill="white"/>
<path d="M1119.49 2.40531C1120.03 2.40531 1120.47 1.96853 1120.47 1.42975C1120.47 0.890974 1120.03 0.454224 1119.49 0.454224C1118.96 0.454224 1118.52 0.890974 1118.52 1.42975C1118.52 1.96853 1118.96 2.40531 1119.49 2.40531Z" fill="white"/>
<path d="M981.577 334.869C982.116 334.869 982.553 334.432 982.553 333.893C982.553 333.355 982.116 332.918 981.577 332.918C981.038 332.918 980.602 333.355 980.602 333.893C980.602 334.432 981.038 334.869 981.577 334.869Z" fill="white"/>
<path d="M1345.94 135.323C1346.48 135.323 1346.92 134.886 1346.92 134.347C1346.92 133.808 1346.48 133.372 1345.94 133.372C1345.4 133.372 1344.97 133.808 1344.97 134.347C1344.97 134.886 1345.4 135.323 1345.94 135.323Z" fill="white"/>
<path d="M1136.2 227.146C1136.74 227.146 1137.18 226.709 1137.18 226.17C1137.18 225.631 1136.74 225.195 1136.2 225.195C1135.66 225.195 1135.23 225.631 1135.23 226.17C1135.23 226.709 1135.66 227.146 1136.2 227.146Z" fill="white"/>
<path d="M1337.53 218.854C1338.07 218.854 1338.5 218.417 1338.5 217.878C1338.5 217.339 1338.07 216.902 1337.53 216.902C1336.99 216.902 1336.55 217.339 1336.55 217.878C1336.55 218.417 1336.99 218.854 1337.53 218.854Z" fill="white"/>
<path d="M1248.27 74.4734C1248.81 74.4734 1249.24 74.0366 1249.24 73.4979C1249.24 72.9591 1248.81 72.5223 1248.27 72.5223C1247.73 72.5223 1247.29 72.9591 1247.29 73.4979C1247.29 74.0366 1247.73 74.4734 1248.27 74.4734Z" fill="white"/>
<path d="M1290.09 76.4245C1290.63 76.4245 1291.07 75.9878 1291.07 75.449C1291.07 74.9102 1290.63 74.4734 1290.09 74.4734C1289.55 74.4734 1289.12 74.9102 1289.12 75.449C1289.12 75.9878 1289.55 76.4245 1290.09 76.4245Z" fill="white"/>
<path d="M1346.92 90.6918C1347.46 90.6918 1347.89 90.2551 1347.89 89.7163C1347.89 89.1775 1347.46 88.7407 1346.92 88.7407C1346.38 88.7407 1345.94 89.1775 1345.94 89.7163C1345.94 90.2551 1346.38 90.6918 1346.92 90.6918Z" fill="white"/>
<path d="M1193.51 12.7705C1194.05 12.7705 1194.49 12.3337 1194.49 11.7949C1194.49 11.2561 1194.05 10.8194 1193.51 10.8194C1192.98 10.8194 1192.54 11.2561 1192.54 11.7949C1192.54 12.3337 1192.98 12.7705 1193.51 12.7705Z" fill="white"/>
<path d="M1302.29 15.5751C1302.83 15.5751 1303.26 15.1384 1303.26 14.5996C1303.26 14.0608 1302.83 13.624 1302.29 13.624C1301.75 13.624 1301.31 14.0608 1301.31 14.5996C1301.31 15.1384 1301.75 15.5751 1302.29 15.5751Z" fill="white"/>
<path d="M955.604 21.0625C956.143 21.0625 956.58 20.6258 956.58 20.087C956.58 19.5482 956.143 19.1115 955.604 19.1115C955.066 19.1115 954.629 19.5482 954.629 20.087C954.629 20.6258 955.066 21.0625 955.604 21.0625Z" fill="white"/>
<path d="M871.585 14.4776C872.124 14.4776 872.56 14.0409 872.56 13.5021C872.56 12.9633 872.124 12.5266 871.585 12.5266C871.046 12.5266 870.609 12.9633 870.609 13.5021C870.609 14.0409 871.046 14.4776 871.585 14.4776Z" fill="white"/>
<path d="M829.759 369.866C830.298 369.866 830.734 369.43 830.734 368.891C830.734 368.352 830.298 367.915 829.759 367.915C829.22 367.915 828.783 368.352 828.783 368.891C828.783 369.43 829.22 369.866 829.759 369.866Z" fill="white"/>
<path d="M1000.84 337.064C1001.38 337.064 1001.82 336.627 1001.82 336.088C1001.82 335.55 1001.38 335.113 1000.84 335.113C1000.31 335.113 999.869 335.55 999.869 336.088C999.869 336.627 1000.31 337.064 1000.84 337.064Z" fill="white"/>
<path d="M973.651 348.039C974.19 348.039 974.627 347.602 974.627 347.063C974.627 346.524 974.19 346.088 973.651 346.088C973.113 346.088 972.676 346.524 972.676 347.063C972.676 347.602 973.113 348.039 973.651 348.039Z" fill="white"/>
<path d="M966.335 285.36C966.874 285.36 967.31 284.923 967.31 284.385C967.31 283.846 966.874 283.409 966.335 283.409C965.796 283.409 965.359 283.846 965.359 284.385C965.359 284.923 965.796 285.36 966.335 285.36Z" fill="white"/>
<path d="M896.827 255.606C897.366 255.606 897.803 255.169 897.803 254.631C897.803 254.092 897.366 253.655 896.827 253.655C896.288 253.655 895.852 254.092 895.852 254.631C895.852 255.169 896.288 255.606 896.827 255.606Z" fill="white"/>
<path d="M920.241 370.964C920.78 370.964 921.217 370.527 921.217 369.988C921.217 369.45 920.78 369.013 920.241 369.013C919.702 369.013 919.266 369.45 919.266 369.988C919.266 370.527 919.702 370.964 920.241 370.964Z" fill="white"/>
<path d="M679.282 187.758C679.821 187.758 680.258 187.321 680.258 186.783C680.258 186.244 679.821 185.807 679.282 185.807C678.743 185.807 678.307 186.244 678.307 186.783C678.307 187.321 678.743 187.758 679.282 187.758Z" fill="white"/>
<path d="M633.188 153.858C633.727 153.858 634.164 153.421 634.164 152.883C634.164 152.344 633.727 151.907 633.188 151.907C632.65 151.907 632.213 152.344 632.213 152.883C632.213 153.421 632.65 153.858 633.188 153.858Z" fill="white"/>
<path d="M491.976 42.3288C492.514 42.3288 492.951 41.892 492.951 41.3532C492.951 40.8145 492.514 40.3777 491.976 40.3777C491.437 40.3777 491 40.8145 491 41.3532C491 41.892 491.437 42.3288 491.976 42.3288Z" fill="white"/>
<path d="M657.976 46.3288C658.514 46.3288 658.951 45.892 658.951 45.3532C658.951 44.8144 658.514 44.3777 657.976 44.3777C657.437 44.3777 657 44.8144 657 45.3532C657 45.892 657.437 46.3288 657.976 46.3288Z" fill="white"/>
<path d="M804.03 71.9126C804.569 71.9126 805.006 71.4759 805.006 70.9371C805.006 70.3983 804.569 69.9615 804.03 69.9615C803.492 69.9615 803.055 70.3983 803.055 70.9371C803.055 71.4759 803.492 71.9126 804.03 71.9126Z" fill="white"/>
<path d="M190.901 237.511C191.44 237.511 191.877 237.074 191.877 236.535C191.877 235.996 191.44 235.56 190.901 235.56C190.363 235.56 189.926 235.996 189.926 236.535C189.926 237.074 190.363 237.511 190.901 237.511Z" fill="white"/>
<path d="M795.128 161.175C795.667 161.175 796.103 160.738 796.103 160.199C796.103 159.66 795.667 159.224 795.128 159.224C794.589 159.224 794.152 159.66 794.152 160.199C794.152 160.738 794.589 161.175 795.128 161.175Z" fill="white"/>
<path d="M738.181 147.029C738.719 147.029 739.156 146.593 739.156 146.054C739.156 145.515 738.719 145.078 738.181 145.078C737.642 145.078 737.205 145.515 737.205 146.054C737.205 146.593 737.642 147.029 738.181 147.029Z" fill="white"/>
<path d="M694.647 300.237C695.186 300.237 695.623 299.8 695.623 299.262C695.623 298.723 695.186 298.286 694.647 298.286C694.109 298.286 693.672 298.723 693.672 299.262C693.672 299.8 694.109 300.237 694.647 300.237Z" fill="white"/>
<path d="M713.792 93.9843C714.331 93.9843 714.768 93.5475 714.768 93.0087C714.768 92.47 714.331 92.0332 713.792 92.0332C713.253 92.0332 712.816 92.47 712.816 93.0087C712.816 93.5475 713.253 93.9843 713.792 93.9843Z" fill="white"/>
<path d="M670.015 92.0332C670.553 92.0332 670.99 91.5964 670.99 91.0576C670.99 90.5188 670.553 90.0821 670.015 90.0821C669.476 90.0821 669.039 90.5188 669.039 91.0576C669.039 91.5964 669.476 92.0332 670.015 92.0332Z" fill="white"/>
<path d="M799.64 101.301C800.178 101.301 800.615 100.864 800.615 100.325C800.615 99.7865 800.178 99.3497 799.64 99.3497C799.101 99.3497 798.664 99.7865 798.664 100.325C798.664 100.864 799.101 101.301 799.64 101.301Z" fill="white"/>
<path d="M782.933 222.024C783.471 222.024 783.908 221.587 783.908 221.049C783.908 220.51 783.471 220.073 782.933 220.073C782.394 220.073 781.957 220.51 781.957 221.049C781.957 221.587 782.394 222.024 782.933 222.024Z" fill="white"/>
<path d="M614.165 367.55C614.704 367.55 615.141 367.113 615.141 366.574C615.141 366.035 614.704 365.599 614.165 365.599C613.626 365.599 613.189 366.035 613.189 366.574C613.189 367.113 613.626 367.55 614.165 367.55Z" fill="white"/>
<path d="M305.976 169.329C306.514 169.329 306.951 168.892 306.951 168.353C306.951 167.814 306.514 167.378 305.976 167.378C305.437 167.378 305 167.814 305 168.353C305 168.892 305.437 169.329 305.976 169.329Z" fill="white"/>
<path d="M859.757 204.708C860.296 204.708 860.732 204.271 860.732 203.733C860.732 203.194 860.296 202.757 859.757 202.757C859.218 202.757 858.781 203.194 858.781 203.733C858.781 204.271 859.218 204.708 859.757 204.708Z" fill="white"/>
<path d="M815.249 305.725C815.788 305.725 816.225 305.288 816.225 304.749C816.225 304.21 815.788 303.774 815.249 303.774C814.71 303.774 814.273 304.21 814.273 304.749C814.273 305.288 814.71 305.725 815.249 305.725Z" fill="white"/>
<path d="M805.979 308.651C806.518 308.651 806.955 308.214 806.955 307.676C806.955 307.137 806.518 306.7 805.979 306.7C805.441 306.7 805.004 307.137 805.004 307.676C805.004 308.214 805.441 308.651 805.979 308.651Z" fill="white"/>
<path d="M764.155 306.7C764.694 306.7 765.131 306.263 765.131 305.725C765.131 305.186 764.694 304.749 764.155 304.749C763.616 304.749 763.18 305.186 763.18 305.725C763.18 306.263 763.616 306.7 764.155 306.7Z" fill="white"/>
<path d="M768.667 246.826C769.206 246.826 769.643 246.389 769.643 245.851C769.643 245.312 769.206 244.875 768.667 244.875C768.128 244.875 767.691 245.312 767.691 245.851C767.691 246.389 768.128 246.826 768.667 246.826Z" fill="white"/>
<path d="M751.96 367.55C752.499 367.55 752.935 367.113 752.935 366.574C752.935 366.035 752.499 365.599 751.96 365.599C751.421 365.599 750.984 366.035 750.984 366.574C750.984 367.113 751.421 367.55 751.96 367.55Z" fill="white"/>
<path d="M970.116 238.534C970.655 238.534 971.092 238.097 971.092 237.559C971.092 237.02 970.655 236.583 970.116 236.583C969.577 236.583 969.141 237.02 969.141 237.559C969.141 238.097 969.577 238.534 970.116 238.534Z" fill="white"/>
<path d="M858.782 133.006C859.321 133.006 859.758 132.569 859.758 132.03C859.758 131.492 859.321 131.055 858.782 131.055C858.243 131.055 857.807 131.492 857.807 132.03C857.807 132.569 858.243 133.006 858.782 133.006Z" fill="white"/>
<path d="M880.731 107.154C881.27 107.154 881.707 106.717 881.707 106.179C881.707 105.64 881.27 105.203 880.731 105.203C880.193 105.203 879.756 105.64 879.756 106.179C879.756 106.717 880.193 107.154 880.731 107.154Z" fill="white"/>
<path d="M922.558 109.227C923.096 109.227 923.533 108.79 923.533 108.252C923.533 107.713 923.096 107.276 922.558 107.276C922.019 107.276 921.582 107.713 921.582 108.252C921.582 108.79 922.019 109.227 922.558 109.227Z" fill="white"/>
<path d="M918.046 168.979C918.585 168.979 919.021 168.542 919.021 168.003C919.021 167.465 918.585 167.028 918.046 167.028C917.507 167.028 917.07 167.465 917.07 168.003C917.07 168.542 917.507 168.979 918.046 168.979Z" fill="white"/>
<path d="M436.86 185.563C437.399 185.563 437.836 185.126 437.836 184.588C437.836 184.049 437.399 183.612 436.86 183.612C436.322 183.612 435.885 184.049 435.885 184.588C435.885 185.126 436.322 185.563 436.86 185.563Z" fill="white"/>
<path d="M393.976 307.329C394.514 307.329 394.951 306.892 394.951 306.353C394.951 305.815 394.514 305.378 393.976 305.378C393.437 305.378 393 305.815 393 306.353C393 306.892 393.437 307.329 393.976 307.329Z" fill="white"/>
<path d="M254.976 339.329C255.514 339.329 255.951 338.892 255.951 338.353C255.951 337.814 255.514 337.378 254.976 337.378C254.437 337.378 254 337.814 254 338.353C254 338.892 254.437 339.329 254.976 339.329Z" fill="white"/>
<path d="M171.513 222.634C172.051 222.634 172.488 222.197 172.488 221.658C172.488 221.119 172.051 220.683 171.513 220.683C170.974 220.683 170.537 221.119 170.537 221.658C170.537 222.197 170.974 222.634 171.513 222.634Z" fill="white"/>
<path d="M298.976 40.3288C299.514 40.3288 299.951 39.892 299.951 39.3532C299.951 38.8144 299.514 38.3777 298.976 38.3777C298.437 38.3777 298 38.8144 298 39.3532C298 39.892 298.437 40.3288 298.976 40.3288Z" fill="white"/>
<path d="M584.976 166.329C585.514 166.329 585.951 165.892 585.951 165.353C585.951 164.814 585.514 164.378 584.976 164.378C584.437 164.378 584 164.814 584 165.353C584 165.892 584.437 166.329 584.976 166.329Z" fill="white"/>
<path d="M573.436 101.057C573.975 101.057 574.412 100.62 574.412 100.081C574.412 99.5426 573.975 99.1058 573.436 99.1058C572.898 99.1058 572.461 99.5426 572.461 100.081C572.461 100.62 572.898 101.057 573.436 101.057Z" fill="white"/>
<path d="M527.341 186.661C527.88 186.661 528.316 186.224 528.316 185.685C528.316 185.146 527.88 184.71 527.341 184.71C526.802 184.71 526.365 185.146 526.365 185.685C526.365 186.224 526.802 186.661 527.341 186.661Z" fill="white"/>
<path d="M291.138 389.255C291.676 389.255 292.113 388.819 292.113 388.28C292.113 387.741 291.676 387.304 291.138 387.304C290.599 387.304 290.162 387.741 290.162 388.28C290.162 388.819 290.599 389.255 291.138 389.255Z" fill="white"/>
<path d="M75.9755 170.329C76.5143 170.329 76.9511 169.892 76.9511 169.353C76.9511 168.814 76.5143 168.378 75.9755 168.378C75.4367 168.378 75 168.814 75 169.353C75 169.892 75.4367 170.329 75.9755 170.329Z" fill="white"/>
<path d="M396.132 382.305C396.671 382.305 397.107 381.868 397.107 381.329C397.107 380.79 396.671 380.354 396.132 380.354C395.593 380.354 395.156 380.79 395.156 381.329C395.156 381.868 395.593 382.305 396.132 382.305Z" fill="white"/>
<path d="M221.143 183.246C221.682 183.246 222.119 182.809 222.119 182.271C222.119 181.732 221.682 181.295 221.143 181.295C220.605 181.295 220.168 181.732 220.168 182.271C220.168 182.809 220.605 183.246 221.143 183.246Z" fill="white"/>
<path d="M359.06 183.246C359.598 183.246 360.035 182.809 360.035 182.271C360.035 181.732 359.598 181.295 359.06 181.295C358.521 181.295 358.084 181.732 358.084 182.271C358.084 182.809 358.521 183.246 359.06 183.246Z" fill="white"/>
<path d="M516.61 368.281C517.149 368.281 517.586 367.845 517.586 367.306C517.586 366.767 517.149 366.33 516.61 366.33C516.072 366.33 515.635 366.767 515.635 367.306C515.635 367.845 516.072 368.281 516.61 368.281Z" fill="white"/>
<path d="M538.683 342.551C539.221 342.551 539.658 342.115 539.658 341.576C539.658 341.037 539.221 340.6 538.683 340.6C538.144 340.6 537.707 341.037 537.707 341.576C537.707 342.115 538.144 342.551 538.683 342.551Z" fill="white"/>
<path d="M580.976 344.951C581.514 344.951 581.951 344.514 581.951 343.976C581.951 343.437 581.514 343 580.976 343C580.437 343 580 343.437 580 343.976C580 344.514 580.437 344.951 580.976 344.951Z" fill="white"/>
<path d="M637.333 358.648C637.872 358.648 638.308 358.211 638.308 357.672C638.308 357.133 637.872 356.697 637.333 356.697C636.794 356.697 636.357 357.133 636.357 357.672C636.357 358.211 636.794 358.648 637.333 358.648Z" fill="white"/>
</g>
</g>
<defs>
<linearGradient id="paint0_linear" x1="684" y1="1.2599e-05" x2="521.617" y2="506.802" gradientUnits="userSpaceOnUse">
<stop stop-color="#17171B"/>
<stop offset="1" stop-color="#17171B" stop-opacity="0"/>
</linearGradient>
</defs>
</svg>
